M48
; DRILL file {KiCad 7.0.7} date Mon Jan 15 23:48:37 2024
; FORMAT={-:-/ absolute / inch / decimal}
; #@! TF.CreationDate,2024-01-15T23:48:37+01:00
; #@! TF.GenerationSoftware,Kicad,Pcbnew,7.0.7
; #@! TF.FileFunction,Plated,1,4,PTH
FMAT,2
INCH
; #@! TA.AperFunction,Plated,PTH,ViaDrill
T1C0.0157
; #@! TA.AperFunction,Plated,PTH,ComponentDrill
T2C0.0197
; #@! TA.AperFunction,Plated,PTH,ComponentDrill
T3C0.0236
; #@! TA.AperFunction,Plated,PTH,ComponentDrill
T4C0.0354
; #@! TA.AperFunction,Plated,PTH,ComponentDrill
T5C0.0394
; #@! TA.AperFunction,Plated,PTH,ComponentDrill
T6C0.0433
; #@! TA.AperFunction,Plated,PTH,ComponentDrill
T7C0.1260
%
G90
G05
T1
X4.415Y-5.51
X4.42Y-4.135
X4.445Y-4.325
X4.4575Y-4.9975
X4.49Y-5.285
X4.53Y-5.0
X4.565Y-4.495
X4.61Y-5.285
X4.645Y-4.98
X4.715Y-5.285
X4.83Y-5.285
X4.875Y-5.015
X4.895Y-4.815
X4.945Y-4.33
X4.955Y-5.24
X4.995Y-4.335
X5.03Y-4.73
X5.05Y-4.33
X5.07Y-4.77
X5.165Y-4.33
X5.2045Y-4.87
X5.22Y-5.13
X5.235Y-4.115
X5.235Y-4.36
X5.29Y-4.405
X5.295Y-4.71
X5.315Y-4.965
X5.3334Y-5.2166
X5.385Y-5.2845
X5.62Y-5.4871
X5.695Y-5.52
X6.03Y-4.55
X6.03Y-4.665
X6.03Y-4.78
X6.09Y-4.47
X6.115Y-4.065
X6.185Y-4.065
X6.245Y-4.475
X6.25Y-4.065
X6.255Y-4.655
X6.275Y-4.785
X6.34Y-5.44
X6.385Y-4.8
X6.44Y-4.37
X6.49Y-4.92
X6.5Y-5.44
X6.645Y-5.13
X6.675Y-4.37
X6.725Y-4.75
X6.73Y-4.8
X6.735Y-4.65
X6.76Y-4.705
X6.85Y-4.25
X7.035Y-4.92
X7.05Y-5.02
T2
X4.0394Y-4.1339
X4.0394Y-5.5118
X4.067Y-4.067
X4.067Y-4.2007
X4.067Y-5.445
X4.067Y-5.5786
X4.1339Y-4.0394
X4.1339Y-4.2283
X4.1339Y-5.4173
X4.1339Y-5.6063
X4.2007Y-4.067
X4.2007Y-4.2007
X4.2007Y-5.445
X4.2007Y-5.5786
X4.2283Y-4.1339
X4.2283Y-5.5118
X6.9921Y-4.1339
X6.9921Y-5.5118
X7.0198Y-4.067
X7.0198Y-4.2007
X7.0198Y-5.445
X7.0198Y-5.5786
X7.0866Y-4.0394
X7.0866Y-4.2283
X7.0866Y-5.4173
X7.0866Y-5.6063
X7.1534Y-4.067
X7.1534Y-4.2007
X7.1534Y-5.445
X7.1534Y-5.5786
X7.1811Y-4.1339
X7.1811Y-5.5118
T4
X6.5945Y-4.1339
X6.6945Y-4.1339
T5
X4.5Y-4.2
X4.5Y-5.5407
X4.5Y-5.6407
X4.6Y-4.2
X4.6Y-5.5407
X4.6Y-5.6407
X4.7Y-4.2
X4.7Y-5.5407
X4.7Y-5.6407
X4.8Y-4.2
X4.8Y-5.5407
X4.8Y-5.6407
X4.9Y-4.2
X4.9Y-5.5407
X4.9Y-5.6407
X5.0Y-4.2
X5.0Y-5.5407
X5.0Y-5.6407
X5.1Y-4.2
X5.1Y-5.5407
X5.1Y-5.6407
X5.2Y-5.5407
X5.2Y-5.6407
X5.6087Y-4.4685
X5.6087Y-4.5685
X5.6087Y-4.6685
X5.6087Y-4.7685
X5.6087Y-4.8685
X5.6087Y-4.9685
X5.6087Y-5.0685
X5.6087Y-5.1685
X5.7087Y-4.4685
X5.7087Y-4.5685
X5.7087Y-4.6685
X5.7087Y-4.7685
X5.7087Y-4.8685
X5.7087Y-4.9685
X5.7087Y-5.0685
X5.7087Y-5.1685
X5.9Y-5.5407
X5.9Y-5.6407
X6.0Y-5.5407
X6.0Y-5.6407
X6.1Y-5.5407
X6.1Y-5.6407
X6.2Y-5.5407
X6.2Y-5.6407
X6.3Y-5.5407
X6.3Y-5.6407
X6.4Y-5.5407
X6.4Y-5.6407
X6.5Y-5.5407
X6.5Y-5.6407
X6.6Y-5.5407
X6.6Y-5.6407
X6.7Y-5.5407
X6.7Y-5.6407
X6.8Y-5.5407
X6.8Y-5.6407
T6
X6.1713Y-5.0295
X6.1713Y-5.2067
X6.4272Y-5.0295
X6.4272Y-5.2067
X6.7224Y-5.0295
X6.7224Y-5.2067
X6.9783Y-5.0295
X6.9783Y-5.2067
T7
X4.1339Y-4.1339
X4.1339Y-5.5118
X7.0866Y-4.1339
X7.0866Y-5.5118
T3
G00X6.9553Y-4.3969
M15
G01X6.9986Y-4.3969
M16
G05
G00X6.9553Y-4.737
M15
G01X6.9986Y-4.737
M16
G05
G00X7.1266Y-4.3969
M15
G01X7.1581Y-4.3969
M16
G05
G00X7.1266Y-4.737
M15
G01X7.1581Y-4.737
M16
G05
T0
M30
