%TF.GenerationSoftware,KiCad,Pcbnew,7.0.7*%
%TF.CreationDate,2024-01-15T23:48:35+01:00*%
%TF.ProjectId,FlipperZeroESP32,466c6970-7065-4725-9a65-726f45535033,rev?*%
%TF.SameCoordinates,Original*%
%TF.FileFunction,Copper,L2,Inr*%
%TF.FilePolarity,Positive*%
%FSLAX46Y46*%
G04 Gerber Fmt 4.6, Leading zero omitted, Abs format (unit mm)*
G04 Created by KiCad (PCBNEW 7.0.7) date 2024-01-15 23:48:35*
%MOMM*%
%LPD*%
G01*
G04 APERTURE LIST*
%TA.AperFunction,ComponentPad*%
%ADD10R,1.700000X1.700000*%
%TD*%
%TA.AperFunction,ComponentPad*%
%ADD11O,1.700000X1.700000*%
%TD*%
%TA.AperFunction,ComponentPad*%
%ADD12C,0.800000*%
%TD*%
%TA.AperFunction,ComponentPad*%
%ADD13C,6.400000*%
%TD*%
%TA.AperFunction,ComponentPad*%
%ADD14C,2.000000*%
%TD*%
%TA.AperFunction,ComponentPad*%
%ADD15O,2.100000X1.000000*%
%TD*%
%TA.AperFunction,ComponentPad*%
%ADD16O,1.800000X1.000000*%
%TD*%
%TA.AperFunction,ComponentPad*%
%ADD17R,1.800000X1.800000*%
%TD*%
%TA.AperFunction,ComponentPad*%
%ADD18C,1.800000*%
%TD*%
%TA.AperFunction,ViaPad*%
%ADD19C,0.800000*%
%TD*%
%TA.AperFunction,Conductor*%
%ADD20C,0.600000*%
%TD*%
%TA.AperFunction,Conductor*%
%ADD21C,0.250000*%
%TD*%
%TA.AperFunction,Conductor*%
%ADD22C,0.350000*%
%TD*%
G04 APERTURE END LIST*
D10*
%TO.N,+3V3*%
%TO.C,J2*%
X149860000Y-143275000D03*
D11*
X149860000Y-140735000D03*
%TO.N,IO1*%
X152400000Y-143275000D03*
X152400000Y-140735000D03*
%TO.N,GND*%
X154940000Y-143275000D03*
X154940000Y-140735000D03*
%TO.N,IO2*%
X157480000Y-143275000D03*
X157480000Y-140735000D03*
%TO.N,RXD0*%
X160020000Y-143275000D03*
X160020000Y-140735000D03*
%TO.N,TXD0*%
X162560000Y-143275000D03*
X162560000Y-140735000D03*
%TO.N,IO18*%
X165100000Y-143275000D03*
X165100000Y-140735000D03*
%TO.N,IO17*%
X167640000Y-143275000D03*
X167640000Y-140735000D03*
%TO.N,GND*%
X170180000Y-143275000D03*
X170180000Y-140735000D03*
X172720000Y-143275000D03*
X172720000Y-140735000D03*
%TD*%
D12*
%TO.N,GND*%
%TO.C,H1*%
X102600000Y-105000000D03*
X103302944Y-103302944D03*
X103302944Y-106697056D03*
X105000000Y-102600000D03*
D13*
X105000000Y-105000000D03*
D12*
X105000000Y-107400000D03*
X106697056Y-103302944D03*
X106697056Y-106697056D03*
X107400000Y-105000000D03*
%TD*%
D10*
%TO.N,+5V*%
%TO.C,J4*%
X142460000Y-113500000D03*
D11*
%TO.N,+3V3*%
X145000000Y-113500000D03*
%TO.N,IO37*%
X142460000Y-116040000D03*
%TO.N,IO36*%
X145000000Y-116040000D03*
%TO.N,IO35*%
X142460000Y-118580000D03*
%TO.N,GND*%
X145000000Y-118580000D03*
X142460000Y-121120000D03*
%TO.N,IO21*%
X145000000Y-121120000D03*
%TO.N,IO16*%
X142460000Y-123660000D03*
%TO.N,IO15*%
X145000000Y-123660000D03*
%TO.N,IO14*%
X142460000Y-126200000D03*
%TO.N,IO9*%
X145000000Y-126200000D03*
%TO.N,IO8*%
X142460000Y-128740000D03*
%TO.N,IO7*%
X145000000Y-128740000D03*
%TO.N,GND*%
X142460000Y-131280000D03*
X145000000Y-131280000D03*
%TD*%
D14*
%TO.N,IO0*%
%TO.C,SW2*%
X170750000Y-127750000D03*
X177250000Y-127750000D03*
%TO.N,GND*%
X170750000Y-132250000D03*
X177250000Y-132250000D03*
%TD*%
%TO.N,RST*%
%TO.C,SW1*%
X156750000Y-127750000D03*
X163250000Y-127750000D03*
%TO.N,GND*%
X156750000Y-132250000D03*
X163250000Y-132250000D03*
%TD*%
D12*
%TO.N,GND*%
%TO.C,H2*%
X177600000Y-105000000D03*
X178302944Y-103302944D03*
X178302944Y-106697056D03*
X180000000Y-102600000D03*
D13*
X180000000Y-105000000D03*
D12*
X180000000Y-107400000D03*
X181697056Y-103302944D03*
X181697056Y-106697056D03*
X182400000Y-105000000D03*
%TD*%
%TO.N,GND*%
%TO.C,H4*%
X177600000Y-140000000D03*
X178302944Y-138302944D03*
X178302944Y-141697056D03*
X180000000Y-137600000D03*
D13*
X180000000Y-140000000D03*
D12*
X180000000Y-142400000D03*
X181697056Y-138302944D03*
X181697056Y-141697056D03*
X182400000Y-140000000D03*
%TD*%
%TO.N,GND*%
%TO.C,H3*%
X102600000Y-140000000D03*
X103302944Y-138302944D03*
X103302944Y-141697056D03*
X105000000Y-137600000D03*
D13*
X105000000Y-140000000D03*
D12*
X105000000Y-142400000D03*
X106697056Y-138302944D03*
X106697056Y-141697056D03*
X107400000Y-140000000D03*
%TD*%
D15*
%TO.N,GND*%
%TO.C,J3*%
X177215000Y-120320000D03*
D16*
X181415000Y-120320000D03*
D15*
X177215000Y-111680000D03*
D16*
X181415000Y-111680000D03*
%TD*%
D10*
%TO.N,GND*%
%TO.C,J5*%
X114300000Y-106680000D03*
D11*
%TO.N,TMS*%
X116840000Y-106680000D03*
%TO.N,TDI*%
X119380000Y-106680000D03*
%TO.N,TDO*%
X121920000Y-106680000D03*
%TO.N,TCK*%
X124460000Y-106680000D03*
%TO.N,RST*%
X127000000Y-106680000D03*
%TO.N,+3V3*%
X129540000Y-106680000D03*
%TD*%
D10*
%TO.N,+5V*%
%TO.C,J1*%
X114300000Y-143275000D03*
D11*
X114300000Y-140735000D03*
%TO.N,IO11*%
X116840000Y-143275000D03*
X116840000Y-140735000D03*
%TO.N,IO13*%
X119380000Y-143275000D03*
X119380000Y-140735000D03*
%TO.N,IO12*%
X121920000Y-143275000D03*
X121920000Y-140735000D03*
%TO.N,IO10*%
X124460000Y-143275000D03*
X124460000Y-140735000D03*
%TO.N,RTS*%
X127000000Y-143275000D03*
X127000000Y-140735000D03*
%TO.N,DTR*%
X129540000Y-143275000D03*
X129540000Y-140735000D03*
%TO.N,GND*%
X132080000Y-143275000D03*
X132080000Y-140735000D03*
%TD*%
D17*
%TO.N,GND*%
%TO.C,D1*%
X167500000Y-105000000D03*
D18*
%TO.N,Net-(D1-A)*%
X170040000Y-105000000D03*
%TD*%
D19*
%TO.N,GND*%
X112268000Y-105029000D03*
X112141000Y-139954000D03*
%TO.N,TXD0*%
X142748000Y-139373500D03*
%TO.N,RXD0*%
X144653000Y-140208000D03*
%TO.N,TXD0*%
X136779000Y-134225845D03*
%TO.N,RXD0*%
X135469345Y-132500655D03*
X115062000Y-127000000D03*
%TO.N,TXD0*%
X113220500Y-126936500D03*
%TO.N,+3V3*%
X158877000Y-118237000D03*
X158623000Y-113665000D03*
X158750000Y-103251000D03*
X171069000Y-118110000D03*
X122682000Y-134239000D03*
X132969000Y-104521000D03*
X157099000Y-103251000D03*
X173990000Y-107950000D03*
X162179000Y-121920000D03*
X169545000Y-110998000D03*
X117094000Y-134239000D03*
X155321000Y-103251000D03*
%TO.N,GND*%
X112903000Y-109855000D03*
X163576000Y-110998000D03*
X153162000Y-115570000D03*
X114046000Y-134239000D03*
X153162000Y-121412000D03*
X170942000Y-121920000D03*
X153162000Y-118491000D03*
X154686000Y-113538000D03*
%TO.N,+5V*%
X159385000Y-121539000D03*
%TO.N,RST*%
X119761000Y-134239000D03*
%TO.N,IO0*%
X132969000Y-110744000D03*
%TO.N,IO11*%
X124333000Y-122301000D03*
%TO.N,IO13*%
X127762000Y-120142000D03*
%TO.N,IO12*%
X128778000Y-121158000D03*
%TO.N,IO10*%
X132194500Y-123698000D03*
%TO.N,RTS*%
X178689000Y-124968000D03*
X164846000Y-124968000D03*
%TO.N,DTR*%
X168783000Y-130302000D03*
X179070000Y-127508000D03*
%TO.N,IO2*%
X115951000Y-114173000D03*
%TO.N,RXD0*%
X170815000Y-120650000D03*
%TO.N,TXD0*%
X171704000Y-119507000D03*
%TO.N,IO17*%
X165100000Y-138176000D03*
X161036000Y-138176000D03*
%TO.N,IO37*%
X134366000Y-111887000D03*
X125603000Y-109982000D03*
%TO.N,IO36*%
X126873000Y-110109000D03*
%TO.N,IO35*%
X131191000Y-109982000D03*
X128270000Y-109982000D03*
%TO.N,IO16*%
X132588000Y-130302000D03*
X125857000Y-133096000D03*
%TO.N,IO15*%
X123825000Y-127381000D03*
%TO.N,IO14*%
X134493000Y-119634000D03*
%TO.N,IO9*%
X135001000Y-126111000D03*
%TO.N,IO7*%
X117983000Y-126492000D03*
%TD*%
D20*
%TO.N,GND*%
X112239000Y-105000000D02*
X112268000Y-105029000D01*
X107400000Y-105000000D02*
X112239000Y-105000000D01*
X112095000Y-140000000D02*
X112141000Y-139954000D01*
X107400000Y-140000000D02*
X112095000Y-140000000D01*
D21*
%TO.N,RXD0*%
X144653000Y-140208000D02*
X139573000Y-140208000D01*
X139573000Y-140208000D02*
X135469345Y-136104345D01*
X135469345Y-136104345D02*
X135469345Y-132500655D01*
%TO.N,TXD0*%
X141926655Y-139373500D02*
X142748000Y-139373500D01*
X136779000Y-134225845D02*
X141926655Y-139373500D01*
D22*
%TO.N,IO2*%
X127254000Y-114173000D02*
X115951000Y-114173000D01*
X154559000Y-135763000D02*
X140335000Y-135763000D01*
X140335000Y-135763000D02*
X132969500Y-128397500D01*
X157480000Y-140735000D02*
X157480000Y-138684000D01*
X157480000Y-138684000D02*
X154559000Y-135763000D01*
X132969500Y-128397500D02*
X132969500Y-119888500D01*
X132969500Y-119888500D02*
X127254000Y-114173000D01*
%TO.N,IO11*%
X117980000Y-139595000D02*
X117980000Y-128654000D01*
X117980000Y-128654000D02*
X124333000Y-122301000D01*
X116840000Y-140735000D02*
X117980000Y-139595000D01*
%TO.N,IO13*%
X118530000Y-139885000D02*
X118530000Y-129374000D01*
X118530000Y-129374000D02*
X127762000Y-120142000D01*
X119380000Y-140735000D02*
X118530000Y-139885000D01*
%TO.N,IO12*%
X121070000Y-128866000D02*
X128778000Y-121158000D01*
X121920000Y-140735000D02*
X121070000Y-139885000D01*
X121070000Y-139885000D02*
X121070000Y-128866000D01*
%TO.N,IO10*%
X124460000Y-140735000D02*
X131826000Y-133369000D01*
X131813000Y-130623016D02*
X131813000Y-124079500D01*
X131826000Y-130636016D02*
X131813000Y-130623016D01*
X131813000Y-124079500D02*
X132194500Y-123698000D01*
X131826000Y-133369000D02*
X131826000Y-130636016D01*
%TO.N,RXD0*%
X165100000Y-123444000D02*
X164465000Y-123444000D01*
X164465000Y-123444000D02*
X160020000Y-127889000D01*
X170815000Y-120650000D02*
X169799000Y-121666000D01*
X169799000Y-121666000D02*
X166878000Y-121666000D01*
X160020000Y-127889000D02*
X160020000Y-140735000D01*
X166878000Y-121666000D02*
X165100000Y-123444000D01*
%TO.N,TXD0*%
X165100000Y-126873000D02*
X165100000Y-133350000D01*
X171069000Y-123317000D02*
X168656000Y-123317000D01*
X171958000Y-120904000D02*
X171958000Y-122428000D01*
X171704000Y-120650000D02*
X171958000Y-120904000D01*
X171958000Y-122428000D02*
X171069000Y-123317000D01*
X168656000Y-123317000D02*
X165100000Y-126873000D01*
X165100000Y-133350000D02*
X162560000Y-135890000D01*
X162560000Y-135890000D02*
X162560000Y-140735000D01*
X171704000Y-119507000D02*
X171704000Y-120650000D01*
%TO.N,IO37*%
X131699000Y-111887000D02*
X128905000Y-109093000D01*
X134366000Y-111887000D02*
X131699000Y-111887000D01*
X126492000Y-109093000D02*
X125603000Y-109982000D01*
X128905000Y-109093000D02*
X126492000Y-109093000D01*
%TO.N,IO36*%
X134119000Y-117355000D02*
X143685000Y-117355000D01*
X143685000Y-117355000D02*
X145000000Y-116040000D01*
X126873000Y-110109000D02*
X134119000Y-117355000D01*
%TD*%
%TA.AperFunction,Conductor*%
%TO.N,GND*%
G36*
X172173692Y-143044685D02*
G01*
X172219447Y-143097489D01*
X172229391Y-143166647D01*
X172225631Y-143183933D01*
X172220000Y-143203111D01*
X172220000Y-143346888D01*
X172225631Y-143366067D01*
X172225630Y-143435936D01*
X172187855Y-143494714D01*
X172124299Y-143523738D01*
X172106653Y-143525000D01*
X170793347Y-143525000D01*
X170726308Y-143505315D01*
X170680553Y-143452511D01*
X170670609Y-143383353D01*
X170674369Y-143366067D01*
X170680000Y-143346888D01*
X170680000Y-143203111D01*
X170674369Y-143183933D01*
X170674370Y-143114064D01*
X170712145Y-143055286D01*
X170775701Y-143026262D01*
X170793347Y-143025000D01*
X172106653Y-143025000D01*
X172173692Y-143044685D01*
G37*
%TD.AperFunction*%
%TA.AperFunction,Conductor*%
G36*
X132257512Y-141234507D02*
G01*
X132310315Y-141280262D01*
X132330000Y-141347301D01*
X132330000Y-142662698D01*
X132310315Y-142729737D01*
X132257511Y-142775492D01*
X132188355Y-142785436D01*
X132115766Y-142775000D01*
X132115763Y-142775000D01*
X132044237Y-142775000D01*
X132044233Y-142775000D01*
X131971645Y-142785436D01*
X131902487Y-142775492D01*
X131849684Y-142729736D01*
X131830000Y-142662698D01*
X131830000Y-141347301D01*
X131849685Y-141280262D01*
X131902489Y-141234507D01*
X131971647Y-141224563D01*
X132044237Y-141235000D01*
X132044238Y-141235000D01*
X132115762Y-141235000D01*
X132115763Y-141235000D01*
X132188353Y-141224563D01*
X132257512Y-141234507D01*
G37*
%TD.AperFunction*%
%TA.AperFunction,Conductor*%
G36*
X155117512Y-141234507D02*
G01*
X155170315Y-141280262D01*
X155190000Y-141347301D01*
X155190000Y-142662698D01*
X155170315Y-142729737D01*
X155117511Y-142775492D01*
X155048355Y-142785436D01*
X154975766Y-142775000D01*
X154975763Y-142775000D01*
X154904237Y-142775000D01*
X154904233Y-142775000D01*
X154831645Y-142785436D01*
X154762487Y-142775492D01*
X154709684Y-142729736D01*
X154690000Y-142662698D01*
X154690000Y-141347301D01*
X154709685Y-141280262D01*
X154762489Y-141234507D01*
X154831647Y-141224563D01*
X154904237Y-141235000D01*
X154904238Y-141235000D01*
X154975762Y-141235000D01*
X154975763Y-141235000D01*
X155048353Y-141224563D01*
X155117512Y-141234507D01*
G37*
%TD.AperFunction*%
%TA.AperFunction,Conductor*%
G36*
X170357512Y-141234507D02*
G01*
X170410315Y-141280262D01*
X170430000Y-141347301D01*
X170430000Y-142662698D01*
X170410315Y-142729737D01*
X170357511Y-142775492D01*
X170288355Y-142785436D01*
X170215766Y-142775000D01*
X170215763Y-142775000D01*
X170144237Y-142775000D01*
X170144233Y-142775000D01*
X170071645Y-142785436D01*
X170002487Y-142775492D01*
X169949684Y-142729736D01*
X169930000Y-142662698D01*
X169930000Y-141347301D01*
X169949685Y-141280262D01*
X170002489Y-141234507D01*
X170071647Y-141224563D01*
X170144237Y-141235000D01*
X170144238Y-141235000D01*
X170215762Y-141235000D01*
X170215763Y-141235000D01*
X170288353Y-141224563D01*
X170357512Y-141234507D01*
G37*
%TD.AperFunction*%
%TA.AperFunction,Conductor*%
G36*
X172897512Y-141234507D02*
G01*
X172950315Y-141280262D01*
X172970000Y-141347301D01*
X172970000Y-142662698D01*
X172950315Y-142729737D01*
X172897511Y-142775492D01*
X172828355Y-142785436D01*
X172755766Y-142775000D01*
X172755763Y-142775000D01*
X172684237Y-142775000D01*
X172684233Y-142775000D01*
X172611645Y-142785436D01*
X172542487Y-142775492D01*
X172489684Y-142729736D01*
X172470000Y-142662698D01*
X172470000Y-141347301D01*
X172489685Y-141280262D01*
X172542489Y-141234507D01*
X172611647Y-141224563D01*
X172684237Y-141235000D01*
X172684238Y-141235000D01*
X172755762Y-141235000D01*
X172755763Y-141235000D01*
X172828353Y-141224563D01*
X172897512Y-141234507D01*
G37*
%TD.AperFunction*%
%TA.AperFunction,Conductor*%
G36*
X172173692Y-140504685D02*
G01*
X172219447Y-140557489D01*
X172229391Y-140626647D01*
X172225631Y-140643933D01*
X172220000Y-140663111D01*
X172220000Y-140806888D01*
X172225631Y-140826067D01*
X172225630Y-140895936D01*
X172187855Y-140954714D01*
X172124299Y-140983738D01*
X172106653Y-140985000D01*
X170793347Y-140985000D01*
X170726308Y-140965315D01*
X170680553Y-140912511D01*
X170670609Y-140843353D01*
X170674369Y-140826067D01*
X170680000Y-140806888D01*
X170680000Y-140663111D01*
X170674369Y-140643933D01*
X170674370Y-140574064D01*
X170712145Y-140515286D01*
X170775701Y-140486262D01*
X170793347Y-140485000D01*
X172106653Y-140485000D01*
X172173692Y-140504685D01*
G37*
%TD.AperFunction*%
%TA.AperFunction,Conductor*%
G36*
X161714049Y-127252764D02*
G01*
X161769983Y-127294636D01*
X161794400Y-127360100D01*
X161790922Y-127399386D01*
X161764892Y-127502174D01*
X161764890Y-127502187D01*
X161744357Y-127749994D01*
X161744357Y-127750005D01*
X161764890Y-127997812D01*
X161764892Y-127997824D01*
X161825936Y-128238881D01*
X161925826Y-128466606D01*
X162061833Y-128674782D01*
X162061836Y-128674785D01*
X162230256Y-128857738D01*
X162426491Y-129010474D01*
X162645190Y-129128828D01*
X162880386Y-129209571D01*
X163125665Y-129250500D01*
X163374335Y-129250500D01*
X163619614Y-129209571D01*
X163854810Y-129128828D01*
X164073509Y-129010474D01*
X164224337Y-128893079D01*
X164289332Y-128867436D01*
X164357872Y-128881002D01*
X164408196Y-128929471D01*
X164424500Y-128990932D01*
X164424500Y-131009701D01*
X164404815Y-131076740D01*
X164352011Y-131122495D01*
X164282853Y-131132439D01*
X164224338Y-131107555D01*
X164073230Y-130989943D01*
X164073228Y-130989942D01*
X163854614Y-130871635D01*
X163854603Y-130871630D01*
X163619493Y-130790916D01*
X163374293Y-130750000D01*
X163125707Y-130750000D01*
X162880506Y-130790916D01*
X162645396Y-130871630D01*
X162645390Y-130871632D01*
X162426761Y-130989949D01*
X162379942Y-131026388D01*
X162379942Y-131026390D01*
X162956833Y-131603280D01*
X162990318Y-131664603D01*
X162985334Y-131734294D01*
X162947408Y-131787148D01*
X162844262Y-131871064D01*
X162844258Y-131871069D01*
X162793947Y-131942343D01*
X162739204Y-131985760D01*
X162669679Y-131992689D01*
X162607444Y-131960930D01*
X162604962Y-131958515D01*
X162026564Y-131380116D01*
X161926267Y-131533632D01*
X161826412Y-131761282D01*
X161765387Y-132002261D01*
X161765385Y-132002270D01*
X161744859Y-132249994D01*
X161744859Y-132250005D01*
X161765385Y-132497729D01*
X161765387Y-132497738D01*
X161826412Y-132738717D01*
X161926266Y-132966364D01*
X162026564Y-133119882D01*
X162601482Y-132544964D01*
X162662805Y-132511479D01*
X162732496Y-132516463D01*
X162788430Y-132558334D01*
X162791514Y-132563249D01*
X162791549Y-132563225D01*
X162796441Y-132570156D01*
X162899637Y-132680651D01*
X162899638Y-132680652D01*
X162934698Y-132701973D01*
X162981749Y-132753623D01*
X162993407Y-132822513D01*
X162965970Y-132886770D01*
X162957950Y-132895601D01*
X162379942Y-133473609D01*
X162426768Y-133510055D01*
X162426770Y-133510056D01*
X162645385Y-133628364D01*
X162645396Y-133628369D01*
X162880506Y-133709083D01*
X163125707Y-133750000D01*
X163374293Y-133750000D01*
X163437096Y-133739520D01*
X163506461Y-133747902D01*
X163560283Y-133792455D01*
X163581474Y-133859033D01*
X163563306Y-133926500D01*
X163545187Y-133949510D01*
X162098100Y-135396597D01*
X162095373Y-135399164D01*
X162050670Y-135438769D01*
X162050667Y-135438772D01*
X162016736Y-135487928D01*
X162014517Y-135490943D01*
X161977674Y-135537970D01*
X161973824Y-135546525D01*
X161962808Y-135566056D01*
X161957484Y-135573770D01*
X161957481Y-135573774D01*
X161936301Y-135629618D01*
X161934869Y-135633075D01*
X161910350Y-135687560D01*
X161908661Y-135696777D01*
X161902639Y-135718381D01*
X161899311Y-135727156D01*
X161892108Y-135786470D01*
X161891545Y-135790171D01*
X161880781Y-135848909D01*
X161880781Y-135848915D01*
X161884387Y-135908533D01*
X161884500Y-135912277D01*
X161884500Y-137449547D01*
X161864815Y-137516586D01*
X161812011Y-137562341D01*
X161742853Y-137572285D01*
X161679297Y-137543260D01*
X161668351Y-137532520D01*
X161641871Y-137503112D01*
X161641870Y-137503111D01*
X161488734Y-137391851D01*
X161488729Y-137391848D01*
X161315807Y-137314857D01*
X161315802Y-137314855D01*
X161170000Y-137283865D01*
X161130646Y-137275500D01*
X160941354Y-137275500D01*
X160845280Y-137295921D01*
X160775613Y-137290604D01*
X160719879Y-137248466D01*
X160695775Y-137182886D01*
X160695500Y-137174630D01*
X160695500Y-128220163D01*
X160715185Y-128153124D01*
X160731819Y-128132482D01*
X161146920Y-127717381D01*
X161583037Y-127281263D01*
X161644358Y-127247780D01*
X161714049Y-127252764D01*
G37*
%TD.AperFunction*%
%TA.AperFunction,Conductor*%
G36*
X171240589Y-121525582D02*
G01*
X171277804Y-121584716D01*
X171282500Y-121618519D01*
X171282500Y-122096836D01*
X171262815Y-122163875D01*
X171246181Y-122184517D01*
X170825518Y-122605181D01*
X170764195Y-122638666D01*
X170737837Y-122641500D01*
X168678272Y-122641500D01*
X168674527Y-122641387D01*
X168614917Y-122637781D01*
X168614909Y-122637781D01*
X168556171Y-122648545D01*
X168552470Y-122649108D01*
X168493153Y-122656312D01*
X168484375Y-122659640D01*
X168462783Y-122665659D01*
X168453562Y-122667349D01*
X168399090Y-122691864D01*
X168395632Y-122693296D01*
X168339772Y-122714482D01*
X168339769Y-122714484D01*
X168332051Y-122719811D01*
X168312514Y-122730830D01*
X168303973Y-122734674D01*
X168303968Y-122734677D01*
X168256946Y-122771515D01*
X168253931Y-122773733D01*
X168204777Y-122807662D01*
X168204769Y-122807669D01*
X168165172Y-122852364D01*
X168162605Y-122855091D01*
X165963141Y-125054556D01*
X165901818Y-125088041D01*
X165832126Y-125083057D01*
X165776193Y-125041185D01*
X165751776Y-124975721D01*
X165751521Y-124968583D01*
X165745101Y-124907500D01*
X165731674Y-124779744D01*
X165673179Y-124599716D01*
X165578533Y-124435784D01*
X165451871Y-124295112D01*
X165399771Y-124257259D01*
X165357105Y-124201929D01*
X165351126Y-124132316D01*
X165383732Y-124070521D01*
X165410090Y-124050837D01*
X165410051Y-124050781D01*
X165411578Y-124049726D01*
X165415049Y-124047135D01*
X165416216Y-124046521D01*
X165416226Y-124046518D01*
X165423933Y-124041197D01*
X165443480Y-124030172D01*
X165452028Y-124026326D01*
X165499066Y-123989472D01*
X165502059Y-123987269D01*
X165551229Y-123953332D01*
X165590852Y-123908605D01*
X165593386Y-123905913D01*
X167121481Y-122377819D01*
X167182805Y-122344334D01*
X167209163Y-122341500D01*
X169776722Y-122341500D01*
X169780466Y-122341613D01*
X169840082Y-122345219D01*
X169840082Y-122345218D01*
X169840085Y-122345219D01*
X169876327Y-122338577D01*
X169898836Y-122334453D01*
X169902540Y-122333889D01*
X169923888Y-122331296D01*
X169961845Y-122326688D01*
X169970605Y-122323365D01*
X169992221Y-122317338D01*
X170001439Y-122315650D01*
X170024783Y-122305144D01*
X170055916Y-122291132D01*
X170059358Y-122289705D01*
X170115226Y-122268518D01*
X170122933Y-122263197D01*
X170142480Y-122252172D01*
X170151028Y-122248326D01*
X170198066Y-122211472D01*
X170201059Y-122209269D01*
X170250229Y-122175332D01*
X170289852Y-122130605D01*
X170292386Y-122127913D01*
X170834073Y-121586227D01*
X170895394Y-121552744D01*
X170908793Y-121550589D01*
X170909631Y-121550500D01*
X170909646Y-121550500D01*
X171094803Y-121511144D01*
X171108064Y-121505239D01*
X171177312Y-121495954D01*
X171240589Y-121525582D01*
G37*
%TD.AperFunction*%
%TA.AperFunction,Conductor*%
G36*
X181392586Y-141039033D02*
G01*
X181621915Y-141268362D01*
X181655400Y-141329685D01*
X181650416Y-141399377D01*
X181608544Y-141455310D01*
X181603126Y-141459144D01*
X181516816Y-141516815D01*
X181516815Y-141516816D01*
X181459144Y-141603126D01*
X181405532Y-141647930D01*
X181336207Y-141656637D01*
X181273180Y-141626482D01*
X181268362Y-141621915D01*
X181039033Y-141392586D01*
X181005548Y-141331263D01*
X181010532Y-141261571D01*
X181046180Y-141210617D01*
X181134870Y-141134870D01*
X181210617Y-141046180D01*
X181269121Y-141007990D01*
X181338989Y-141007490D01*
X181392586Y-141039033D01*
G37*
%TD.AperFunction*%
%TA.AperFunction,Conductor*%
G36*
X178738428Y-141010531D02*
G01*
X178789381Y-141046179D01*
X178865130Y-141134870D01*
X178928855Y-141189296D01*
X178953816Y-141210615D01*
X178992009Y-141269122D01*
X178992507Y-141338990D01*
X178960965Y-141392586D01*
X178731636Y-141621915D01*
X178670313Y-141655400D01*
X178600621Y-141650416D01*
X178544688Y-141608544D01*
X178540853Y-141603124D01*
X178483184Y-141516816D01*
X178396873Y-141459145D01*
X178352068Y-141405533D01*
X178343361Y-141336208D01*
X178373515Y-141273180D01*
X178378083Y-141268362D01*
X178607413Y-141039032D01*
X178668736Y-141005547D01*
X178738428Y-141010531D01*
G37*
%TD.AperFunction*%
%TA.AperFunction,Conductor*%
G36*
X181399377Y-138349582D02*
G01*
X181455310Y-138391454D01*
X181459145Y-138396873D01*
X181516816Y-138483184D01*
X181603124Y-138540853D01*
X181647930Y-138594465D01*
X181656637Y-138663790D01*
X181626483Y-138726817D01*
X181621915Y-138731636D01*
X181392586Y-138960965D01*
X181331263Y-138994450D01*
X181261571Y-138989466D01*
X181210615Y-138953816D01*
X181166746Y-138902452D01*
X181134870Y-138865130D01*
X181046179Y-138789381D01*
X181007989Y-138730878D01*
X181007489Y-138661010D01*
X181039032Y-138607413D01*
X181268362Y-138378083D01*
X181329685Y-138344598D01*
X181399377Y-138349582D01*
G37*
%TD.AperFunction*%
%TA.AperFunction,Conductor*%
G36*
X178726818Y-138373516D02*
G01*
X178731637Y-138378084D01*
X178960966Y-138607413D01*
X178994451Y-138668736D01*
X178989467Y-138738428D01*
X178953817Y-138789384D01*
X178865130Y-138865130D01*
X178789384Y-138953817D01*
X178730877Y-138992010D01*
X178661009Y-138992508D01*
X178607413Y-138960966D01*
X178378084Y-138731637D01*
X178344599Y-138670314D01*
X178349583Y-138600622D01*
X178391455Y-138544689D01*
X178396874Y-138540854D01*
X178400487Y-138538439D01*
X178400489Y-138538439D01*
X178483184Y-138483184D01*
X178538439Y-138400489D01*
X178538439Y-138400487D01*
X178540854Y-138396874D01*
X178594466Y-138352069D01*
X178663791Y-138343362D01*
X178726818Y-138373516D01*
G37*
%TD.AperFunction*%
%TA.AperFunction,Conductor*%
G36*
X144453692Y-131049685D02*
G01*
X144499447Y-131102489D01*
X144509391Y-131171647D01*
X144505631Y-131188933D01*
X144500000Y-131208111D01*
X144500000Y-131351888D01*
X144505631Y-131371067D01*
X144505630Y-131440936D01*
X144467855Y-131499714D01*
X144404299Y-131528738D01*
X144386653Y-131530000D01*
X143073347Y-131530000D01*
X143006308Y-131510315D01*
X142960553Y-131457511D01*
X142950609Y-131388353D01*
X142954369Y-131371067D01*
X142960000Y-131351888D01*
X142960000Y-131208111D01*
X142954369Y-131188933D01*
X142954370Y-131119064D01*
X142992145Y-131060286D01*
X143055701Y-131031262D01*
X143073347Y-131030000D01*
X144386653Y-131030000D01*
X144453692Y-131049685D01*
G37*
%TD.AperFunction*%
%TA.AperFunction,Conductor*%
G36*
X181392586Y-106039033D02*
G01*
X181621915Y-106268362D01*
X181655400Y-106329685D01*
X181650416Y-106399377D01*
X181608544Y-106455310D01*
X181603126Y-106459144D01*
X181516816Y-106516815D01*
X181516815Y-106516816D01*
X181459144Y-106603126D01*
X181405532Y-106647930D01*
X181336207Y-106656637D01*
X181273180Y-106626482D01*
X181268362Y-106621915D01*
X181039033Y-106392586D01*
X181005548Y-106331263D01*
X181010532Y-106261571D01*
X181046180Y-106210617D01*
X181134870Y-106134870D01*
X181210617Y-106046180D01*
X181269121Y-106007990D01*
X181338989Y-106007490D01*
X181392586Y-106039033D01*
G37*
%TD.AperFunction*%
%TA.AperFunction,Conductor*%
G36*
X178738428Y-106010531D02*
G01*
X178789381Y-106046179D01*
X178865130Y-106134870D01*
X178913831Y-106176464D01*
X178953816Y-106210615D01*
X178992009Y-106269122D01*
X178992507Y-106338990D01*
X178960965Y-106392586D01*
X178731636Y-106621915D01*
X178670313Y-106655400D01*
X178600621Y-106650416D01*
X178544688Y-106608544D01*
X178540853Y-106603124D01*
X178483184Y-106516816D01*
X178396873Y-106459145D01*
X178352068Y-106405533D01*
X178343361Y-106336208D01*
X178373515Y-106273180D01*
X178378083Y-106268362D01*
X178607413Y-106039032D01*
X178668736Y-106005547D01*
X178738428Y-106010531D01*
G37*
%TD.AperFunction*%
%TA.AperFunction,Conductor*%
G36*
X181399377Y-103349582D02*
G01*
X181455310Y-103391454D01*
X181459145Y-103396873D01*
X181461560Y-103400488D01*
X181461561Y-103400489D01*
X181516816Y-103483184D01*
X181595106Y-103535496D01*
X181603124Y-103540853D01*
X181647930Y-103594465D01*
X181656637Y-103663790D01*
X181626483Y-103726817D01*
X181621915Y-103731636D01*
X181392586Y-103960965D01*
X181331263Y-103994450D01*
X181261571Y-103989466D01*
X181210615Y-103953816D01*
X181185054Y-103923888D01*
X181134870Y-103865130D01*
X181046179Y-103789381D01*
X181007989Y-103730878D01*
X181007489Y-103661010D01*
X181039032Y-103607413D01*
X181268362Y-103378083D01*
X181329685Y-103344598D01*
X181399377Y-103349582D01*
G37*
%TD.AperFunction*%
%TA.AperFunction,Conductor*%
G36*
X178726818Y-103373516D02*
G01*
X178731637Y-103378084D01*
X178960966Y-103607413D01*
X178994451Y-103668736D01*
X178989467Y-103738428D01*
X178953817Y-103789384D01*
X178865130Y-103865130D01*
X178789384Y-103953817D01*
X178730877Y-103992010D01*
X178661009Y-103992508D01*
X178607413Y-103960966D01*
X178378084Y-103731637D01*
X178344599Y-103670314D01*
X178349583Y-103600622D01*
X178391455Y-103544689D01*
X178396874Y-103540854D01*
X178400487Y-103538439D01*
X178400489Y-103538439D01*
X178483184Y-103483184D01*
X178538439Y-103400489D01*
X178538439Y-103400487D01*
X178540854Y-103396874D01*
X178594466Y-103352069D01*
X178663791Y-103343362D01*
X178726818Y-103373516D01*
G37*
%TD.AperFunction*%
%TA.AperFunction,Conductor*%
G36*
X180217318Y-100009488D02*
G01*
X180415934Y-100018160D01*
X180420865Y-100018574D01*
X180636792Y-100045489D01*
X180832940Y-100071313D01*
X180837265Y-100071883D01*
X180841894Y-100072671D01*
X181054183Y-100117183D01*
X181252534Y-100161157D01*
X181256778Y-100162257D01*
X181464544Y-100224112D01*
X181658658Y-100285317D01*
X181662530Y-100286680D01*
X181864457Y-100365472D01*
X182052817Y-100443494D01*
X182056252Y-100445045D01*
X182131343Y-100481755D01*
X182250992Y-100540249D01*
X182388629Y-100611897D01*
X182432009Y-100634479D01*
X182435107Y-100636207D01*
X182621382Y-100747202D01*
X182793662Y-100856957D01*
X182796377Y-100858789D01*
X182972918Y-100984837D01*
X183135098Y-101109282D01*
X183137426Y-101111159D01*
X183303055Y-101251439D01*
X183454895Y-101390574D01*
X183609424Y-101545103D01*
X183748557Y-101696940D01*
X183888839Y-101862572D01*
X183890716Y-101864900D01*
X184015162Y-102027081D01*
X184141209Y-102203621D01*
X184143040Y-102206335D01*
X184252797Y-102378617D01*
X184363791Y-102564891D01*
X184365525Y-102568000D01*
X184459750Y-102749007D01*
X184509124Y-102850000D01*
X184554953Y-102943744D01*
X184556524Y-102947229D01*
X184634536Y-103135566D01*
X184713309Y-103337445D01*
X184714681Y-103341340D01*
X184775899Y-103535496D01*
X184837735Y-103743200D01*
X184838843Y-103747472D01*
X184882818Y-103945826D01*
X184927326Y-104158101D01*
X184928115Y-104162733D01*
X184954524Y-104363319D01*
X184981422Y-104579114D01*
X184981839Y-104584080D01*
X184990513Y-104782728D01*
X184999500Y-105000000D01*
X184999500Y-140000000D01*
X184990513Y-140217271D01*
X184981839Y-140415918D01*
X184981422Y-140420884D01*
X184954524Y-140636680D01*
X184928115Y-140837265D01*
X184927326Y-140841897D01*
X184882818Y-141054173D01*
X184838843Y-141252526D01*
X184837735Y-141256798D01*
X184775899Y-141464503D01*
X184714681Y-141658658D01*
X184713309Y-141662552D01*
X184634536Y-141864433D01*
X184556524Y-142052769D01*
X184554944Y-142056274D01*
X184459750Y-142250992D01*
X184365525Y-142431998D01*
X184363791Y-142435107D01*
X184252797Y-142621382D01*
X184143040Y-142793663D01*
X184141209Y-142796377D01*
X184015162Y-142972918D01*
X183890716Y-143135099D01*
X183888839Y-143137426D01*
X183748557Y-143303059D01*
X183674982Y-143383353D01*
X183611611Y-143452511D01*
X183609426Y-143454895D01*
X183454895Y-143609426D01*
X183303059Y-143748557D01*
X183137426Y-143888839D01*
X183135099Y-143890716D01*
X182972918Y-144015162D01*
X182796377Y-144141209D01*
X182793663Y-144143040D01*
X182621382Y-144252797D01*
X182435107Y-144363791D01*
X182431998Y-144365525D01*
X182250992Y-144459750D01*
X182056274Y-144554944D01*
X182052769Y-144556524D01*
X181864433Y-144634536D01*
X181662552Y-144713309D01*
X181658658Y-144714681D01*
X181464503Y-144775899D01*
X181256798Y-144837735D01*
X181252526Y-144838843D01*
X181054173Y-144882818D01*
X180841897Y-144927326D01*
X180837265Y-144928115D01*
X180636680Y-144954524D01*
X180420884Y-144981422D01*
X180415918Y-144981839D01*
X180217271Y-144990513D01*
X180000000Y-144999500D01*
X111131000Y-144999500D01*
X111063961Y-144979815D01*
X111018206Y-144927011D01*
X111007002Y-144874837D01*
X111029140Y-140735000D01*
X112944341Y-140735000D01*
X112964936Y-140970403D01*
X112964938Y-140970413D01*
X113026094Y-141198655D01*
X113026096Y-141198659D01*
X113026097Y-141198663D01*
X113105801Y-141369588D01*
X113125965Y-141412830D01*
X113125967Y-141412834D01*
X113191899Y-141506994D01*
X113261504Y-141606400D01*
X113261506Y-141606402D01*
X113383430Y-141728326D01*
X113416915Y-141789649D01*
X113411931Y-141859341D01*
X113370059Y-141915274D01*
X113339083Y-141932189D01*
X113207669Y-141981203D01*
X113207664Y-141981206D01*
X113092455Y-142067452D01*
X113092452Y-142067455D01*
X113006206Y-142182664D01*
X113006202Y-142182671D01*
X112955908Y-142317517D01*
X112949501Y-142377116D01*
X112949500Y-142377135D01*
X112949500Y-144172870D01*
X112949501Y-144172876D01*
X112955908Y-144232483D01*
X113006202Y-144367328D01*
X113006206Y-144367335D01*
X113092452Y-144482544D01*
X113092455Y-144482547D01*
X113207664Y-144568793D01*
X113207671Y-144568797D01*
X113342517Y-144619091D01*
X113342516Y-144619091D01*
X113349444Y-144619835D01*
X113402127Y-144625500D01*
X115197872Y-144625499D01*
X115257483Y-144619091D01*
X115392331Y-144568796D01*
X115507546Y-144482546D01*
X115593796Y-144367331D01*
X115642810Y-144235916D01*
X115684681Y-144179984D01*
X115750145Y-144155566D01*
X115818418Y-144170417D01*
X115846672Y-144191569D01*
X115968599Y-144313495D01*
X116065384Y-144381264D01*
X116162165Y-144449032D01*
X116162167Y-144449033D01*
X116162170Y-144449035D01*
X116376337Y-144548903D01*
X116376343Y-144548904D01*
X116376344Y-144548905D01*
X116404779Y-144556524D01*
X116604592Y-144610063D01*
X116781034Y-144625500D01*
X116839999Y-144630659D01*
X116840000Y-144630659D01*
X116840001Y-144630659D01*
X116898966Y-144625500D01*
X117075408Y-144610063D01*
X117303663Y-144548903D01*
X117517830Y-144449035D01*
X117711401Y-144313495D01*
X117878495Y-144146401D01*
X118008426Y-143960840D01*
X118063001Y-143917217D01*
X118132499Y-143910023D01*
X118194854Y-143941546D01*
X118211574Y-143960841D01*
X118341505Y-144146401D01*
X118508599Y-144313495D01*
X118605384Y-144381264D01*
X118702165Y-144449032D01*
X118702167Y-144449033D01*
X118702170Y-144449035D01*
X118916337Y-144548903D01*
X118916343Y-144548904D01*
X118916344Y-144548905D01*
X118944779Y-144556524D01*
X119144592Y-144610063D01*
X119321034Y-144625500D01*
X119379999Y-144630659D01*
X119380000Y-144630659D01*
X119380001Y-144630659D01*
X119438966Y-144625500D01*
X119615408Y-144610063D01*
X119843663Y-144548903D01*
X120057830Y-144449035D01*
X120251401Y-144313495D01*
X120418495Y-144146401D01*
X120548426Y-143960841D01*
X120603002Y-143917217D01*
X120672500Y-143910023D01*
X120734855Y-143941546D01*
X120751575Y-143960842D01*
X120881281Y-144146082D01*
X120881505Y-144146401D01*
X121048599Y-144313495D01*
X121145384Y-144381264D01*
X121242165Y-144449032D01*
X121242167Y-144449033D01*
X121242170Y-144449035D01*
X121456337Y-144548903D01*
X121456343Y-144548904D01*
X121456344Y-144548905D01*
X121484779Y-144556524D01*
X121684592Y-144610063D01*
X121861034Y-144625500D01*
X121919999Y-144630659D01*
X121920000Y-144630659D01*
X121920001Y-144630659D01*
X121978966Y-144625500D01*
X122155408Y-144610063D01*
X122383663Y-144548903D01*
X122597830Y-144449035D01*
X122791401Y-144313495D01*
X122958495Y-144146401D01*
X123088426Y-143960840D01*
X123143001Y-143917217D01*
X123212499Y-143910023D01*
X123274854Y-143941546D01*
X123291574Y-143960841D01*
X123421505Y-144146401D01*
X123588599Y-144313495D01*
X123685384Y-144381264D01*
X123782165Y-144449032D01*
X123782167Y-144449033D01*
X123782170Y-144449035D01*
X123996337Y-144548903D01*
X123996343Y-144548904D01*
X123996344Y-144548905D01*
X124024779Y-144556524D01*
X124224592Y-144610063D01*
X124401034Y-144625500D01*
X124459999Y-144630659D01*
X124460000Y-144630659D01*
X124460001Y-144630659D01*
X124518966Y-144625500D01*
X124695408Y-144610063D01*
X124923663Y-144548903D01*
X125137830Y-144449035D01*
X125331401Y-144313495D01*
X125498495Y-144146401D01*
X125628426Y-143960841D01*
X125683002Y-143917217D01*
X125752500Y-143910023D01*
X125814855Y-143941546D01*
X125831575Y-143960842D01*
X125961281Y-144146082D01*
X125961505Y-144146401D01*
X126128599Y-144313495D01*
X126225384Y-144381264D01*
X126322165Y-144449032D01*
X126322167Y-144449033D01*
X126322170Y-144449035D01*
X126536337Y-144548903D01*
X126536343Y-144548904D01*
X126536344Y-144548905D01*
X126564779Y-144556524D01*
X126764592Y-144610063D01*
X126941034Y-144625500D01*
X126999999Y-144630659D01*
X127000000Y-144630659D01*
X127000001Y-144630659D01*
X127058966Y-144625500D01*
X127235408Y-144610063D01*
X127463663Y-144548903D01*
X127677830Y-144449035D01*
X127871401Y-144313495D01*
X128038495Y-144146401D01*
X128168426Y-143960840D01*
X128223001Y-143917217D01*
X128292499Y-143910023D01*
X128354854Y-143941546D01*
X128371574Y-143960841D01*
X128501505Y-144146401D01*
X128668599Y-144313495D01*
X128765384Y-144381264D01*
X128862165Y-144449032D01*
X128862167Y-144449033D01*
X128862170Y-144449035D01*
X129076337Y-144548903D01*
X129076343Y-144548904D01*
X129076344Y-144548905D01*
X129104779Y-144556524D01*
X129304592Y-144610063D01*
X129481034Y-144625500D01*
X129539999Y-144630659D01*
X129540000Y-144630659D01*
X129540001Y-144630659D01*
X129598966Y-144625500D01*
X129775408Y-144610063D01*
X130003663Y-144548903D01*
X130217830Y-144449035D01*
X130411401Y-144313495D01*
X130578495Y-144146401D01*
X130708730Y-143960405D01*
X130763307Y-143916781D01*
X130832805Y-143909587D01*
X130895160Y-143941110D01*
X130911879Y-143960405D01*
X131041890Y-144146078D01*
X131208917Y-144313105D01*
X131402421Y-144448600D01*
X131616507Y-144548429D01*
X131616516Y-144548433D01*
X131830000Y-144605634D01*
X131830000Y-143887301D01*
X131849685Y-143820262D01*
X131902489Y-143774507D01*
X131971647Y-143764563D01*
X132044237Y-143775000D01*
X132044238Y-143775000D01*
X132115762Y-143775000D01*
X132115763Y-143775000D01*
X132188353Y-143764563D01*
X132257512Y-143774507D01*
X132310315Y-143820262D01*
X132330000Y-143887301D01*
X132330000Y-144605633D01*
X132543483Y-144548433D01*
X132543492Y-144548429D01*
X132757578Y-144448600D01*
X132951082Y-144313105D01*
X133118105Y-144146082D01*
X133253600Y-143952578D01*
X133353429Y-143738492D01*
X133353432Y-143738486D01*
X133410636Y-143525000D01*
X132693347Y-143525000D01*
X132626308Y-143505315D01*
X132580553Y-143452511D01*
X132570609Y-143383353D01*
X132574369Y-143366067D01*
X132580000Y-143346888D01*
X132580000Y-143203111D01*
X132574369Y-143183933D01*
X132574370Y-143114064D01*
X132612145Y-143055286D01*
X132675701Y-143026262D01*
X132693347Y-143025000D01*
X133410636Y-143025000D01*
X133410635Y-143024999D01*
X133353432Y-142811513D01*
X133353429Y-142811507D01*
X133253600Y-142597422D01*
X133253599Y-142597420D01*
X133118113Y-142403926D01*
X133118108Y-142403920D01*
X132951082Y-142236894D01*
X132764968Y-142106575D01*
X132721344Y-142051998D01*
X132714151Y-141982499D01*
X132745673Y-141920145D01*
X132764968Y-141903425D01*
X132951082Y-141773105D01*
X133118105Y-141606082D01*
X133253600Y-141412578D01*
X133353429Y-141198492D01*
X133353432Y-141198486D01*
X133410636Y-140985000D01*
X132693347Y-140985000D01*
X132626308Y-140965315D01*
X132580553Y-140912511D01*
X132570609Y-140843353D01*
X132574369Y-140826067D01*
X132580000Y-140806888D01*
X132580000Y-140663111D01*
X132574369Y-140643933D01*
X132574370Y-140574064D01*
X132612145Y-140515286D01*
X132675701Y-140486262D01*
X132693347Y-140485000D01*
X133410636Y-140485000D01*
X133410635Y-140484999D01*
X133353432Y-140271513D01*
X133353429Y-140271507D01*
X133253600Y-140057422D01*
X133253599Y-140057420D01*
X133118113Y-139863926D01*
X133118108Y-139863920D01*
X132951082Y-139696894D01*
X132757578Y-139561399D01*
X132543492Y-139461570D01*
X132543486Y-139461567D01*
X132330000Y-139404364D01*
X132330000Y-140122698D01*
X132310315Y-140189737D01*
X132257511Y-140235492D01*
X132188355Y-140245436D01*
X132115766Y-140235000D01*
X132115763Y-140235000D01*
X132044237Y-140235000D01*
X132044233Y-140235000D01*
X131971645Y-140245436D01*
X131902487Y-140235492D01*
X131849684Y-140189736D01*
X131830000Y-140122698D01*
X131829999Y-139404364D01*
X131616513Y-139461567D01*
X131616507Y-139461570D01*
X131402422Y-139561399D01*
X131402420Y-139561400D01*
X131208926Y-139696886D01*
X131208920Y-139696891D01*
X131041891Y-139863920D01*
X131041890Y-139863922D01*
X130911880Y-140049595D01*
X130857303Y-140093219D01*
X130787804Y-140100412D01*
X130725450Y-140068890D01*
X130708730Y-140049594D01*
X130578494Y-139863597D01*
X130411402Y-139696506D01*
X130411395Y-139696501D01*
X130217834Y-139560967D01*
X130217830Y-139560965D01*
X130176690Y-139541781D01*
X130003663Y-139461097D01*
X130003659Y-139461096D01*
X130003655Y-139461094D01*
X129775413Y-139399938D01*
X129775403Y-139399936D01*
X129540001Y-139379341D01*
X129539999Y-139379341D01*
X129304596Y-139399936D01*
X129304586Y-139399938D01*
X129076344Y-139461094D01*
X129076335Y-139461098D01*
X128862171Y-139560964D01*
X128862169Y-139560965D01*
X128668597Y-139696505D01*
X128501505Y-139863597D01*
X128371575Y-140049158D01*
X128316998Y-140092783D01*
X128247500Y-140099977D01*
X128185145Y-140068454D01*
X128168425Y-140049158D01*
X128038494Y-139863597D01*
X127871402Y-139696506D01*
X127871395Y-139696501D01*
X127677834Y-139560967D01*
X127677830Y-139560965D01*
X127636690Y-139541781D01*
X127463663Y-139461097D01*
X127463659Y-139461096D01*
X127463655Y-139461094D01*
X127235413Y-139399938D01*
X127235403Y-139399936D01*
X127054291Y-139384090D01*
X126989222Y-139358637D01*
X126948244Y-139302046D01*
X126944366Y-139232284D01*
X126977416Y-139172883D01*
X132287913Y-133862386D01*
X132290605Y-133859852D01*
X132335332Y-133820229D01*
X132369269Y-133771059D01*
X132371472Y-133768066D01*
X132408326Y-133721028D01*
X132412172Y-133712480D01*
X132423197Y-133692935D01*
X132428517Y-133685227D01*
X132428516Y-133685227D01*
X132428518Y-133685226D01*
X132449705Y-133629358D01*
X132451132Y-133625916D01*
X132475647Y-133571446D01*
X132475647Y-133571445D01*
X132475650Y-133571439D01*
X132477338Y-133562221D01*
X132483366Y-133540603D01*
X132486688Y-133531845D01*
X132493889Y-133472540D01*
X132494453Y-133468836D01*
X132499426Y-133441694D01*
X132505219Y-133410085D01*
X132501613Y-133350466D01*
X132501500Y-133346722D01*
X132501500Y-131326500D01*
X132521185Y-131259461D01*
X132573989Y-131213706D01*
X132625500Y-131202500D01*
X132682644Y-131202500D01*
X132682646Y-131202500D01*
X132867803Y-131163144D01*
X133040730Y-131086151D01*
X133193871Y-130974888D01*
X133320533Y-130834216D01*
X133415179Y-130670284D01*
X133473674Y-130490256D01*
X133493460Y-130302000D01*
X133480118Y-130175061D01*
X133492687Y-130106334D01*
X133540419Y-130055310D01*
X133608160Y-130038192D01*
X133674401Y-130060414D01*
X133691120Y-130074421D01*
X135108095Y-131491396D01*
X135141580Y-131552719D01*
X135136596Y-131622411D01*
X135094724Y-131678344D01*
X135070851Y-131692356D01*
X135016612Y-131716505D01*
X135016610Y-131716506D01*
X134863474Y-131827766D01*
X134736811Y-131968440D01*
X134642166Y-132132370D01*
X134642163Y-132132377D01*
X134583849Y-132311851D01*
X134583671Y-132312399D01*
X134563885Y-132500655D01*
X134583671Y-132688911D01*
X134583672Y-132688914D01*
X134642163Y-132868932D01*
X134642166Y-132868939D01*
X134736812Y-133032871D01*
X134741283Y-133037836D01*
X134811995Y-133116370D01*
X134842225Y-133179361D01*
X134843845Y-133199342D01*
X134843845Y-136021600D01*
X134842120Y-136037217D01*
X134842406Y-136037244D01*
X134841671Y-136045010D01*
X134843845Y-136114159D01*
X134843845Y-136143688D01*
X134843846Y-136143705D01*
X134844713Y-136150576D01*
X134845171Y-136156395D01*
X134846635Y-136202969D01*
X134846636Y-136202972D01*
X134852225Y-136222212D01*
X134856169Y-136241256D01*
X134858681Y-136261137D01*
X134872057Y-136294922D01*
X134875835Y-136304464D01*
X134877727Y-136309992D01*
X134890726Y-136354733D01*
X134900925Y-136371979D01*
X134909481Y-136389445D01*
X134916859Y-136408077D01*
X134941664Y-136442219D01*
X134944243Y-136445768D01*
X134947451Y-136450652D01*
X134971172Y-136490761D01*
X134971178Y-136490769D01*
X134985335Y-136504925D01*
X134997973Y-136519721D01*
X135009750Y-136535931D01*
X135009751Y-136535932D01*
X135045654Y-136565633D01*
X135049965Y-136569555D01*
X137062732Y-138582322D01*
X139072194Y-140591784D01*
X139082019Y-140604048D01*
X139082240Y-140603866D01*
X139087210Y-140609873D01*
X139087213Y-140609876D01*
X139087214Y-140609877D01*
X139137651Y-140657241D01*
X139158530Y-140678120D01*
X139164004Y-140682366D01*
X139168442Y-140686156D01*
X139202418Y-140718062D01*
X139202422Y-140718064D01*
X139219973Y-140727713D01*
X139236231Y-140738392D01*
X139252064Y-140750674D01*
X139274015Y-140760172D01*
X139294837Y-140769183D01*
X139300081Y-140771752D01*
X139340908Y-140794197D01*
X139360312Y-140799179D01*
X139378710Y-140805478D01*
X139397105Y-140813438D01*
X139443129Y-140820726D01*
X139448832Y-140821907D01*
X139493981Y-140833500D01*
X139514016Y-140833500D01*
X139533413Y-140835026D01*
X139553196Y-140838160D01*
X139599583Y-140833775D01*
X139605422Y-140833500D01*
X143949252Y-140833500D01*
X144016291Y-140853185D01*
X144041400Y-140874526D01*
X144047126Y-140880885D01*
X144047130Y-140880889D01*
X144200265Y-140992148D01*
X144200270Y-140992151D01*
X144373192Y-141069142D01*
X144373197Y-141069144D01*
X144558354Y-141108500D01*
X144558355Y-141108500D01*
X144747644Y-141108500D01*
X144747646Y-141108500D01*
X144932803Y-141069144D01*
X145105730Y-140992151D01*
X145258871Y-140880888D01*
X145385533Y-140740216D01*
X145480179Y-140576284D01*
X145538674Y-140396256D01*
X145558460Y-140208000D01*
X145538674Y-140019744D01*
X145480179Y-139839716D01*
X145385533Y-139675784D01*
X145258871Y-139535112D01*
X145258870Y-139535111D01*
X145105734Y-139423851D01*
X145105729Y-139423848D01*
X144932807Y-139346857D01*
X144932802Y-139346855D01*
X144787000Y-139315865D01*
X144747646Y-139307500D01*
X144558354Y-139307500D01*
X144525897Y-139314398D01*
X144373197Y-139346855D01*
X144373192Y-139346857D01*
X144200270Y-139423848D01*
X144200265Y-139423851D01*
X144047130Y-139535110D01*
X144047126Y-139535114D01*
X144041400Y-139541474D01*
X143981913Y-139578121D01*
X143949252Y-139582500D01*
X143769209Y-139582500D01*
X143702170Y-139562815D01*
X143656415Y-139510011D01*
X143645888Y-139445540D01*
X143653460Y-139373500D01*
X143633674Y-139185244D01*
X143575179Y-139005216D01*
X143480533Y-138841284D01*
X143353871Y-138700612D01*
X143353870Y-138700611D01*
X143200734Y-138589351D01*
X143200729Y-138589348D01*
X143027807Y-138512357D01*
X143027802Y-138512355D01*
X142869298Y-138478665D01*
X142842646Y-138473000D01*
X142653354Y-138473000D01*
X142626702Y-138478665D01*
X142468197Y-138512355D01*
X142468192Y-138512357D01*
X142295270Y-138589348D01*
X142295265Y-138589351D01*
X142225624Y-138639949D01*
X142159818Y-138663429D01*
X142091764Y-138647603D01*
X142065058Y-138627312D01*
X140072582Y-136634836D01*
X140039097Y-136573513D01*
X140044081Y-136503821D01*
X140085953Y-136447888D01*
X140151417Y-136423471D01*
X140175208Y-136424059D01*
X140204433Y-136427607D01*
X140231471Y-136430890D01*
X140235158Y-136431451D01*
X140293915Y-136442219D01*
X140293916Y-136442218D01*
X140293917Y-136442219D01*
X140353534Y-136438613D01*
X140357278Y-136438500D01*
X154227837Y-136438500D01*
X154294876Y-136458185D01*
X154315518Y-136474819D01*
X156768181Y-138927482D01*
X156801666Y-138988805D01*
X156804500Y-139015163D01*
X156804500Y-139494783D01*
X156784815Y-139561822D01*
X156751624Y-139596358D01*
X156608594Y-139696508D01*
X156441508Y-139863594D01*
X156311269Y-140049595D01*
X156256692Y-140093219D01*
X156187193Y-140100412D01*
X156124839Y-140068890D01*
X156108119Y-140049594D01*
X155978113Y-139863926D01*
X155978108Y-139863920D01*
X155811082Y-139696894D01*
X155617578Y-139561399D01*
X155403492Y-139461570D01*
X155403486Y-139461567D01*
X155190000Y-139404364D01*
X155190000Y-140122698D01*
X155170315Y-140189737D01*
X155117511Y-140235492D01*
X155048355Y-140245436D01*
X154975766Y-140235000D01*
X154975763Y-140235000D01*
X154904237Y-140235000D01*
X154904233Y-140235000D01*
X154831645Y-140245436D01*
X154762487Y-140235492D01*
X154709684Y-140189736D01*
X154690000Y-140122698D01*
X154690000Y-139404364D01*
X154689999Y-139404364D01*
X154476513Y-139461567D01*
X154476507Y-139461570D01*
X154262422Y-139561399D01*
X154262420Y-139561400D01*
X154068926Y-139696886D01*
X154068920Y-139696891D01*
X153901891Y-139863920D01*
X153901890Y-139863922D01*
X153771880Y-140049595D01*
X153717303Y-140093219D01*
X153647804Y-140100412D01*
X153585450Y-140068890D01*
X153568730Y-140049594D01*
X153438494Y-139863597D01*
X153271402Y-139696506D01*
X153271395Y-139696501D01*
X153077834Y-139560967D01*
X153077830Y-139560965D01*
X153036690Y-139541781D01*
X152863663Y-139461097D01*
X152863659Y-139461096D01*
X152863655Y-139461094D01*
X152635413Y-139399938D01*
X152635403Y-139399936D01*
X152400001Y-139379341D01*
X152399999Y-139379341D01*
X152164596Y-139399936D01*
X152164586Y-139399938D01*
X151936344Y-139461094D01*
X151936335Y-139461098D01*
X151722171Y-139560964D01*
X151722169Y-139560965D01*
X151528597Y-139696505D01*
X151361505Y-139863597D01*
X151231575Y-140049158D01*
X151176998Y-140092783D01*
X151107500Y-140099977D01*
X151045145Y-140068454D01*
X151028425Y-140049158D01*
X150898494Y-139863597D01*
X150731402Y-139696506D01*
X150731395Y-139696501D01*
X150537834Y-139560967D01*
X150537830Y-139560965D01*
X150496690Y-139541781D01*
X150323663Y-139461097D01*
X150323659Y-139461096D01*
X150323655Y-139461094D01*
X150095413Y-139399938D01*
X150095403Y-139399936D01*
X149860001Y-139379341D01*
X149859999Y-139379341D01*
X149624596Y-139399936D01*
X149624586Y-139399938D01*
X149396344Y-139461094D01*
X149396335Y-139461098D01*
X149182171Y-139560964D01*
X149182169Y-139560965D01*
X148988597Y-139696505D01*
X148821505Y-139863597D01*
X148685965Y-140057169D01*
X148685964Y-140057171D01*
X148586098Y-140271335D01*
X148586094Y-140271344D01*
X148524938Y-140499586D01*
X148524936Y-140499596D01*
X148504341Y-140734999D01*
X148504341Y-140735000D01*
X148524936Y-140970403D01*
X148524938Y-140970413D01*
X148586094Y-141198655D01*
X148586096Y-141198659D01*
X148586097Y-141198663D01*
X148665801Y-141369588D01*
X148685965Y-141412830D01*
X148685967Y-141412834D01*
X148751899Y-141506994D01*
X148821504Y-141606400D01*
X148821506Y-141606402D01*
X148943430Y-141728326D01*
X148976915Y-141789649D01*
X148971931Y-141859341D01*
X148930059Y-141915274D01*
X148899083Y-141932189D01*
X148767669Y-141981203D01*
X148767664Y-141981206D01*
X148652455Y-142067452D01*
X148652452Y-142067455D01*
X148566206Y-142182664D01*
X148566202Y-142182671D01*
X148515908Y-142317517D01*
X148509501Y-142377116D01*
X148509500Y-142377135D01*
X148509500Y-144172870D01*
X148509501Y-144172876D01*
X148515908Y-144232483D01*
X148566202Y-144367328D01*
X148566206Y-144367335D01*
X148652452Y-144482544D01*
X148652455Y-144482547D01*
X148767664Y-144568793D01*
X148767671Y-144568797D01*
X148902517Y-144619091D01*
X148902516Y-144619091D01*
X148909444Y-144619835D01*
X148962127Y-144625500D01*
X150757872Y-144625499D01*
X150817483Y-144619091D01*
X150952331Y-144568796D01*
X151067546Y-144482546D01*
X151153796Y-144367331D01*
X151202810Y-144235916D01*
X151244681Y-144179984D01*
X151310145Y-144155566D01*
X151378418Y-144170417D01*
X151406673Y-144191569D01*
X151528599Y-144313495D01*
X151625384Y-144381264D01*
X151722165Y-144449032D01*
X151722167Y-144449033D01*
X151722170Y-144449035D01*
X151936337Y-144548903D01*
X151936343Y-144548904D01*
X151936344Y-144548905D01*
X151964779Y-144556524D01*
X152164592Y-144610063D01*
X152341034Y-144625500D01*
X152399999Y-144630659D01*
X152400000Y-144630659D01*
X152400001Y-144630659D01*
X152458966Y-144625500D01*
X152635408Y-144610063D01*
X152863663Y-144548903D01*
X153077830Y-144449035D01*
X153271401Y-144313495D01*
X153438495Y-144146401D01*
X153568730Y-143960405D01*
X153623307Y-143916781D01*
X153692805Y-143909587D01*
X153755160Y-143941110D01*
X153771879Y-143960405D01*
X153901890Y-144146078D01*
X154068917Y-144313105D01*
X154262421Y-144448600D01*
X154476507Y-144548429D01*
X154476516Y-144548433D01*
X154690000Y-144605634D01*
X154690000Y-143887301D01*
X154709685Y-143820262D01*
X154762489Y-143774507D01*
X154831647Y-143764563D01*
X154904237Y-143775000D01*
X154904238Y-143775000D01*
X154975762Y-143775000D01*
X154975763Y-143775000D01*
X155048353Y-143764563D01*
X155117512Y-143774507D01*
X155170315Y-143820262D01*
X155190000Y-143887301D01*
X155190000Y-144605633D01*
X155403483Y-144548433D01*
X155403492Y-144548429D01*
X155617578Y-144448600D01*
X155811082Y-144313105D01*
X155978105Y-144146082D01*
X156108119Y-143960405D01*
X156162696Y-143916781D01*
X156232195Y-143909588D01*
X156294549Y-143941110D01*
X156311269Y-143960405D01*
X156441505Y-144146401D01*
X156608599Y-144313495D01*
X156705384Y-144381264D01*
X156802165Y-144449032D01*
X156802167Y-144449033D01*
X156802170Y-144449035D01*
X157016337Y-144548903D01*
X157016343Y-144548904D01*
X157016344Y-144548905D01*
X157044779Y-144556524D01*
X157244592Y-144610063D01*
X157421034Y-144625500D01*
X157479999Y-144630659D01*
X157480000Y-144630659D01*
X157480001Y-144630659D01*
X157538966Y-144625500D01*
X157715408Y-144610063D01*
X157943663Y-144548903D01*
X158157830Y-144449035D01*
X158351401Y-144313495D01*
X158518495Y-144146401D01*
X158648426Y-143960841D01*
X158703002Y-143917217D01*
X158772500Y-143910023D01*
X158834855Y-143941546D01*
X158851575Y-143960842D01*
X158981281Y-144146082D01*
X158981505Y-144146401D01*
X159148599Y-144313495D01*
X159245384Y-144381264D01*
X159342165Y-144449032D01*
X159342167Y-144449033D01*
X159342170Y-144449035D01*
X159556337Y-144548903D01*
X159556343Y-144548904D01*
X159556344Y-144548905D01*
X159584779Y-144556524D01*
X159784592Y-144610063D01*
X159961034Y-144625500D01*
X160019999Y-144630659D01*
X160020000Y-144630659D01*
X160020001Y-144630659D01*
X160078966Y-144625500D01*
X160255408Y-144610063D01*
X160483663Y-144548903D01*
X160697830Y-144449035D01*
X160891401Y-144313495D01*
X161058495Y-144146401D01*
X161188426Y-143960841D01*
X161243002Y-143917217D01*
X161312500Y-143910023D01*
X161374855Y-143941546D01*
X161391575Y-143960842D01*
X161521281Y-144146082D01*
X161521505Y-144146401D01*
X161688599Y-144313495D01*
X161785384Y-144381264D01*
X161882165Y-144449032D01*
X161882167Y-144449033D01*
X161882170Y-144449035D01*
X162096337Y-144548903D01*
X162096343Y-144548904D01*
X162096344Y-144548905D01*
X162124779Y-144556524D01*
X162324592Y-144610063D01*
X162501034Y-144625500D01*
X162559999Y-144630659D01*
X162560000Y-144630659D01*
X162560001Y-144630659D01*
X162618966Y-144625500D01*
X162795408Y-144610063D01*
X163023663Y-144548903D01*
X163237830Y-144449035D01*
X163431401Y-144313495D01*
X163598495Y-144146401D01*
X163728426Y-143960841D01*
X163783002Y-143917217D01*
X163852500Y-143910023D01*
X163914855Y-143941546D01*
X163931575Y-143960842D01*
X164061281Y-144146082D01*
X164061505Y-144146401D01*
X164228599Y-144313495D01*
X164325384Y-144381264D01*
X164422165Y-144449032D01*
X164422167Y-144449033D01*
X164422170Y-144449035D01*
X164636337Y-144548903D01*
X164636343Y-144548904D01*
X164636344Y-144548905D01*
X164664779Y-144556524D01*
X164864592Y-144610063D01*
X165041034Y-144625500D01*
X165099999Y-144630659D01*
X165100000Y-144630659D01*
X165100001Y-144630659D01*
X165158966Y-144625500D01*
X165335408Y-144610063D01*
X165563663Y-144548903D01*
X165777830Y-144449035D01*
X165971401Y-144313495D01*
X166138495Y-144146401D01*
X166268426Y-143960841D01*
X166323002Y-143917217D01*
X166392500Y-143910023D01*
X166454855Y-143941546D01*
X166471575Y-143960842D01*
X166601281Y-144146082D01*
X166601505Y-144146401D01*
X166768599Y-144313495D01*
X166865384Y-144381264D01*
X166962165Y-144449032D01*
X166962167Y-144449033D01*
X166962170Y-144449035D01*
X167176337Y-144548903D01*
X167176343Y-144548904D01*
X167176344Y-144548905D01*
X167204779Y-144556524D01*
X167404592Y-144610063D01*
X167581034Y-144625500D01*
X167639999Y-144630659D01*
X167640000Y-144630659D01*
X167640001Y-144630659D01*
X167698966Y-144625500D01*
X167875408Y-144610063D01*
X168103663Y-144548903D01*
X168317830Y-144449035D01*
X168511401Y-144313495D01*
X168678495Y-144146401D01*
X168808730Y-143960405D01*
X168863307Y-143916781D01*
X168932805Y-143909587D01*
X168995160Y-143941110D01*
X169011879Y-143960405D01*
X169141890Y-144146078D01*
X169308917Y-144313105D01*
X169502421Y-144448600D01*
X169716507Y-144548429D01*
X169716516Y-144548433D01*
X169930000Y-144605634D01*
X169930000Y-143887301D01*
X169949685Y-143820262D01*
X170002489Y-143774507D01*
X170071647Y-143764563D01*
X170144237Y-143775000D01*
X170144238Y-143775000D01*
X170215762Y-143775000D01*
X170215763Y-143775000D01*
X170288353Y-143764563D01*
X170357512Y-143774507D01*
X170410315Y-143820262D01*
X170430000Y-143887301D01*
X170430000Y-144605633D01*
X170643483Y-144548433D01*
X170643492Y-144548429D01*
X170857578Y-144448600D01*
X171051082Y-144313105D01*
X171218105Y-144146082D01*
X171348425Y-143959968D01*
X171403002Y-143916344D01*
X171472501Y-143909151D01*
X171534855Y-143940673D01*
X171551575Y-143959968D01*
X171681894Y-144146082D01*
X171848917Y-144313105D01*
X172042421Y-144448600D01*
X172256507Y-144548429D01*
X172256516Y-144548433D01*
X172470000Y-144605634D01*
X172470000Y-143887301D01*
X172489685Y-143820262D01*
X172542489Y-143774507D01*
X172611647Y-143764563D01*
X172684237Y-143775000D01*
X172684238Y-143775000D01*
X172755762Y-143775000D01*
X172755763Y-143775000D01*
X172828353Y-143764563D01*
X172897512Y-143774507D01*
X172950315Y-143820262D01*
X172970000Y-143887301D01*
X172970000Y-144605633D01*
X173183483Y-144548433D01*
X173183492Y-144548429D01*
X173397578Y-144448600D01*
X173591082Y-144313105D01*
X173758105Y-144146082D01*
X173893600Y-143952578D01*
X173993429Y-143738492D01*
X173993432Y-143738486D01*
X174050636Y-143525000D01*
X173333347Y-143525000D01*
X173266308Y-143505315D01*
X173220553Y-143452511D01*
X173210609Y-143383353D01*
X173214369Y-143366067D01*
X173220000Y-143346888D01*
X173220000Y-143203111D01*
X173214369Y-143183933D01*
X173214370Y-143114064D01*
X173252145Y-143055286D01*
X173315701Y-143026262D01*
X173333347Y-143025000D01*
X174050636Y-143025000D01*
X174050635Y-143024999D01*
X173993432Y-142811513D01*
X173993429Y-142811507D01*
X173893600Y-142597422D01*
X173893599Y-142597420D01*
X173758113Y-142403926D01*
X173758108Y-142403920D01*
X173591082Y-142236894D01*
X173404968Y-142106575D01*
X173361344Y-142051998D01*
X173354151Y-141982499D01*
X173385673Y-141920145D01*
X173404968Y-141903425D01*
X173591082Y-141773105D01*
X173758105Y-141606082D01*
X173893600Y-141412578D01*
X173993429Y-141198492D01*
X173993432Y-141198486D01*
X174050636Y-140985000D01*
X173333347Y-140985000D01*
X173266308Y-140965315D01*
X173220553Y-140912511D01*
X173210609Y-140843353D01*
X173214369Y-140826067D01*
X173220000Y-140806888D01*
X173220000Y-140663111D01*
X173214369Y-140643933D01*
X173214370Y-140574064D01*
X173252145Y-140515286D01*
X173315701Y-140486262D01*
X173333347Y-140485000D01*
X174050636Y-140485000D01*
X174050635Y-140484999D01*
X173993432Y-140271513D01*
X173993429Y-140271507D01*
X173893600Y-140057422D01*
X173893599Y-140057420D01*
X173853393Y-140000000D01*
X176294922Y-140000000D01*
X176315219Y-140387287D01*
X176375886Y-140770323D01*
X176375887Y-140770330D01*
X176476262Y-141144936D01*
X176615244Y-141506994D01*
X176791310Y-141852543D01*
X177002531Y-142177793D01*
X177211095Y-142435350D01*
X177211096Y-142435350D01*
X177874250Y-141772195D01*
X177935573Y-141738710D01*
X178005264Y-141743694D01*
X178061198Y-141785565D01*
X178065033Y-141790985D01*
X178122704Y-141877296D01*
X178209012Y-141934965D01*
X178253818Y-141988577D01*
X178262525Y-142057902D01*
X178232371Y-142120929D01*
X178227803Y-142125748D01*
X177564648Y-142788902D01*
X177564649Y-142788904D01*
X177822206Y-142997468D01*
X178147456Y-143208689D01*
X178493005Y-143384755D01*
X178855063Y-143523737D01*
X179229669Y-143624112D01*
X179229676Y-143624113D01*
X179612712Y-143684780D01*
X179999999Y-143705078D01*
X180000001Y-143705078D01*
X180387287Y-143684780D01*
X180770323Y-143624113D01*
X180770330Y-143624112D01*
X181144936Y-143523737D01*
X181506994Y-143384755D01*
X181852543Y-143208689D01*
X182177783Y-142997476D01*
X182177785Y-142997475D01*
X182435349Y-142788902D01*
X181772196Y-142125749D01*
X181738711Y-142064426D01*
X181743695Y-141994734D01*
X181785567Y-141938801D01*
X181790986Y-141934966D01*
X181794599Y-141932551D01*
X181794601Y-141932551D01*
X181877296Y-141877296D01*
X181932551Y-141794601D01*
X181932551Y-141794599D01*
X181934966Y-141790986D01*
X181988578Y-141746181D01*
X182057903Y-141737474D01*
X182120930Y-141767628D01*
X182125749Y-141772196D01*
X182788902Y-142435349D01*
X182997475Y-142177785D01*
X182997476Y-142177783D01*
X183208689Y-141852543D01*
X183384755Y-141506994D01*
X183523737Y-141144936D01*
X183624112Y-140770330D01*
X183624113Y-140770323D01*
X183684780Y-140387287D01*
X183705078Y-140000000D01*
X183705078Y-139999999D01*
X183684780Y-139612712D01*
X183624113Y-139229676D01*
X183624112Y-139229669D01*
X183523737Y-138855063D01*
X183384755Y-138493005D01*
X183208689Y-138147456D01*
X182997468Y-137822206D01*
X182788904Y-137564649D01*
X182788902Y-137564648D01*
X182125748Y-138227803D01*
X182064425Y-138261288D01*
X181994733Y-138256304D01*
X181938800Y-138214432D01*
X181934965Y-138209012D01*
X181877296Y-138122704D01*
X181790985Y-138065033D01*
X181746180Y-138011421D01*
X181737473Y-137942096D01*
X181767627Y-137879068D01*
X181772195Y-137874250D01*
X182435350Y-137211096D01*
X182435350Y-137211095D01*
X182177793Y-137002531D01*
X181852543Y-136791310D01*
X181506994Y-136615244D01*
X181144936Y-136476262D01*
X180770330Y-136375887D01*
X180770323Y-136375886D01*
X180387287Y-136315219D01*
X180000001Y-136294922D01*
X179999999Y-136294922D01*
X179612712Y-136315219D01*
X179229676Y-136375886D01*
X179229669Y-136375887D01*
X178855063Y-136476262D01*
X178493005Y-136615244D01*
X178147456Y-136791310D01*
X177822206Y-137002531D01*
X177564648Y-137211095D01*
X177564648Y-137211096D01*
X178227803Y-137874251D01*
X178261288Y-137935574D01*
X178256304Y-138005266D01*
X178214432Y-138061199D01*
X178209013Y-138065034D01*
X178122704Y-138122704D01*
X178065034Y-138209013D01*
X178011422Y-138253818D01*
X177942097Y-138262525D01*
X177879069Y-138232370D01*
X177874251Y-138227803D01*
X177211096Y-137564648D01*
X177211095Y-137564648D01*
X177002531Y-137822206D01*
X176791310Y-138147456D01*
X176615244Y-138493005D01*
X176476262Y-138855063D01*
X176375887Y-139229669D01*
X176375886Y-139229676D01*
X176315219Y-139612712D01*
X176294922Y-139999999D01*
X176294922Y-140000000D01*
X173853393Y-140000000D01*
X173758113Y-139863926D01*
X173758108Y-139863920D01*
X173591082Y-139696894D01*
X173397578Y-139561399D01*
X173183492Y-139461570D01*
X173183486Y-139461567D01*
X172970000Y-139404364D01*
X172970000Y-140122698D01*
X172950315Y-140189737D01*
X172897511Y-140235492D01*
X172828355Y-140245436D01*
X172755766Y-140235000D01*
X172755763Y-140235000D01*
X172684237Y-140235000D01*
X172684233Y-140235000D01*
X172611645Y-140245436D01*
X172542487Y-140235492D01*
X172489684Y-140189736D01*
X172470000Y-140122698D01*
X172470000Y-139404364D01*
X172469999Y-139404364D01*
X172256513Y-139461567D01*
X172256507Y-139461570D01*
X172042422Y-139561399D01*
X172042420Y-139561400D01*
X171848926Y-139696886D01*
X171848920Y-139696891D01*
X171681891Y-139863920D01*
X171681890Y-139863922D01*
X171551574Y-140050031D01*
X171496996Y-140093656D01*
X171427498Y-140100848D01*
X171365143Y-140069326D01*
X171348424Y-140050030D01*
X171218113Y-139863926D01*
X171218108Y-139863920D01*
X171051082Y-139696894D01*
X170857578Y-139561399D01*
X170643492Y-139461570D01*
X170643486Y-139461567D01*
X170430000Y-139404364D01*
X170430000Y-140122698D01*
X170410315Y-140189737D01*
X170357511Y-140235492D01*
X170288355Y-140245436D01*
X170215766Y-140235000D01*
X170215763Y-140235000D01*
X170144237Y-140235000D01*
X170144233Y-140235000D01*
X170071645Y-140245436D01*
X170002487Y-140235492D01*
X169949684Y-140189736D01*
X169930000Y-140122698D01*
X169930000Y-139404364D01*
X169929999Y-139404364D01*
X169716513Y-139461567D01*
X169716507Y-139461570D01*
X169502422Y-139561399D01*
X169502420Y-139561400D01*
X169308926Y-139696886D01*
X169308920Y-139696891D01*
X169141891Y-139863920D01*
X169141890Y-139863922D01*
X169011880Y-140049595D01*
X168957303Y-140093219D01*
X168887804Y-140100412D01*
X168825450Y-140068890D01*
X168808730Y-140049594D01*
X168678494Y-139863597D01*
X168511402Y-139696506D01*
X168511395Y-139696501D01*
X168317834Y-139560967D01*
X168317830Y-139560965D01*
X168276690Y-139541781D01*
X168103663Y-139461097D01*
X168103659Y-139461096D01*
X168103655Y-139461094D01*
X167875413Y-139399938D01*
X167875403Y-139399936D01*
X167640001Y-139379341D01*
X167639999Y-139379341D01*
X167404596Y-139399936D01*
X167404586Y-139399938D01*
X167176344Y-139461094D01*
X167176335Y-139461098D01*
X166962171Y-139560964D01*
X166962169Y-139560965D01*
X166768597Y-139696505D01*
X166601505Y-139863597D01*
X166471575Y-140049158D01*
X166416998Y-140092783D01*
X166347500Y-140099977D01*
X166285145Y-140068454D01*
X166268425Y-140049158D01*
X166138494Y-139863597D01*
X165971402Y-139696506D01*
X165971395Y-139696501D01*
X165777834Y-139560967D01*
X165777830Y-139560965D01*
X165736690Y-139541781D01*
X165563663Y-139461097D01*
X165563659Y-139461096D01*
X165563655Y-139461094D01*
X165335413Y-139399938D01*
X165335403Y-139399936D01*
X165100001Y-139379341D01*
X165099999Y-139379341D01*
X164864596Y-139399936D01*
X164864586Y-139399938D01*
X164636344Y-139461094D01*
X164636335Y-139461098D01*
X164422171Y-139560964D01*
X164422169Y-139560965D01*
X164228597Y-139696505D01*
X164061508Y-139863594D01*
X163931574Y-140049160D01*
X163876997Y-140092784D01*
X163807498Y-140099977D01*
X163745144Y-140068455D01*
X163728429Y-140049164D01*
X163598495Y-139863599D01*
X163598493Y-139863596D01*
X163431402Y-139696506D01*
X163431401Y-139696505D01*
X163379375Y-139660076D01*
X163288375Y-139596357D01*
X163244752Y-139541781D01*
X163235500Y-139494783D01*
X163235500Y-138176000D01*
X164194540Y-138176000D01*
X164214326Y-138364256D01*
X164214327Y-138364259D01*
X164272818Y-138544277D01*
X164272821Y-138544284D01*
X164367467Y-138708216D01*
X164487282Y-138841284D01*
X164494129Y-138848888D01*
X164647265Y-138960148D01*
X164647270Y-138960151D01*
X164820192Y-139037142D01*
X164820197Y-139037144D01*
X165005354Y-139076500D01*
X165005355Y-139076500D01*
X165194644Y-139076500D01*
X165194646Y-139076500D01*
X165379803Y-139037144D01*
X165552730Y-138960151D01*
X165705871Y-138848888D01*
X165832533Y-138708216D01*
X165927179Y-138544284D01*
X165985674Y-138364256D01*
X166005460Y-138176000D01*
X165985674Y-137987744D01*
X165927179Y-137807716D01*
X165832533Y-137643784D01*
X165705871Y-137503112D01*
X165704967Y-137502455D01*
X165552734Y-137391851D01*
X165552729Y-137391848D01*
X165379807Y-137314857D01*
X165379802Y-137314855D01*
X165234001Y-137283865D01*
X165194646Y-137275500D01*
X165005354Y-137275500D01*
X164972897Y-137282398D01*
X164820197Y-137314855D01*
X164820192Y-137314857D01*
X164647270Y-137391848D01*
X164647265Y-137391851D01*
X164494129Y-137503111D01*
X164367466Y-137643785D01*
X164272821Y-137807715D01*
X164272818Y-137807722D01*
X164231277Y-137935574D01*
X164214326Y-137987744D01*
X164194540Y-138176000D01*
X163235500Y-138176000D01*
X163235500Y-137873334D01*
X163235500Y-136221159D01*
X163255184Y-136154124D01*
X163271813Y-136133487D01*
X165561922Y-133843378D01*
X165564614Y-133840844D01*
X165609332Y-133801229D01*
X165643276Y-133752049D01*
X165645478Y-133749057D01*
X165682325Y-133702028D01*
X165686169Y-133693485D01*
X165697197Y-133673932D01*
X165702518Y-133666226D01*
X165723712Y-133610340D01*
X165725126Y-133606926D01*
X165749650Y-133552439D01*
X165751338Y-133543221D01*
X165757366Y-133521603D01*
X165760688Y-133512845D01*
X165767440Y-133457236D01*
X165767889Y-133453540D01*
X165768453Y-133449836D01*
X165775737Y-133410085D01*
X165779219Y-133391085D01*
X165775613Y-133331471D01*
X165775500Y-133327726D01*
X165775500Y-132250005D01*
X169244859Y-132250005D01*
X169265385Y-132497729D01*
X169265387Y-132497738D01*
X169326412Y-132738717D01*
X169426266Y-132966364D01*
X169526564Y-133119882D01*
X170101482Y-132544964D01*
X170162805Y-132511479D01*
X170232496Y-132516463D01*
X170288430Y-132558334D01*
X170291514Y-132563249D01*
X170291549Y-132563225D01*
X170296441Y-132570156D01*
X170399637Y-132680651D01*
X170399638Y-132680652D01*
X170434698Y-132701973D01*
X170481749Y-132753623D01*
X170493407Y-132822513D01*
X170465970Y-132886770D01*
X170457950Y-132895601D01*
X169879942Y-133473609D01*
X169926768Y-133510055D01*
X169926770Y-133510056D01*
X170145385Y-133628364D01*
X170145396Y-133628369D01*
X170380506Y-133709083D01*
X170625707Y-133750000D01*
X170874293Y-133750000D01*
X171119493Y-133709083D01*
X171354603Y-133628369D01*
X171354614Y-133628364D01*
X171573228Y-133510057D01*
X171573231Y-133510055D01*
X171620056Y-133473609D01*
X171043165Y-132896718D01*
X171009680Y-132835395D01*
X171014664Y-132765703D01*
X171052588Y-132712853D01*
X171155739Y-132628934D01*
X171206052Y-132557655D01*
X171260793Y-132514239D01*
X171330318Y-132507310D01*
X171392553Y-132539068D01*
X171395037Y-132541484D01*
X171973434Y-133119882D01*
X172073731Y-132966369D01*
X172173587Y-132738717D01*
X172234612Y-132497738D01*
X172234614Y-132497729D01*
X172255141Y-132250005D01*
X175744859Y-132250005D01*
X175765385Y-132497729D01*
X175765387Y-132497738D01*
X175826412Y-132738717D01*
X175926266Y-132966364D01*
X176026564Y-133119882D01*
X176601482Y-132544964D01*
X176662805Y-132511479D01*
X176732496Y-132516463D01*
X176788430Y-132558334D01*
X176791514Y-132563249D01*
X176791549Y-132563225D01*
X176796441Y-132570156D01*
X176899637Y-132680651D01*
X176899638Y-132680652D01*
X176934698Y-132701973D01*
X176981749Y-132753623D01*
X176993407Y-132822513D01*
X176965970Y-132886770D01*
X176957950Y-132895601D01*
X176379942Y-133473609D01*
X176426768Y-133510055D01*
X176426770Y-133510056D01*
X176645385Y-133628364D01*
X176645396Y-133628369D01*
X176880506Y-133709083D01*
X177125707Y-133750000D01*
X177374293Y-133750000D01*
X177619493Y-133709083D01*
X177854603Y-133628369D01*
X177854614Y-133628364D01*
X178073228Y-133510057D01*
X178073231Y-133510055D01*
X178120056Y-133473609D01*
X177543165Y-132896718D01*
X177509680Y-132835395D01*
X177514664Y-132765703D01*
X177552588Y-132712853D01*
X177655739Y-132628934D01*
X177706052Y-132557655D01*
X177760793Y-132514239D01*
X177830318Y-132507310D01*
X177892553Y-132539068D01*
X177895037Y-132541484D01*
X178473434Y-133119882D01*
X178573731Y-132966369D01*
X178673587Y-132738717D01*
X178734612Y-132497738D01*
X178734614Y-132497729D01*
X178755141Y-132250005D01*
X178755141Y-132249994D01*
X178734614Y-132002270D01*
X178734612Y-132002261D01*
X178673587Y-131761282D01*
X178573731Y-131533630D01*
X178473434Y-131380116D01*
X177898517Y-131955034D01*
X177837194Y-131988519D01*
X177767502Y-131983535D01*
X177711569Y-131941663D01*
X177708486Y-131936750D01*
X177708451Y-131936775D01*
X177703558Y-131929843D01*
X177648661Y-131871064D01*
X177600362Y-131819348D01*
X177565300Y-131798026D01*
X177518248Y-131746374D01*
X177506591Y-131677484D01*
X177534029Y-131613227D01*
X177542048Y-131604397D01*
X178120056Y-131026389D01*
X178073229Y-130989943D01*
X177854614Y-130871635D01*
X177854603Y-130871630D01*
X177619493Y-130790916D01*
X177374293Y-130750000D01*
X177125707Y-130750000D01*
X176880506Y-130790916D01*
X176645396Y-130871630D01*
X176645390Y-130871632D01*
X176426761Y-130989949D01*
X176379942Y-131026388D01*
X176379942Y-131026390D01*
X176956833Y-131603280D01*
X176990318Y-131664603D01*
X176985334Y-131734294D01*
X176947408Y-131787148D01*
X176844262Y-131871064D01*
X176844258Y-131871069D01*
X176793947Y-131942343D01*
X176739204Y-131985760D01*
X176669679Y-131992689D01*
X176607444Y-131960930D01*
X176604962Y-131958515D01*
X176026564Y-131380116D01*
X175926267Y-131533632D01*
X175826412Y-131761282D01*
X175765387Y-132002261D01*
X175765385Y-132002270D01*
X175744859Y-132249994D01*
X175744859Y-132250005D01*
X172255141Y-132250005D01*
X172255141Y-132249994D01*
X172234614Y-132002270D01*
X172234612Y-132002261D01*
X172173587Y-131761282D01*
X172073731Y-131533630D01*
X171973434Y-131380116D01*
X171398517Y-131955034D01*
X171337194Y-131988519D01*
X171267502Y-131983535D01*
X171211569Y-131941663D01*
X171208486Y-131936750D01*
X171208451Y-131936775D01*
X171203558Y-131929843D01*
X171148661Y-131871064D01*
X171100362Y-131819348D01*
X171065300Y-131798026D01*
X171018248Y-131746374D01*
X171006591Y-131677484D01*
X171034029Y-131613227D01*
X171042048Y-131604397D01*
X171620056Y-131026389D01*
X171573229Y-130989943D01*
X171354614Y-130871635D01*
X171354603Y-130871630D01*
X171119493Y-130790916D01*
X170874293Y-130750000D01*
X170625707Y-130750000D01*
X170380506Y-130790916D01*
X170145396Y-130871630D01*
X170145390Y-130871632D01*
X169926761Y-130989949D01*
X169879942Y-131026388D01*
X169879942Y-131026390D01*
X170456833Y-131603280D01*
X170490318Y-131664603D01*
X170485334Y-131734294D01*
X170447408Y-131787148D01*
X170344262Y-131871064D01*
X170344258Y-131871069D01*
X170293947Y-131942343D01*
X170239204Y-131985760D01*
X170169679Y-131992689D01*
X170107444Y-131960930D01*
X170104962Y-131958515D01*
X169526564Y-131380116D01*
X169426267Y-131533632D01*
X169326412Y-131761282D01*
X169265387Y-132002261D01*
X169265385Y-132002270D01*
X169244859Y-132249994D01*
X169244859Y-132250005D01*
X165775500Y-132250005D01*
X165775500Y-130302000D01*
X167877540Y-130302000D01*
X167897326Y-130490256D01*
X167897327Y-130490259D01*
X167955818Y-130670277D01*
X167955821Y-130670284D01*
X168050467Y-130834216D01*
X168154001Y-130949202D01*
X168177129Y-130974888D01*
X168330265Y-131086148D01*
X168330270Y-131086151D01*
X168503192Y-131163142D01*
X168503197Y-131163144D01*
X168688354Y-131202500D01*
X168688355Y-131202500D01*
X168877644Y-131202500D01*
X168877646Y-131202500D01*
X169062803Y-131163144D01*
X169235730Y-131086151D01*
X169388871Y-130974888D01*
X169515533Y-130834216D01*
X169610179Y-130670284D01*
X169668674Y-130490256D01*
X169688460Y-130302000D01*
X169668674Y-130113744D01*
X169610179Y-129933716D01*
X169515533Y-129769784D01*
X169388871Y-129629112D01*
X169372864Y-129617482D01*
X169235734Y-129517851D01*
X169235729Y-129517848D01*
X169062807Y-129440857D01*
X169062802Y-129440855D01*
X168917001Y-129409865D01*
X168877646Y-129401500D01*
X168688354Y-129401500D01*
X168655897Y-129408398D01*
X168503197Y-129440855D01*
X168503192Y-129440857D01*
X168330270Y-129517848D01*
X168330265Y-129517851D01*
X168177129Y-129629111D01*
X168050466Y-129769785D01*
X167955821Y-129933715D01*
X167955818Y-129933722D01*
X167897327Y-130113740D01*
X167897326Y-130113744D01*
X167877540Y-130302000D01*
X165775500Y-130302000D01*
X165775500Y-127750005D01*
X169244357Y-127750005D01*
X169264890Y-127997812D01*
X169264892Y-127997824D01*
X169325936Y-128238881D01*
X169425826Y-128466606D01*
X169561833Y-128674782D01*
X169561836Y-128674785D01*
X169730256Y-128857738D01*
X169926491Y-129010474D01*
X170145190Y-129128828D01*
X170380386Y-129209571D01*
X170625665Y-129250500D01*
X170874335Y-129250500D01*
X171119614Y-129209571D01*
X171354810Y-129128828D01*
X171573509Y-129010474D01*
X171769744Y-128857738D01*
X171938164Y-128674785D01*
X172074173Y-128466607D01*
X172174063Y-128238881D01*
X172235108Y-127997821D01*
X172255643Y-127750005D01*
X175744357Y-127750005D01*
X175764890Y-127997812D01*
X175764892Y-127997824D01*
X175825936Y-128238881D01*
X175925826Y-128466606D01*
X176061833Y-128674782D01*
X176061836Y-128674785D01*
X176230256Y-128857738D01*
X176426491Y-129010474D01*
X176645190Y-129128828D01*
X176880386Y-129209571D01*
X177125665Y-129250500D01*
X177374335Y-129250500D01*
X177619614Y-129209571D01*
X177854810Y-129128828D01*
X178073509Y-129010474D01*
X178269744Y-128857738D01*
X178438164Y-128674785D01*
X178574173Y-128466607D01*
X178595148Y-128418787D01*
X178640104Y-128365301D01*
X178706840Y-128344610D01*
X178759140Y-128355316D01*
X178790197Y-128369144D01*
X178975354Y-128408500D01*
X178975355Y-128408500D01*
X179164644Y-128408500D01*
X179164646Y-128408500D01*
X179349803Y-128369144D01*
X179522730Y-128292151D01*
X179675871Y-128180888D01*
X179802533Y-128040216D01*
X179897179Y-127876284D01*
X179955674Y-127696256D01*
X179975460Y-127508000D01*
X179955674Y-127319744D01*
X179897179Y-127139716D01*
X179802533Y-126975784D01*
X179675871Y-126835112D01*
X179643708Y-126811744D01*
X179522734Y-126723851D01*
X179522729Y-126723848D01*
X179349807Y-126646857D01*
X179349802Y-126646855D01*
X179197009Y-126614379D01*
X179164646Y-126607500D01*
X178975354Y-126607500D01*
X178942991Y-126614379D01*
X178790197Y-126646855D01*
X178790192Y-126646857D01*
X178617271Y-126723848D01*
X178543359Y-126777548D01*
X178477552Y-126801027D01*
X178409498Y-126785201D01*
X178379248Y-126761215D01*
X178269744Y-126642262D01*
X178073509Y-126489526D01*
X178073507Y-126489525D01*
X178073506Y-126489524D01*
X177854811Y-126371172D01*
X177854802Y-126371169D01*
X177619616Y-126290429D01*
X177374335Y-126249500D01*
X177125665Y-126249500D01*
X176880383Y-126290429D01*
X176645197Y-126371169D01*
X176645188Y-126371172D01*
X176426493Y-126489524D01*
X176230257Y-126642261D01*
X176230256Y-126642262D01*
X176226028Y-126646855D01*
X176061833Y-126825217D01*
X175925826Y-127033393D01*
X175825936Y-127261118D01*
X175764892Y-127502175D01*
X175764890Y-127502187D01*
X175744357Y-127749994D01*
X175744357Y-127750005D01*
X172255643Y-127750005D01*
X172255643Y-127750000D01*
X172240858Y-127571574D01*
X172235109Y-127502187D01*
X172235107Y-127502175D01*
X172174063Y-127261118D01*
X172074173Y-127033393D01*
X171938166Y-126825217D01*
X171915897Y-126801027D01*
X171769744Y-126642262D01*
X171573509Y-126489526D01*
X171573507Y-126489525D01*
X171573506Y-126489524D01*
X171354811Y-126371172D01*
X171354802Y-126371169D01*
X171119616Y-126290429D01*
X170874335Y-126249500D01*
X170625665Y-126249500D01*
X170380383Y-126290429D01*
X170145197Y-126371169D01*
X170145188Y-126371172D01*
X169926493Y-126489524D01*
X169730257Y-126642261D01*
X169730256Y-126642262D01*
X169726028Y-126646855D01*
X169561833Y-126825217D01*
X169425826Y-127033393D01*
X169325936Y-127261118D01*
X169264892Y-127502175D01*
X169264890Y-127502187D01*
X169244357Y-127749994D01*
X169244357Y-127750005D01*
X165775500Y-127750005D01*
X165775500Y-127204163D01*
X165795185Y-127137124D01*
X165811819Y-127116482D01*
X167960302Y-124968000D01*
X177783540Y-124968000D01*
X177803326Y-125156256D01*
X177803327Y-125156259D01*
X177861818Y-125336277D01*
X177861821Y-125336284D01*
X177956467Y-125500216D01*
X178027211Y-125578785D01*
X178083129Y-125640888D01*
X178236265Y-125752148D01*
X178236270Y-125752151D01*
X178409192Y-125829142D01*
X178409197Y-125829144D01*
X178594354Y-125868500D01*
X178594355Y-125868500D01*
X178783644Y-125868500D01*
X178783646Y-125868500D01*
X178968803Y-125829144D01*
X179141730Y-125752151D01*
X179294871Y-125640888D01*
X179421533Y-125500216D01*
X179516179Y-125336284D01*
X179574674Y-125156256D01*
X179594460Y-124968000D01*
X179574674Y-124779744D01*
X179516179Y-124599716D01*
X179421533Y-124435784D01*
X179294871Y-124295112D01*
X179242771Y-124257259D01*
X179141734Y-124183851D01*
X179141729Y-124183848D01*
X178968807Y-124106857D01*
X178968802Y-124106855D01*
X178823001Y-124075865D01*
X178783646Y-124067500D01*
X178594354Y-124067500D01*
X178561897Y-124074398D01*
X178409197Y-124106855D01*
X178409192Y-124106857D01*
X178236270Y-124183848D01*
X178236265Y-124183851D01*
X178083129Y-124295111D01*
X177956466Y-124435785D01*
X177861821Y-124599715D01*
X177861818Y-124599722D01*
X177803327Y-124779740D01*
X177803326Y-124779744D01*
X177783540Y-124968000D01*
X167960302Y-124968000D01*
X168899483Y-124028819D01*
X168960806Y-123995334D01*
X168987164Y-123992500D01*
X171046722Y-123992500D01*
X171050466Y-123992613D01*
X171110082Y-123996219D01*
X171110082Y-123996218D01*
X171110085Y-123996219D01*
X171146847Y-123989482D01*
X171168836Y-123985453D01*
X171172540Y-123984889D01*
X171193888Y-123982296D01*
X171231845Y-123977688D01*
X171240605Y-123974365D01*
X171262221Y-123968338D01*
X171271439Y-123966650D01*
X171301031Y-123953332D01*
X171325916Y-123942132D01*
X171329358Y-123940705D01*
X171385226Y-123919518D01*
X171392933Y-123914197D01*
X171412480Y-123903172D01*
X171421028Y-123899326D01*
X171468066Y-123862472D01*
X171471059Y-123860269D01*
X171520229Y-123826332D01*
X171559852Y-123781605D01*
X171562386Y-123778913D01*
X172419913Y-122921386D01*
X172422605Y-122918852D01*
X172467332Y-122879229D01*
X172501269Y-122830059D01*
X172503472Y-122827066D01*
X172540326Y-122780028D01*
X172544172Y-122771480D01*
X172555197Y-122751935D01*
X172560517Y-122744227D01*
X172560516Y-122744227D01*
X172560518Y-122744226D01*
X172581705Y-122688358D01*
X172583132Y-122684916D01*
X172607647Y-122630446D01*
X172607647Y-122630445D01*
X172607650Y-122630439D01*
X172609338Y-122621221D01*
X172615366Y-122599603D01*
X172618688Y-122590845D01*
X172625889Y-122531540D01*
X172626453Y-122527836D01*
X172630577Y-122505327D01*
X172637219Y-122469085D01*
X172633796Y-122412500D01*
X172633613Y-122409466D01*
X172633500Y-122405722D01*
X172633500Y-120926277D01*
X172633613Y-120922533D01*
X172637219Y-120862915D01*
X172626453Y-120804168D01*
X172625889Y-120800463D01*
X172621299Y-120762664D01*
X172618688Y-120741155D01*
X172615363Y-120732389D01*
X172609338Y-120710776D01*
X172607650Y-120701561D01*
X172583126Y-120647070D01*
X172581703Y-120643634D01*
X172560518Y-120587774D01*
X172555198Y-120580066D01*
X172549521Y-120570000D01*
X175691634Y-120570000D01*
X175691931Y-120571946D01*
X175691933Y-120571952D01*
X175762562Y-120762657D01*
X175762565Y-120762664D01*
X175870149Y-120935267D01*
X176010264Y-121082668D01*
X176010266Y-121082669D01*
X176177195Y-121198856D01*
X176364092Y-121279059D01*
X176563310Y-121320000D01*
X176965000Y-121320000D01*
X176965000Y-120744000D01*
X176984685Y-120676961D01*
X177037489Y-120631206D01*
X177089000Y-120620000D01*
X177341000Y-120620000D01*
X177408039Y-120639685D01*
X177453794Y-120692489D01*
X177465000Y-120744000D01*
X177465000Y-121320000D01*
X177815713Y-121320000D01*
X177967338Y-121304581D01*
X178161381Y-121243700D01*
X178161391Y-121243695D01*
X178339215Y-121144994D01*
X178339216Y-121144994D01*
X178493530Y-121012521D01*
X178493531Y-121012520D01*
X178618018Y-120851695D01*
X178707588Y-120669093D01*
X178733246Y-120570000D01*
X180041634Y-120570000D01*
X180041931Y-120571946D01*
X180041933Y-120571952D01*
X180112562Y-120762657D01*
X180112565Y-120762664D01*
X180220149Y-120935267D01*
X180360264Y-121082668D01*
X180360266Y-121082669D01*
X180527195Y-121198856D01*
X180714092Y-121279059D01*
X180913310Y-121320000D01*
X181165000Y-121320000D01*
X181165000Y-120744000D01*
X181184685Y-120676961D01*
X181237489Y-120631206D01*
X181289000Y-120620000D01*
X181541000Y-120620000D01*
X181608039Y-120639685D01*
X181653794Y-120692489D01*
X181665000Y-120744000D01*
X181665000Y-121320000D01*
X181865713Y-121320000D01*
X182017338Y-121304581D01*
X182211381Y-121243700D01*
X182211391Y-121243695D01*
X182389215Y-121144994D01*
X182389216Y-121144994D01*
X182543530Y-121012521D01*
X182543531Y-121012520D01*
X182668018Y-120851695D01*
X182757588Y-120669093D01*
X182783246Y-120570000D01*
X182219979Y-120570000D01*
X182152940Y-120550315D01*
X182107185Y-120497511D01*
X182097241Y-120428353D01*
X182100713Y-120412066D01*
X182118894Y-120348162D01*
X182118895Y-120348160D01*
X182116178Y-120318836D01*
X182108546Y-120236479D01*
X182108544Y-120236475D01*
X182106115Y-120227937D01*
X182106701Y-120158070D01*
X182144966Y-120099610D01*
X182208763Y-120071119D01*
X182225381Y-120070000D01*
X182788366Y-120070000D01*
X182788068Y-120068053D01*
X182788066Y-120068047D01*
X182717437Y-119877342D01*
X182717434Y-119877335D01*
X182609850Y-119704732D01*
X182469735Y-119557331D01*
X182469733Y-119557330D01*
X182302804Y-119441143D01*
X182115907Y-119360940D01*
X181916690Y-119320000D01*
X181665000Y-119320000D01*
X181665000Y-119896000D01*
X181645315Y-119963039D01*
X181592511Y-120008794D01*
X181541000Y-120020000D01*
X181289000Y-120020000D01*
X181221961Y-120000315D01*
X181176206Y-119947511D01*
X181165000Y-119896000D01*
X181165000Y-119320000D01*
X180964287Y-119320000D01*
X180812661Y-119335418D01*
X180618618Y-119396299D01*
X180618608Y-119396304D01*
X180440784Y-119495005D01*
X180440783Y-119495005D01*
X180286469Y-119627478D01*
X180286468Y-119627479D01*
X180161981Y-119788304D01*
X180072411Y-119970906D01*
X180046754Y-120070000D01*
X180610021Y-120070000D01*
X180677060Y-120089685D01*
X180722815Y-120142489D01*
X180732759Y-120211647D01*
X180729287Y-120227934D01*
X180711105Y-120291837D01*
X180711104Y-120291837D01*
X180721453Y-120403517D01*
X180723885Y-120412063D01*
X180723299Y-120481930D01*
X180685034Y-120540390D01*
X180621237Y-120568881D01*
X180604619Y-120570000D01*
X180041634Y-120570000D01*
X178733246Y-120570000D01*
X178169979Y-120570000D01*
X178102940Y-120550315D01*
X178057185Y-120497511D01*
X178047241Y-120428353D01*
X178050713Y-120412066D01*
X178068894Y-120348162D01*
X178068895Y-120348160D01*
X178066178Y-120318836D01*
X178058546Y-120236479D01*
X178058544Y-120236475D01*
X178056115Y-120227937D01*
X178056701Y-120158070D01*
X178094966Y-120099610D01*
X178158763Y-120071119D01*
X178175381Y-120070000D01*
X178738366Y-120070000D01*
X178738068Y-120068053D01*
X178738066Y-120068047D01*
X178667437Y-119877342D01*
X178667434Y-119877335D01*
X178559850Y-119704732D01*
X178419735Y-119557331D01*
X178419733Y-119557330D01*
X178252806Y-119441144D01*
X178237401Y-119434534D01*
X178183558Y-119390007D01*
X178162335Y-119323438D01*
X178180471Y-119255963D01*
X178187920Y-119245103D01*
X178237698Y-119180233D01*
X178295687Y-119040236D01*
X178315466Y-118890000D01*
X178295687Y-118739764D01*
X178237698Y-118599767D01*
X178145451Y-118479549D01*
X178025233Y-118387302D01*
X178025229Y-118387300D01*
X177922132Y-118344596D01*
X177885236Y-118329313D01*
X177871171Y-118327461D01*
X177772727Y-118314500D01*
X177772720Y-118314500D01*
X177697280Y-118314500D01*
X177697272Y-118314500D01*
X177584764Y-118329313D01*
X177584763Y-118329313D01*
X177444770Y-118387300D01*
X177444767Y-118387301D01*
X177444767Y-118387302D01*
X177324549Y-118479549D01*
X177269093Y-118551821D01*
X177232300Y-118599770D01*
X177174313Y-118739763D01*
X177174312Y-118739765D01*
X177154534Y-118889999D01*
X177154534Y-118890000D01*
X177174312Y-119040234D01*
X177174313Y-119040236D01*
X177219177Y-119148547D01*
X177226646Y-119218017D01*
X177195371Y-119280496D01*
X177135282Y-119316148D01*
X177104616Y-119320000D01*
X176614287Y-119320000D01*
X176462661Y-119335418D01*
X176268618Y-119396299D01*
X176268608Y-119396304D01*
X176090784Y-119495005D01*
X176090783Y-119495005D01*
X175936469Y-119627478D01*
X175936468Y-119627479D01*
X175811981Y-119788304D01*
X175722411Y-119970906D01*
X175696754Y-120070000D01*
X176260021Y-120070000D01*
X176327060Y-120089685D01*
X176372815Y-120142489D01*
X176382759Y-120211647D01*
X176379287Y-120227934D01*
X176361105Y-120291837D01*
X176361104Y-120291837D01*
X176371453Y-120403517D01*
X176373885Y-120412063D01*
X176373299Y-120481930D01*
X176335034Y-120540390D01*
X176271237Y-120568881D01*
X176254619Y-120570000D01*
X175691634Y-120570000D01*
X172549521Y-120570000D01*
X172544171Y-120560515D01*
X172540327Y-120551974D01*
X172540326Y-120551973D01*
X172540326Y-120551972D01*
X172503465Y-120504923D01*
X172501258Y-120501922D01*
X172467332Y-120452771D01*
X172467328Y-120452767D01*
X172467327Y-120452766D01*
X172422632Y-120413170D01*
X172419920Y-120410618D01*
X172415818Y-120406516D01*
X172382334Y-120345194D01*
X172379500Y-120318836D01*
X172379500Y-120150156D01*
X172399185Y-120083117D01*
X172411351Y-120067183D01*
X172417354Y-120060516D01*
X172436533Y-120039216D01*
X172531179Y-119875284D01*
X172589674Y-119695256D01*
X172609460Y-119507000D01*
X172589674Y-119318744D01*
X172531179Y-119138716D01*
X172436533Y-118974784D01*
X172309871Y-118834112D01*
X172309870Y-118834111D01*
X172156734Y-118722851D01*
X172156729Y-118722848D01*
X171983807Y-118645857D01*
X171977626Y-118643849D01*
X171978134Y-118642283D01*
X171923886Y-118612988D01*
X171890117Y-118551821D01*
X171894609Y-118484607D01*
X171894171Y-118484465D01*
X171894735Y-118482727D01*
X171894777Y-118482107D01*
X171895578Y-118480132D01*
X171896177Y-118478286D01*
X171896179Y-118478284D01*
X171954674Y-118298256D01*
X171974460Y-118110000D01*
X171954674Y-117921744D01*
X171896179Y-117741716D01*
X171801533Y-117577784D01*
X171674871Y-117437112D01*
X171617816Y-117395659D01*
X171521734Y-117325851D01*
X171521729Y-117325848D01*
X171348807Y-117248857D01*
X171348802Y-117248855D01*
X171203001Y-117217865D01*
X171163646Y-117209500D01*
X170974354Y-117209500D01*
X170941897Y-117216398D01*
X170789197Y-117248855D01*
X170789192Y-117248857D01*
X170616270Y-117325848D01*
X170616265Y-117325851D01*
X170463129Y-117437111D01*
X170336466Y-117577785D01*
X170241821Y-117741715D01*
X170241818Y-117741722D01*
X170189604Y-117902422D01*
X170183326Y-117921744D01*
X170163540Y-118110000D01*
X170183326Y-118298256D01*
X170183327Y-118298259D01*
X170241818Y-118478277D01*
X170241821Y-118478284D01*
X170336467Y-118642216D01*
X170450817Y-118769214D01*
X170463129Y-118782888D01*
X170616265Y-118894148D01*
X170616270Y-118894151D01*
X170789191Y-118971142D01*
X170795372Y-118973150D01*
X170794862Y-118974718D01*
X170849103Y-119004001D01*
X170882879Y-119065164D01*
X170878392Y-119132393D01*
X170878829Y-119132535D01*
X170878268Y-119134260D01*
X170878227Y-119134879D01*
X170877425Y-119136854D01*
X170819169Y-119316148D01*
X170818326Y-119318744D01*
X170802902Y-119465500D01*
X170798540Y-119507000D01*
X170810091Y-119616907D01*
X170797521Y-119685637D01*
X170749789Y-119736661D01*
X170712551Y-119751158D01*
X170535197Y-119788855D01*
X170535192Y-119788857D01*
X170362270Y-119865848D01*
X170362265Y-119865851D01*
X170209129Y-119977111D01*
X170082466Y-120117785D01*
X169987821Y-120281715D01*
X169987818Y-120281722D01*
X169929327Y-120461739D01*
X169929327Y-120461740D01*
X169929326Y-120461744D01*
X169925567Y-120497511D01*
X169919983Y-120550636D01*
X169893398Y-120615250D01*
X169884343Y-120625354D01*
X169555516Y-120954182D01*
X169494195Y-120987666D01*
X169467837Y-120990500D01*
X166900278Y-120990500D01*
X166896534Y-120990387D01*
X166836918Y-120986781D01*
X166836909Y-120986781D01*
X166778171Y-120997545D01*
X166774470Y-120998108D01*
X166715156Y-121005311D01*
X166706381Y-121008639D01*
X166684778Y-121014660D01*
X166680259Y-121015488D01*
X166675560Y-121016350D01*
X166621075Y-121040869D01*
X166617618Y-121042301D01*
X166561774Y-121063481D01*
X166561770Y-121063484D01*
X166554056Y-121068808D01*
X166534525Y-121079824D01*
X166525970Y-121083674D01*
X166478943Y-121120517D01*
X166475928Y-121122736D01*
X166426772Y-121156667D01*
X166426769Y-121156670D01*
X166387164Y-121201373D01*
X166384597Y-121204100D01*
X164856518Y-122732181D01*
X164795195Y-122765666D01*
X164768837Y-122768500D01*
X164487278Y-122768500D01*
X164483534Y-122768387D01*
X164423918Y-122764781D01*
X164423909Y-122764781D01*
X164365171Y-122775545D01*
X164361470Y-122776108D01*
X164302156Y-122783311D01*
X164293381Y-122786639D01*
X164271778Y-122792660D01*
X164267259Y-122793488D01*
X164262560Y-122794350D01*
X164208075Y-122818869D01*
X164204618Y-122820301D01*
X164148774Y-122841481D01*
X164148770Y-122841484D01*
X164141056Y-122846808D01*
X164121525Y-122857824D01*
X164112971Y-122861674D01*
X164112970Y-122861674D01*
X164065932Y-122898525D01*
X164062917Y-122900744D01*
X164013771Y-122934667D01*
X164013769Y-122934669D01*
X163974172Y-122979364D01*
X163971605Y-122982091D01*
X159558100Y-127395597D01*
X159555373Y-127398164D01*
X159510670Y-127437769D01*
X159510667Y-127437772D01*
X159476736Y-127486928D01*
X159474517Y-127489943D01*
X159437674Y-127536970D01*
X159433824Y-127545525D01*
X159422808Y-127565056D01*
X159417484Y-127572770D01*
X159417481Y-127572774D01*
X159396301Y-127628618D01*
X159394869Y-127632075D01*
X159370350Y-127686560D01*
X159368661Y-127695777D01*
X159362639Y-127717381D01*
X159359311Y-127726156D01*
X159352108Y-127785470D01*
X159351545Y-127789171D01*
X159340781Y-127847910D01*
X159340781Y-127847914D01*
X159340781Y-127847915D01*
X159343961Y-127900500D01*
X159344386Y-127907531D01*
X159344499Y-127911274D01*
X159344499Y-139494783D01*
X159324814Y-139561822D01*
X159291623Y-139596358D01*
X159148594Y-139696508D01*
X158981505Y-139863597D01*
X158851575Y-140049158D01*
X158796998Y-140092783D01*
X158727500Y-140099977D01*
X158665145Y-140068454D01*
X158648425Y-140049158D01*
X158518494Y-139863597D01*
X158351402Y-139696506D01*
X158351401Y-139696505D01*
X158299375Y-139660076D01*
X158208375Y-139596357D01*
X158164752Y-139541781D01*
X158155500Y-139494783D01*
X158155500Y-138706277D01*
X158155613Y-138702533D01*
X158159219Y-138642915D01*
X158152713Y-138607413D01*
X158148451Y-138584158D01*
X158147889Y-138580463D01*
X158146616Y-138569981D01*
X158140688Y-138521155D01*
X158137363Y-138512389D01*
X158131338Y-138490776D01*
X158129650Y-138481561D01*
X158105126Y-138427070D01*
X158103703Y-138423634D01*
X158093554Y-138396873D01*
X158082518Y-138367774D01*
X158077198Y-138360066D01*
X158066171Y-138340515D01*
X158062326Y-138331972D01*
X158055944Y-138323827D01*
X158025486Y-138284949D01*
X158023265Y-138281932D01*
X157989333Y-138232772D01*
X157944624Y-138193163D01*
X157941912Y-138190611D01*
X155052385Y-135301084D01*
X155049851Y-135298392D01*
X155010229Y-135253668D01*
X154961061Y-135219730D01*
X154958051Y-135217515D01*
X154911025Y-135180672D01*
X154911023Y-135180671D01*
X154902476Y-135176824D01*
X154882938Y-135165805D01*
X154878387Y-135162664D01*
X154875226Y-135160482D01*
X154875224Y-135160481D01*
X154819366Y-135139296D01*
X154815907Y-135137863D01*
X154761440Y-135113350D01*
X154761441Y-135113350D01*
X154754087Y-135112002D01*
X154752222Y-135111660D01*
X154730614Y-135105637D01*
X154721845Y-135102311D01*
X154662529Y-135095108D01*
X154658828Y-135094545D01*
X154600089Y-135083781D01*
X154600082Y-135083781D01*
X154540466Y-135087387D01*
X154536722Y-135087500D01*
X140666163Y-135087500D01*
X140599124Y-135067815D01*
X140578482Y-135051181D01*
X133681319Y-128154018D01*
X133647834Y-128092695D01*
X133645000Y-128066337D01*
X133645000Y-126111000D01*
X134095540Y-126111000D01*
X134115326Y-126299256D01*
X134115327Y-126299259D01*
X134173818Y-126479277D01*
X134173821Y-126479284D01*
X134268467Y-126643216D01*
X134389420Y-126777548D01*
X134395129Y-126783888D01*
X134548265Y-126895148D01*
X134548270Y-126895151D01*
X134721192Y-126972142D01*
X134721197Y-126972144D01*
X134906354Y-127011500D01*
X134906355Y-127011500D01*
X135095644Y-127011500D01*
X135095646Y-127011500D01*
X135280803Y-126972144D01*
X135453730Y-126895151D01*
X135606871Y-126783888D01*
X135733533Y-126643216D01*
X135828179Y-126479284D01*
X135886674Y-126299256D01*
X135906460Y-126111000D01*
X135886674Y-125922744D01*
X135828179Y-125742716D01*
X135733533Y-125578784D01*
X135606871Y-125438112D01*
X135606870Y-125438111D01*
X135453734Y-125326851D01*
X135453729Y-125326848D01*
X135280807Y-125249857D01*
X135280802Y-125249855D01*
X135135001Y-125218865D01*
X135095646Y-125210500D01*
X134906354Y-125210500D01*
X134873897Y-125217398D01*
X134721197Y-125249855D01*
X134721192Y-125249857D01*
X134548270Y-125326848D01*
X134548265Y-125326851D01*
X134395129Y-125438111D01*
X134268466Y-125578785D01*
X134173821Y-125742715D01*
X134173818Y-125742722D01*
X134132951Y-125868500D01*
X134115326Y-125922744D01*
X134095540Y-126111000D01*
X133645000Y-126111000D01*
X133645000Y-124257259D01*
X133645000Y-120361003D01*
X133664684Y-120293968D01*
X133717488Y-120248213D01*
X133786646Y-120238269D01*
X133850202Y-120267294D01*
X133861148Y-120278034D01*
X133887128Y-120306887D01*
X133887129Y-120306888D01*
X134040265Y-120418148D01*
X134040270Y-120418151D01*
X134213192Y-120495142D01*
X134213197Y-120495144D01*
X134398354Y-120534500D01*
X134398355Y-120534500D01*
X134587644Y-120534500D01*
X134587646Y-120534500D01*
X134772803Y-120495144D01*
X134945730Y-120418151D01*
X135098871Y-120306888D01*
X135225533Y-120166216D01*
X135320179Y-120002284D01*
X135378674Y-119822256D01*
X135398460Y-119634000D01*
X135378674Y-119445744D01*
X135320179Y-119265716D01*
X135225533Y-119101784D01*
X135098871Y-118961112D01*
X135098870Y-118961111D01*
X134945734Y-118849851D01*
X134945729Y-118849848D01*
X134772807Y-118772857D01*
X134772802Y-118772855D01*
X134617111Y-118739763D01*
X134587646Y-118733500D01*
X134398354Y-118733500D01*
X134368889Y-118739763D01*
X134213197Y-118772855D01*
X134213192Y-118772857D01*
X134040270Y-118849848D01*
X134040265Y-118849851D01*
X133887129Y-118961111D01*
X133760466Y-119101785D01*
X133665821Y-119265715D01*
X133665818Y-119265722D01*
X133639231Y-119347550D01*
X133599793Y-119405226D01*
X133535435Y-119432424D01*
X133466588Y-119420509D01*
X133439078Y-119402052D01*
X133434128Y-119397667D01*
X133431413Y-119395112D01*
X127747385Y-113711084D01*
X127744851Y-113708392D01*
X127705229Y-113663668D01*
X127656061Y-113629730D01*
X127653051Y-113627515D01*
X127606025Y-113590672D01*
X127606023Y-113590671D01*
X127597476Y-113586824D01*
X127577938Y-113575805D01*
X127570226Y-113570482D01*
X127570224Y-113570481D01*
X127514366Y-113549296D01*
X127510907Y-113547863D01*
X127456440Y-113523350D01*
X127456441Y-113523350D01*
X127449087Y-113522002D01*
X127447222Y-113521660D01*
X127425614Y-113515637D01*
X127416845Y-113512311D01*
X127357529Y-113505108D01*
X127353828Y-113504545D01*
X127295089Y-113493781D01*
X127295082Y-113493781D01*
X127235466Y-113497387D01*
X127231722Y-113497500D01*
X116593566Y-113497500D01*
X116526527Y-113477815D01*
X116520681Y-113473818D01*
X116403734Y-113388851D01*
X116403729Y-113388848D01*
X116230807Y-113311857D01*
X116230802Y-113311855D01*
X116085000Y-113280865D01*
X116045646Y-113272500D01*
X115856354Y-113272500D01*
X115823897Y-113279398D01*
X115671197Y-113311855D01*
X115671192Y-113311857D01*
X115498270Y-113388848D01*
X115498265Y-113388851D01*
X115345129Y-113500111D01*
X115218466Y-113640785D01*
X115123821Y-113804715D01*
X115123818Y-113804722D01*
X115072175Y-113963664D01*
X115065326Y-113984744D01*
X115045540Y-114173000D01*
X115065326Y-114361256D01*
X115065327Y-114361259D01*
X115123818Y-114541277D01*
X115123821Y-114541284D01*
X115218467Y-114705216D01*
X115298225Y-114793796D01*
X115345129Y-114845888D01*
X115498265Y-114957148D01*
X115498270Y-114957151D01*
X115671192Y-115034142D01*
X115671197Y-115034144D01*
X115856354Y-115073500D01*
X115856355Y-115073500D01*
X116045644Y-115073500D01*
X116045646Y-115073500D01*
X116230803Y-115034144D01*
X116403730Y-114957151D01*
X116503477Y-114884681D01*
X116520681Y-114872182D01*
X116586487Y-114848702D01*
X116593566Y-114848500D01*
X126922837Y-114848500D01*
X126989876Y-114868185D01*
X127010518Y-114884819D01*
X132257681Y-120131981D01*
X132291166Y-120193304D01*
X132294000Y-120219662D01*
X132294000Y-122673500D01*
X132274315Y-122740539D01*
X132221511Y-122786294D01*
X132170000Y-122797500D01*
X132099854Y-122797500D01*
X132067397Y-122804398D01*
X131914697Y-122836855D01*
X131914692Y-122836857D01*
X131741770Y-122913848D01*
X131741765Y-122913851D01*
X131588629Y-123025111D01*
X131461966Y-123165785D01*
X131367321Y-123329715D01*
X131367318Y-123329722D01*
X131308827Y-123509739D01*
X131308826Y-123509741D01*
X131298362Y-123609295D01*
X131277091Y-123666772D01*
X131269734Y-123677430D01*
X131267514Y-123680447D01*
X131230674Y-123727470D01*
X131226824Y-123736025D01*
X131215808Y-123755556D01*
X131210484Y-123763270D01*
X131210481Y-123763274D01*
X131189301Y-123819118D01*
X131187869Y-123822575D01*
X131163350Y-123877060D01*
X131161661Y-123886277D01*
X131155639Y-123907881D01*
X131152311Y-123916656D01*
X131145108Y-123975970D01*
X131144545Y-123979671D01*
X131133781Y-124038409D01*
X131133781Y-124038415D01*
X131137387Y-124098033D01*
X131137500Y-124101777D01*
X131137500Y-130600738D01*
X131137387Y-130604482D01*
X131133781Y-130664098D01*
X131133781Y-130664101D01*
X131144545Y-130722842D01*
X131145108Y-130726544D01*
X131150047Y-130767215D01*
X131150499Y-130774695D01*
X131150500Y-133037836D01*
X131130815Y-133104875D01*
X131114181Y-133125517D01*
X124859878Y-139379819D01*
X124798555Y-139413304D01*
X124740104Y-139411913D01*
X124695413Y-139399938D01*
X124695403Y-139399936D01*
X124460001Y-139379341D01*
X124459999Y-139379341D01*
X124224596Y-139399936D01*
X124224586Y-139399938D01*
X123996344Y-139461094D01*
X123996335Y-139461098D01*
X123782171Y-139560964D01*
X123782169Y-139560965D01*
X123588597Y-139696505D01*
X123421505Y-139863597D01*
X123291575Y-140049158D01*
X123236998Y-140092783D01*
X123167500Y-140099977D01*
X123105145Y-140068454D01*
X123088425Y-140049158D01*
X122958494Y-139863597D01*
X122791402Y-139696506D01*
X122791395Y-139696501D01*
X122597834Y-139560967D01*
X122597830Y-139560965D01*
X122556690Y-139541781D01*
X122383663Y-139461097D01*
X122383659Y-139461096D01*
X122383655Y-139461094D01*
X122155413Y-139399938D01*
X122155403Y-139399936D01*
X121920001Y-139379341D01*
X121919996Y-139379341D01*
X121880306Y-139382813D01*
X121811806Y-139369046D01*
X121761624Y-139320430D01*
X121745500Y-139259285D01*
X121745500Y-137174630D01*
X121745500Y-134867714D01*
X121765184Y-134800679D01*
X121817988Y-134754924D01*
X121887146Y-134744980D01*
X121950702Y-134774005D01*
X121961645Y-134784741D01*
X122076129Y-134911888D01*
X122076132Y-134911890D01*
X122229265Y-135023148D01*
X122229270Y-135023151D01*
X122402192Y-135100142D01*
X122402197Y-135100144D01*
X122587354Y-135139500D01*
X122587355Y-135139500D01*
X122776644Y-135139500D01*
X122776646Y-135139500D01*
X122961803Y-135100144D01*
X123134730Y-135023151D01*
X123287871Y-134911888D01*
X123414533Y-134771216D01*
X123509179Y-134607284D01*
X123567674Y-134427256D01*
X123587460Y-134239000D01*
X123567674Y-134050744D01*
X123509179Y-133870716D01*
X123414533Y-133706784D01*
X123287871Y-133566112D01*
X123269052Y-133552439D01*
X123134734Y-133454851D01*
X123134729Y-133454848D01*
X122961807Y-133377857D01*
X122961802Y-133377855D01*
X122804601Y-133344442D01*
X122776646Y-133338500D01*
X122587354Y-133338500D01*
X122559399Y-133344442D01*
X122402197Y-133377855D01*
X122402192Y-133377857D01*
X122229270Y-133454848D01*
X122229265Y-133454851D01*
X122076129Y-133566111D01*
X122076128Y-133566112D01*
X121961648Y-133693254D01*
X121902161Y-133729902D01*
X121832304Y-133728571D01*
X121774256Y-133689684D01*
X121746447Y-133625587D01*
X121745500Y-133610297D01*
X121745500Y-133096000D01*
X124951540Y-133096000D01*
X124971326Y-133284256D01*
X124971327Y-133284259D01*
X125029818Y-133464277D01*
X125029821Y-133464284D01*
X125124467Y-133628216D01*
X125216026Y-133729902D01*
X125251129Y-133768888D01*
X125404265Y-133880148D01*
X125404270Y-133880151D01*
X125577192Y-133957142D01*
X125577197Y-133957144D01*
X125762354Y-133996500D01*
X125762355Y-133996500D01*
X125951644Y-133996500D01*
X125951646Y-133996500D01*
X126136803Y-133957144D01*
X126309730Y-133880151D01*
X126462871Y-133768888D01*
X126589533Y-133628216D01*
X126684179Y-133464284D01*
X126742674Y-133284256D01*
X126762460Y-133096000D01*
X126742674Y-132907744D01*
X126684179Y-132727716D01*
X126589533Y-132563784D01*
X126462871Y-132423112D01*
X126462870Y-132423111D01*
X126309734Y-132311851D01*
X126309729Y-132311848D01*
X126136807Y-132234857D01*
X126136802Y-132234855D01*
X125991001Y-132203865D01*
X125951646Y-132195500D01*
X125762354Y-132195500D01*
X125729897Y-132202398D01*
X125577197Y-132234855D01*
X125577192Y-132234857D01*
X125404270Y-132311848D01*
X125404265Y-132311851D01*
X125251129Y-132423111D01*
X125124466Y-132563785D01*
X125029821Y-132727715D01*
X125029818Y-132727722D01*
X124971327Y-132907740D01*
X124971326Y-132907744D01*
X124951540Y-133096000D01*
X121745500Y-133096000D01*
X121745500Y-129197158D01*
X121765184Y-129130123D01*
X121781809Y-129109491D01*
X122945878Y-127945421D01*
X123007199Y-127911938D01*
X123076891Y-127916922D01*
X123125705Y-127950130D01*
X123168638Y-127997812D01*
X123219129Y-128053888D01*
X123372265Y-128165148D01*
X123372270Y-128165151D01*
X123545192Y-128242142D01*
X123545197Y-128242144D01*
X123730354Y-128281500D01*
X123730355Y-128281500D01*
X123919644Y-128281500D01*
X123919646Y-128281500D01*
X124104803Y-128242144D01*
X124277730Y-128165151D01*
X124430871Y-128053888D01*
X124557533Y-127913216D01*
X124652179Y-127749284D01*
X124710674Y-127569256D01*
X124730460Y-127381000D01*
X124710674Y-127192744D01*
X124652179Y-127012716D01*
X124557533Y-126848784D01*
X124430871Y-126708112D01*
X124430870Y-126708111D01*
X124430868Y-126708109D01*
X124404871Y-126689221D01*
X124362205Y-126633891D01*
X124356227Y-126564278D01*
X124388833Y-126502483D01*
X124390001Y-126501298D01*
X128797073Y-122094227D01*
X128858394Y-122060744D01*
X128871793Y-122058589D01*
X128872631Y-122058500D01*
X128872646Y-122058500D01*
X129057803Y-122019144D01*
X129230730Y-121942151D01*
X129383871Y-121830888D01*
X129510533Y-121690216D01*
X129605179Y-121526284D01*
X129663674Y-121346256D01*
X129683460Y-121158000D01*
X129663674Y-120969744D01*
X129605179Y-120789716D01*
X129510533Y-120625784D01*
X129383871Y-120485112D01*
X129383870Y-120485111D01*
X129230734Y-120373851D01*
X129230729Y-120373848D01*
X129057807Y-120296857D01*
X129057802Y-120296855D01*
X128901316Y-120263594D01*
X128872646Y-120257500D01*
X128791250Y-120257500D01*
X128724211Y-120237815D01*
X128678456Y-120185011D01*
X128667929Y-120146462D01*
X128664915Y-120117784D01*
X128647674Y-119953744D01*
X128589179Y-119773716D01*
X128494533Y-119609784D01*
X128367871Y-119469112D01*
X128367870Y-119469111D01*
X128214734Y-119357851D01*
X128214729Y-119357848D01*
X128041807Y-119280857D01*
X128041802Y-119280855D01*
X127896000Y-119249865D01*
X127856646Y-119241500D01*
X127667354Y-119241500D01*
X127634897Y-119248398D01*
X127482197Y-119280855D01*
X127482192Y-119280857D01*
X127309270Y-119357848D01*
X127309265Y-119357851D01*
X127156129Y-119469111D01*
X127029466Y-119609785D01*
X126934821Y-119773715D01*
X126934818Y-119773722D01*
X126876327Y-119953739D01*
X126876327Y-119953740D01*
X126876326Y-119953744D01*
X126867342Y-120039216D01*
X126866983Y-120042636D01*
X126840398Y-120107250D01*
X126831343Y-120117354D01*
X125212122Y-121736575D01*
X125150799Y-121770060D01*
X125081107Y-121765076D01*
X125032293Y-121731867D01*
X124938871Y-121628112D01*
X124927706Y-121620000D01*
X124785734Y-121516851D01*
X124785729Y-121516848D01*
X124612807Y-121439857D01*
X124612802Y-121439855D01*
X124467001Y-121408865D01*
X124427646Y-121400500D01*
X124238354Y-121400500D01*
X124205897Y-121407398D01*
X124053197Y-121439855D01*
X124053192Y-121439857D01*
X123880270Y-121516848D01*
X123880265Y-121516851D01*
X123727129Y-121628111D01*
X123600466Y-121768785D01*
X123505821Y-121932715D01*
X123505818Y-121932722D01*
X123447327Y-122112739D01*
X123447327Y-122112740D01*
X123447326Y-122112744D01*
X123442517Y-122158498D01*
X123437983Y-122201636D01*
X123411398Y-122266250D01*
X123402343Y-122276354D01*
X119100141Y-126578557D01*
X119038818Y-126612042D01*
X118969126Y-126607058D01*
X118913193Y-126565186D01*
X118888776Y-126499722D01*
X118888520Y-126492582D01*
X118888459Y-126492005D01*
X118888460Y-126492000D01*
X118868674Y-126303744D01*
X118810179Y-126123716D01*
X118715533Y-125959784D01*
X118588871Y-125819112D01*
X118588870Y-125819111D01*
X118435734Y-125707851D01*
X118435729Y-125707848D01*
X118262807Y-125630857D01*
X118262802Y-125630855D01*
X118117001Y-125599865D01*
X118077646Y-125591500D01*
X117888354Y-125591500D01*
X117855897Y-125598398D01*
X117703197Y-125630855D01*
X117703192Y-125630857D01*
X117530270Y-125707848D01*
X117530265Y-125707851D01*
X117377129Y-125819111D01*
X117250466Y-125959785D01*
X117155821Y-126123715D01*
X117155818Y-126123722D01*
X117102405Y-126288112D01*
X117097326Y-126303744D01*
X117083488Y-126435408D01*
X117079593Y-126472471D01*
X117077540Y-126492000D01*
X117097326Y-126680256D01*
X117097327Y-126680259D01*
X117155818Y-126860277D01*
X117155821Y-126860284D01*
X117250467Y-127024216D01*
X117366246Y-127152801D01*
X117377129Y-127164888D01*
X117530265Y-127276148D01*
X117530270Y-127276151D01*
X117703192Y-127353142D01*
X117703197Y-127353144D01*
X117888354Y-127392500D01*
X117888355Y-127392500D01*
X117986836Y-127392500D01*
X118053875Y-127412185D01*
X118099630Y-127464989D01*
X118109574Y-127534147D01*
X118080549Y-127597703D01*
X118074517Y-127604181D01*
X117518100Y-128160597D01*
X117515373Y-128163164D01*
X117470670Y-128202769D01*
X117470667Y-128202772D01*
X117436736Y-128251928D01*
X117434517Y-128254943D01*
X117397674Y-128301970D01*
X117393824Y-128310525D01*
X117382808Y-128330056D01*
X117377484Y-128337770D01*
X117377481Y-128337774D01*
X117356301Y-128393618D01*
X117354869Y-128397075D01*
X117330350Y-128451560D01*
X117328661Y-128460777D01*
X117322639Y-128482381D01*
X117319311Y-128491156D01*
X117312108Y-128550470D01*
X117311545Y-128554171D01*
X117300781Y-128612909D01*
X117300781Y-128612915D01*
X117304387Y-128672533D01*
X117304500Y-128676277D01*
X117304500Y-133214500D01*
X117284815Y-133281539D01*
X117232011Y-133327294D01*
X117180500Y-133338500D01*
X116999354Y-133338500D01*
X116971399Y-133344442D01*
X116814197Y-133377855D01*
X116814192Y-133377857D01*
X116641270Y-133454848D01*
X116641265Y-133454851D01*
X116488129Y-133566111D01*
X116361466Y-133706785D01*
X116266821Y-133870715D01*
X116266818Y-133870722D01*
X116208327Y-134050740D01*
X116208326Y-134050744D01*
X116188540Y-134239000D01*
X116208326Y-134427256D01*
X116208327Y-134427259D01*
X116266818Y-134607277D01*
X116266821Y-134607284D01*
X116361467Y-134771216D01*
X116448358Y-134867718D01*
X116488129Y-134911888D01*
X116641265Y-135023148D01*
X116641270Y-135023151D01*
X116814192Y-135100142D01*
X116814197Y-135100144D01*
X116999354Y-135139500D01*
X116999355Y-135139500D01*
X117180500Y-135139500D01*
X117247539Y-135159185D01*
X117293294Y-135211989D01*
X117304500Y-135263500D01*
X117304500Y-139263836D01*
X117284815Y-139330875D01*
X117268184Y-139351513D01*
X117250652Y-139369046D01*
X117239877Y-139379821D01*
X117178553Y-139413305D01*
X117120104Y-139411913D01*
X117075413Y-139399938D01*
X117075403Y-139399936D01*
X116840001Y-139379341D01*
X116839999Y-139379341D01*
X116604596Y-139399936D01*
X116604586Y-139399938D01*
X116376344Y-139461094D01*
X116376335Y-139461098D01*
X116162171Y-139560964D01*
X116162169Y-139560965D01*
X115968597Y-139696505D01*
X115801505Y-139863597D01*
X115671575Y-140049158D01*
X115616998Y-140092783D01*
X115547500Y-140099977D01*
X115485145Y-140068454D01*
X115468425Y-140049158D01*
X115338494Y-139863597D01*
X115171402Y-139696506D01*
X115171395Y-139696501D01*
X114977834Y-139560967D01*
X114977830Y-139560965D01*
X114936690Y-139541781D01*
X114763663Y-139461097D01*
X114763659Y-139461096D01*
X114763655Y-139461094D01*
X114535413Y-139399938D01*
X114535403Y-139399936D01*
X114300001Y-139379341D01*
X114299999Y-139379341D01*
X114064596Y-139399936D01*
X114064586Y-139399938D01*
X113836344Y-139461094D01*
X113836335Y-139461098D01*
X113622171Y-139560964D01*
X113622169Y-139560965D01*
X113428597Y-139696505D01*
X113261505Y-139863597D01*
X113125965Y-140057169D01*
X113125964Y-140057171D01*
X113026098Y-140271335D01*
X113026094Y-140271344D01*
X112964938Y-140499586D01*
X112964936Y-140499596D01*
X112944341Y-140734999D01*
X112944341Y-140735000D01*
X111029140Y-140735000D01*
X111037031Y-139259285D01*
X111088987Y-129543334D01*
X111109030Y-129476404D01*
X111162077Y-129430932D01*
X111212985Y-129420000D01*
X111340000Y-129420000D01*
X111340000Y-126936500D01*
X112315040Y-126936500D01*
X112334826Y-127124756D01*
X112334827Y-127124759D01*
X112393318Y-127304777D01*
X112393321Y-127304784D01*
X112487967Y-127468716D01*
X112565527Y-127554855D01*
X112614629Y-127609388D01*
X112767765Y-127720648D01*
X112767770Y-127720651D01*
X112940692Y-127797642D01*
X112940697Y-127797644D01*
X113125854Y-127837000D01*
X113125855Y-127837000D01*
X113315144Y-127837000D01*
X113315146Y-127837000D01*
X113500303Y-127797644D01*
X113673230Y-127720651D01*
X113826371Y-127609388D01*
X113953033Y-127468716D01*
X114015697Y-127360177D01*
X114066261Y-127311965D01*
X114134868Y-127298741D01*
X114199733Y-127324709D01*
X114229998Y-127363564D01*
X114231572Y-127362656D01*
X114234820Y-127368282D01*
X114234821Y-127368284D01*
X114329467Y-127532216D01*
X114416268Y-127628618D01*
X114456129Y-127672888D01*
X114609265Y-127784148D01*
X114609270Y-127784151D01*
X114782192Y-127861142D01*
X114782197Y-127861144D01*
X114967354Y-127900500D01*
X114967355Y-127900500D01*
X115156644Y-127900500D01*
X115156646Y-127900500D01*
X115341803Y-127861144D01*
X115514730Y-127784151D01*
X115667871Y-127672888D01*
X115794533Y-127532216D01*
X115889179Y-127368284D01*
X115947674Y-127188256D01*
X115967460Y-127000000D01*
X115947674Y-126811744D01*
X115889179Y-126631716D01*
X115794533Y-126467784D01*
X115667871Y-126327112D01*
X115635708Y-126303744D01*
X115514734Y-126215851D01*
X115514729Y-126215848D01*
X115341807Y-126138857D01*
X115341802Y-126138855D01*
X115196001Y-126107865D01*
X115156646Y-126099500D01*
X114967354Y-126099500D01*
X114934897Y-126106398D01*
X114782197Y-126138855D01*
X114782192Y-126138857D01*
X114609270Y-126215848D01*
X114609265Y-126215851D01*
X114456129Y-126327111D01*
X114329465Y-126467785D01*
X114266804Y-126576319D01*
X114216237Y-126624535D01*
X114147630Y-126637758D01*
X114082765Y-126611790D01*
X114052505Y-126572933D01*
X114050928Y-126573844D01*
X114047678Y-126568215D01*
X113953033Y-126404284D01*
X113826371Y-126263612D01*
X113826370Y-126263611D01*
X113673234Y-126152351D01*
X113673229Y-126152348D01*
X113500307Y-126075357D01*
X113500302Y-126075355D01*
X113354500Y-126044365D01*
X113315146Y-126036000D01*
X113125854Y-126036000D01*
X113093397Y-126042898D01*
X112940697Y-126075355D01*
X112940692Y-126075357D01*
X112767770Y-126152348D01*
X112767765Y-126152351D01*
X112614629Y-126263611D01*
X112487966Y-126404285D01*
X112393321Y-126568215D01*
X112393318Y-126568222D01*
X112334827Y-126748240D01*
X112334826Y-126748244D01*
X112315040Y-126936500D01*
X111340000Y-126936500D01*
X111340000Y-111420000D01*
X111310569Y-111420000D01*
X111243530Y-111400315D01*
X111197775Y-111347511D01*
X111186571Y-111295337D01*
X111193594Y-109982000D01*
X124697540Y-109982000D01*
X124717326Y-110170256D01*
X124717327Y-110170259D01*
X124775818Y-110350277D01*
X124775821Y-110350284D01*
X124870467Y-110514216D01*
X124997128Y-110654888D01*
X124997129Y-110654888D01*
X125150265Y-110766148D01*
X125150270Y-110766151D01*
X125323192Y-110843142D01*
X125323197Y-110843144D01*
X125508354Y-110882500D01*
X125508355Y-110882500D01*
X125697644Y-110882500D01*
X125697646Y-110882500D01*
X125882803Y-110843144D01*
X126055730Y-110766151D01*
X126084632Y-110745152D01*
X126150439Y-110721671D01*
X126218493Y-110737496D01*
X126249668Y-110762496D01*
X126267128Y-110781887D01*
X126267135Y-110781893D01*
X126420265Y-110893148D01*
X126420270Y-110893151D01*
X126593192Y-110970142D01*
X126593197Y-110970144D01*
X126778354Y-111009500D01*
X126778367Y-111009500D01*
X126779208Y-111009589D01*
X126779672Y-111009779D01*
X126784711Y-111010851D01*
X126784515Y-111011772D01*
X126843823Y-111036173D01*
X126853927Y-111045228D01*
X133625619Y-117816921D01*
X133628171Y-117819633D01*
X133667771Y-117864332D01*
X133716955Y-117898281D01*
X133719944Y-117900481D01*
X133766972Y-117937325D01*
X133775514Y-117941169D01*
X133795061Y-117952194D01*
X133802774Y-117957518D01*
X133858643Y-117978706D01*
X133862082Y-117980131D01*
X133916561Y-118004650D01*
X133925776Y-118006338D01*
X133947389Y-118012363D01*
X133956155Y-118015688D01*
X134015471Y-118022890D01*
X134019158Y-118023451D01*
X134077915Y-118034219D01*
X134133889Y-118030833D01*
X134137527Y-118030613D01*
X134141272Y-118030500D01*
X141047497Y-118030500D01*
X141114536Y-118050185D01*
X141160291Y-118102989D01*
X141170235Y-118172147D01*
X141167272Y-118186593D01*
X141124938Y-118344586D01*
X141124936Y-118344596D01*
X141104341Y-118579999D01*
X141104341Y-118580000D01*
X141124936Y-118815403D01*
X141124938Y-118815413D01*
X141186094Y-119043655D01*
X141186096Y-119043659D01*
X141186097Y-119043663D01*
X141267400Y-119218017D01*
X141285965Y-119257830D01*
X141285967Y-119257834D01*
X141383880Y-119397667D01*
X141421505Y-119451401D01*
X141588599Y-119618495D01*
X141757357Y-119736661D01*
X141774594Y-119748730D01*
X141818219Y-119803307D01*
X141825413Y-119872805D01*
X141793890Y-119935160D01*
X141774595Y-119951880D01*
X141588922Y-120081890D01*
X141588920Y-120081891D01*
X141421891Y-120248920D01*
X141421886Y-120248926D01*
X141286400Y-120442420D01*
X141286399Y-120442422D01*
X141186570Y-120656507D01*
X141186567Y-120656513D01*
X141129364Y-120869999D01*
X141129364Y-120870000D01*
X141846653Y-120870000D01*
X141913692Y-120889685D01*
X141959447Y-120942489D01*
X141969391Y-121011647D01*
X141965631Y-121028933D01*
X141960000Y-121048111D01*
X141960000Y-121191888D01*
X141965631Y-121211067D01*
X141965630Y-121280936D01*
X141927855Y-121339714D01*
X141864299Y-121368738D01*
X141846653Y-121370000D01*
X141129364Y-121370000D01*
X141186567Y-121583486D01*
X141186570Y-121583492D01*
X141286399Y-121797578D01*
X141421894Y-121991082D01*
X141588917Y-122158105D01*
X141774595Y-122288119D01*
X141818219Y-122342696D01*
X141825412Y-122412195D01*
X141793890Y-122474549D01*
X141774595Y-122491269D01*
X141588594Y-122621508D01*
X141421505Y-122788597D01*
X141285965Y-122982169D01*
X141285964Y-122982171D01*
X141186098Y-123196335D01*
X141186094Y-123196344D01*
X141124938Y-123424586D01*
X141124936Y-123424596D01*
X141104341Y-123659999D01*
X141104341Y-123660000D01*
X141124936Y-123895403D01*
X141124938Y-123895413D01*
X141186094Y-124123655D01*
X141186096Y-124123659D01*
X141186097Y-124123663D01*
X141222593Y-124201929D01*
X141285965Y-124337830D01*
X141285967Y-124337834D01*
X141354553Y-124435784D01*
X141421501Y-124531396D01*
X141421506Y-124531402D01*
X141588597Y-124698493D01*
X141588603Y-124698498D01*
X141774158Y-124828425D01*
X141817783Y-124883002D01*
X141824977Y-124952500D01*
X141793454Y-125014855D01*
X141774158Y-125031575D01*
X141588597Y-125161505D01*
X141421505Y-125328597D01*
X141285965Y-125522169D01*
X141285964Y-125522171D01*
X141186098Y-125736335D01*
X141186094Y-125736344D01*
X141124938Y-125964586D01*
X141124936Y-125964596D01*
X141104341Y-126199999D01*
X141104341Y-126200000D01*
X141124936Y-126435403D01*
X141124938Y-126435413D01*
X141186094Y-126663655D01*
X141186096Y-126663659D01*
X141186097Y-126663663D01*
X141239203Y-126777548D01*
X141285965Y-126877830D01*
X141285967Y-126877834D01*
X141380413Y-127012716D01*
X141421501Y-127071396D01*
X141421506Y-127071402D01*
X141588597Y-127238493D01*
X141588603Y-127238498D01*
X141774158Y-127368425D01*
X141817783Y-127423002D01*
X141824977Y-127492500D01*
X141793454Y-127554855D01*
X141774158Y-127571575D01*
X141588597Y-127701505D01*
X141421505Y-127868597D01*
X141285965Y-128062169D01*
X141285964Y-128062171D01*
X141186098Y-128276335D01*
X141186094Y-128276344D01*
X141124938Y-128504586D01*
X141124936Y-128504596D01*
X141104341Y-128739999D01*
X141104341Y-128740000D01*
X141124936Y-128975403D01*
X141124938Y-128975413D01*
X141186094Y-129203655D01*
X141186096Y-129203659D01*
X141186097Y-129203663D01*
X141188852Y-129209571D01*
X141285965Y-129417830D01*
X141285967Y-129417834D01*
X141373844Y-129543334D01*
X141421501Y-129611396D01*
X141421506Y-129611402D01*
X141588597Y-129778493D01*
X141588603Y-129778498D01*
X141774594Y-129908730D01*
X141818219Y-129963307D01*
X141825413Y-130032805D01*
X141793890Y-130095160D01*
X141774595Y-130111880D01*
X141588922Y-130241890D01*
X141588920Y-130241891D01*
X141421891Y-130408920D01*
X141421886Y-130408926D01*
X141286400Y-130602420D01*
X141286399Y-130602422D01*
X141186570Y-130816507D01*
X141186567Y-130816513D01*
X141129364Y-131029999D01*
X141129364Y-131030000D01*
X141846653Y-131030000D01*
X141913692Y-131049685D01*
X141959447Y-131102489D01*
X141969391Y-131171647D01*
X141965631Y-131188933D01*
X141960000Y-131208111D01*
X141960000Y-131351888D01*
X141965631Y-131371067D01*
X141965630Y-131440936D01*
X141927855Y-131499714D01*
X141864299Y-131528738D01*
X141846653Y-131530000D01*
X141129364Y-131530000D01*
X141186567Y-131743486D01*
X141186570Y-131743492D01*
X141286399Y-131957578D01*
X141421894Y-132151082D01*
X141588917Y-132318105D01*
X141782421Y-132453600D01*
X141996507Y-132553429D01*
X141996516Y-132553433D01*
X142210000Y-132610634D01*
X142210000Y-131892301D01*
X142229685Y-131825262D01*
X142282489Y-131779507D01*
X142351647Y-131769563D01*
X142424237Y-131780000D01*
X142424238Y-131780000D01*
X142495762Y-131780000D01*
X142495763Y-131780000D01*
X142568353Y-131769563D01*
X142637512Y-131779507D01*
X142690315Y-131825262D01*
X142710000Y-131892301D01*
X142710000Y-132610633D01*
X142923483Y-132553433D01*
X142923492Y-132553429D01*
X143137578Y-132453600D01*
X143331082Y-132318105D01*
X143498105Y-132151082D01*
X143628425Y-131964968D01*
X143683002Y-131921344D01*
X143752501Y-131914151D01*
X143814855Y-131945673D01*
X143831575Y-131964968D01*
X143961894Y-132151082D01*
X144128917Y-132318105D01*
X144322421Y-132453600D01*
X144536507Y-132553429D01*
X144536516Y-132553433D01*
X144750000Y-132610634D01*
X144750000Y-131892301D01*
X144769685Y-131825262D01*
X144822489Y-131779507D01*
X144891647Y-131769563D01*
X144964237Y-131780000D01*
X144964238Y-131780000D01*
X145035762Y-131780000D01*
X145035763Y-131780000D01*
X145108353Y-131769563D01*
X145177512Y-131779507D01*
X145230315Y-131825262D01*
X145250000Y-131892301D01*
X145250000Y-132610633D01*
X145463483Y-132553433D01*
X145463492Y-132553429D01*
X145677578Y-132453600D01*
X145871082Y-132318105D01*
X145939182Y-132250005D01*
X155244859Y-132250005D01*
X155265385Y-132497729D01*
X155265387Y-132497738D01*
X155326412Y-132738717D01*
X155426266Y-132966364D01*
X155526564Y-133119882D01*
X156101482Y-132544964D01*
X156162805Y-132511479D01*
X156232496Y-132516463D01*
X156288430Y-132558334D01*
X156291514Y-132563249D01*
X156291549Y-132563225D01*
X156296441Y-132570156D01*
X156399637Y-132680651D01*
X156399638Y-132680652D01*
X156434698Y-132701973D01*
X156481749Y-132753623D01*
X156493407Y-132822513D01*
X156465970Y-132886770D01*
X156457950Y-132895601D01*
X155879942Y-133473609D01*
X155926768Y-133510055D01*
X155926770Y-133510056D01*
X156145385Y-133628364D01*
X156145396Y-133628369D01*
X156380506Y-133709083D01*
X156625707Y-133750000D01*
X156874293Y-133750000D01*
X157119493Y-133709083D01*
X157354603Y-133628369D01*
X157354614Y-133628364D01*
X157573228Y-133510057D01*
X157573231Y-133510055D01*
X157620056Y-133473609D01*
X157043165Y-132896718D01*
X157009680Y-132835395D01*
X157014664Y-132765703D01*
X157052588Y-132712853D01*
X157155739Y-132628934D01*
X157206052Y-132557655D01*
X157260793Y-132514239D01*
X157330318Y-132507310D01*
X157392553Y-132539068D01*
X157395037Y-132541484D01*
X157973434Y-133119882D01*
X158073731Y-132966369D01*
X158173587Y-132738717D01*
X158234612Y-132497738D01*
X158234614Y-132497729D01*
X158255141Y-132250005D01*
X158255141Y-132249994D01*
X158234614Y-132002270D01*
X158234612Y-132002261D01*
X158173587Y-131761282D01*
X158073731Y-131533630D01*
X157973434Y-131380116D01*
X157398517Y-131955034D01*
X157337194Y-131988519D01*
X157267502Y-131983535D01*
X157211569Y-131941663D01*
X157208486Y-131936750D01*
X157208451Y-131936775D01*
X157203558Y-131929843D01*
X157148661Y-131871064D01*
X157100362Y-131819348D01*
X157065300Y-131798026D01*
X157018248Y-131746374D01*
X157006591Y-131677484D01*
X157034029Y-131613227D01*
X157042048Y-131604397D01*
X157620056Y-131026389D01*
X157573229Y-130989943D01*
X157354614Y-130871635D01*
X157354603Y-130871630D01*
X157119493Y-130790916D01*
X156874293Y-130750000D01*
X156625707Y-130750000D01*
X156380506Y-130790916D01*
X156145396Y-130871630D01*
X156145390Y-130871632D01*
X155926761Y-130989949D01*
X155879942Y-131026388D01*
X155879942Y-131026390D01*
X156456833Y-131603280D01*
X156490318Y-131664603D01*
X156485334Y-131734294D01*
X156447408Y-131787148D01*
X156344262Y-131871064D01*
X156344258Y-131871069D01*
X156293947Y-131942343D01*
X156239204Y-131985760D01*
X156169679Y-131992689D01*
X156107444Y-131960930D01*
X156104962Y-131958515D01*
X155526564Y-131380116D01*
X155426267Y-131533632D01*
X155326412Y-131761282D01*
X155265387Y-132002261D01*
X155265385Y-132002270D01*
X155244859Y-132249994D01*
X155244859Y-132250005D01*
X145939182Y-132250005D01*
X146038105Y-132151082D01*
X146173600Y-131957578D01*
X146273429Y-131743492D01*
X146273432Y-131743486D01*
X146330636Y-131530000D01*
X145613347Y-131530000D01*
X145546308Y-131510315D01*
X145500553Y-131457511D01*
X145490609Y-131388353D01*
X145494369Y-131371067D01*
X145500000Y-131351888D01*
X145500000Y-131208111D01*
X145494369Y-131188933D01*
X145494370Y-131119064D01*
X145532145Y-131060286D01*
X145595701Y-131031262D01*
X145613347Y-131030000D01*
X146330636Y-131030000D01*
X146330635Y-131029999D01*
X146273432Y-130816513D01*
X146273429Y-130816507D01*
X146173600Y-130602422D01*
X146173599Y-130602420D01*
X146038113Y-130408926D01*
X146038108Y-130408920D01*
X145871078Y-130241890D01*
X145685405Y-130111879D01*
X145641780Y-130057302D01*
X145634588Y-129987804D01*
X145666110Y-129925449D01*
X145685406Y-129908730D01*
X145871401Y-129778495D01*
X146038495Y-129611401D01*
X146174035Y-129417830D01*
X146273903Y-129203663D01*
X146335063Y-128975408D01*
X146355659Y-128740000D01*
X146335063Y-128504592D01*
X146283064Y-128310525D01*
X146273905Y-128276344D01*
X146273904Y-128276343D01*
X146273903Y-128276337D01*
X146174035Y-128062171D01*
X146168425Y-128054158D01*
X146038494Y-127868597D01*
X145919901Y-127750005D01*
X155244357Y-127750005D01*
X155264890Y-127997812D01*
X155264892Y-127997824D01*
X155325936Y-128238881D01*
X155425826Y-128466606D01*
X155561833Y-128674782D01*
X155561836Y-128674785D01*
X155730256Y-128857738D01*
X155926491Y-129010474D01*
X156145190Y-129128828D01*
X156380386Y-129209571D01*
X156625665Y-129250500D01*
X156874335Y-129250500D01*
X157119614Y-129209571D01*
X157354810Y-129128828D01*
X157573509Y-129010474D01*
X157769744Y-128857738D01*
X157938164Y-128674785D01*
X158074173Y-128466607D01*
X158174063Y-128238881D01*
X158235108Y-127997821D01*
X158239450Y-127945423D01*
X158255643Y-127750005D01*
X158255643Y-127749994D01*
X158235109Y-127502187D01*
X158235107Y-127502175D01*
X158174063Y-127261118D01*
X158074173Y-127033393D01*
X157938166Y-126825217D01*
X157915897Y-126801027D01*
X157769744Y-126642262D01*
X157573509Y-126489526D01*
X157573507Y-126489525D01*
X157573506Y-126489524D01*
X157354811Y-126371172D01*
X157354802Y-126371169D01*
X157119616Y-126290429D01*
X156874335Y-126249500D01*
X156625665Y-126249500D01*
X156380383Y-126290429D01*
X156145197Y-126371169D01*
X156145188Y-126371172D01*
X155926493Y-126489524D01*
X155730257Y-126642261D01*
X155730256Y-126642262D01*
X155726028Y-126646855D01*
X155561833Y-126825217D01*
X155425826Y-127033393D01*
X155325936Y-127261118D01*
X155264892Y-127502175D01*
X155264890Y-127502187D01*
X155244357Y-127749994D01*
X155244357Y-127750005D01*
X145919901Y-127750005D01*
X145871402Y-127701506D01*
X145871401Y-127701505D01*
X145723157Y-127597703D01*
X145685841Y-127571574D01*
X145642216Y-127516997D01*
X145635024Y-127447498D01*
X145666546Y-127385144D01*
X145685836Y-127368428D01*
X145871401Y-127238495D01*
X146038495Y-127071401D01*
X146174035Y-126877830D01*
X146273903Y-126663663D01*
X146335063Y-126435408D01*
X146355659Y-126200000D01*
X146335063Y-125964592D01*
X146278140Y-125752151D01*
X146273905Y-125736344D01*
X146273904Y-125736343D01*
X146273903Y-125736337D01*
X146174035Y-125522171D01*
X146168425Y-125514158D01*
X146038494Y-125328597D01*
X145871402Y-125161506D01*
X145871396Y-125161501D01*
X145685842Y-125031575D01*
X145642217Y-124976998D01*
X145635023Y-124907500D01*
X145666546Y-124845145D01*
X145685842Y-124828425D01*
X145708026Y-124812891D01*
X145871401Y-124698495D01*
X146038495Y-124531401D01*
X146174035Y-124337830D01*
X146273903Y-124123663D01*
X146335063Y-123895408D01*
X146355659Y-123660000D01*
X146335063Y-123424592D01*
X146273903Y-123196337D01*
X146174035Y-122982171D01*
X146168425Y-122974158D01*
X146038494Y-122788597D01*
X145871402Y-122621506D01*
X145871401Y-122621505D01*
X145685842Y-122491575D01*
X145685841Y-122491574D01*
X145642216Y-122436997D01*
X145635024Y-122367498D01*
X145666546Y-122305144D01*
X145685836Y-122288428D01*
X145871401Y-122158495D01*
X146038495Y-121991401D01*
X146174035Y-121797830D01*
X146273903Y-121583663D01*
X146285870Y-121539000D01*
X158479540Y-121539000D01*
X158499326Y-121727256D01*
X158499327Y-121727259D01*
X158557818Y-121907277D01*
X158557821Y-121907284D01*
X158652467Y-122071216D01*
X158735898Y-122163875D01*
X158779129Y-122211888D01*
X158932265Y-122323148D01*
X158932270Y-122323151D01*
X159105192Y-122400142D01*
X159105197Y-122400144D01*
X159290354Y-122439500D01*
X159290355Y-122439500D01*
X159479644Y-122439500D01*
X159479646Y-122439500D01*
X159664803Y-122400144D01*
X159837730Y-122323151D01*
X159990871Y-122211888D01*
X160117533Y-122071216D01*
X160204837Y-121920000D01*
X161273540Y-121920000D01*
X161293326Y-122108256D01*
X161293327Y-122108259D01*
X161351818Y-122288277D01*
X161351821Y-122288284D01*
X161446467Y-122452216D01*
X161517891Y-122531540D01*
X161573129Y-122592888D01*
X161726265Y-122704148D01*
X161726270Y-122704151D01*
X161899192Y-122781142D01*
X161899197Y-122781144D01*
X162084354Y-122820500D01*
X162084355Y-122820500D01*
X162273644Y-122820500D01*
X162273646Y-122820500D01*
X162458803Y-122781144D01*
X162631730Y-122704151D01*
X162784871Y-122592888D01*
X162911533Y-122452216D01*
X163006179Y-122288284D01*
X163064674Y-122108256D01*
X163084460Y-121920000D01*
X163064674Y-121731744D01*
X163006179Y-121551716D01*
X162911533Y-121387784D01*
X162784871Y-121247112D01*
X162780168Y-121243695D01*
X162631734Y-121135851D01*
X162631729Y-121135848D01*
X162458807Y-121058857D01*
X162458802Y-121058855D01*
X162313001Y-121027865D01*
X162273646Y-121019500D01*
X162084354Y-121019500D01*
X162051897Y-121026398D01*
X161899197Y-121058855D01*
X161899192Y-121058857D01*
X161726270Y-121135848D01*
X161726265Y-121135851D01*
X161573129Y-121247111D01*
X161446466Y-121387785D01*
X161351821Y-121551715D01*
X161351818Y-121551722D01*
X161326998Y-121628112D01*
X161293326Y-121731744D01*
X161273540Y-121920000D01*
X160204837Y-121920000D01*
X160212179Y-121907284D01*
X160270674Y-121727256D01*
X160290460Y-121539000D01*
X160270674Y-121350744D01*
X160212179Y-121170716D01*
X160117533Y-121006784D01*
X159990871Y-120866112D01*
X159971028Y-120851695D01*
X159837734Y-120754851D01*
X159837729Y-120754848D01*
X159664807Y-120677857D01*
X159664802Y-120677855D01*
X159512009Y-120645379D01*
X159479646Y-120638500D01*
X159290354Y-120638500D01*
X159266200Y-120643634D01*
X159105197Y-120677855D01*
X159105192Y-120677857D01*
X158932270Y-120754848D01*
X158932265Y-120754851D01*
X158779129Y-120866111D01*
X158652466Y-121006785D01*
X158557821Y-121170715D01*
X158557818Y-121170722D01*
X158502910Y-121339714D01*
X158499326Y-121350744D01*
X158479540Y-121539000D01*
X146285870Y-121539000D01*
X146335063Y-121355408D01*
X146355659Y-121120000D01*
X146335063Y-120884592D01*
X146273903Y-120656337D01*
X146174035Y-120442171D01*
X146168731Y-120434595D01*
X146038494Y-120248597D01*
X145871402Y-120081506D01*
X145871401Y-120081505D01*
X145688934Y-119953740D01*
X145685405Y-119951269D01*
X145641781Y-119896692D01*
X145634588Y-119827193D01*
X145666110Y-119764839D01*
X145685405Y-119748119D01*
X145871082Y-119618105D01*
X146038105Y-119451082D01*
X146173600Y-119257578D01*
X146273429Y-119043492D01*
X146273432Y-119043486D01*
X146330636Y-118830000D01*
X145613347Y-118830000D01*
X145546308Y-118810315D01*
X145500553Y-118757511D01*
X145490609Y-118688353D01*
X145494369Y-118671067D01*
X145500000Y-118651888D01*
X145500000Y-118508111D01*
X145494369Y-118488933D01*
X145494370Y-118419064D01*
X145532145Y-118360286D01*
X145595701Y-118331262D01*
X145613347Y-118330000D01*
X146330636Y-118330000D01*
X146330635Y-118329999D01*
X146305716Y-118237000D01*
X157971540Y-118237000D01*
X157991326Y-118425256D01*
X157991327Y-118425259D01*
X158049818Y-118605277D01*
X158049821Y-118605284D01*
X158144467Y-118769216D01*
X158253221Y-118889999D01*
X158271129Y-118909888D01*
X158424265Y-119021148D01*
X158424270Y-119021151D01*
X158597192Y-119098142D01*
X158597197Y-119098144D01*
X158782354Y-119137500D01*
X158782355Y-119137500D01*
X158971644Y-119137500D01*
X158971646Y-119137500D01*
X159156803Y-119098144D01*
X159329730Y-119021151D01*
X159482871Y-118909888D01*
X159609533Y-118769216D01*
X159704179Y-118605284D01*
X159762674Y-118425256D01*
X159782460Y-118237000D01*
X159762674Y-118048744D01*
X159704179Y-117868716D01*
X159609533Y-117704784D01*
X159482871Y-117564112D01*
X159452285Y-117541890D01*
X159329734Y-117452851D01*
X159329729Y-117452848D01*
X159156807Y-117375857D01*
X159156802Y-117375855D01*
X159011000Y-117344865D01*
X158971646Y-117336500D01*
X158782354Y-117336500D01*
X158749897Y-117343398D01*
X158597197Y-117375855D01*
X158597192Y-117375857D01*
X158424270Y-117452848D01*
X158424265Y-117452851D01*
X158271129Y-117564111D01*
X158144466Y-117704785D01*
X158049821Y-117868715D01*
X158049818Y-117868722D01*
X157996045Y-118034219D01*
X157991326Y-118048744D01*
X157971540Y-118237000D01*
X146305716Y-118237000D01*
X146273432Y-118116513D01*
X146273429Y-118116507D01*
X146173600Y-117902422D01*
X146173599Y-117902420D01*
X146038113Y-117708926D01*
X146038108Y-117708920D01*
X145871078Y-117541890D01*
X145685405Y-117411879D01*
X145641780Y-117357302D01*
X145634588Y-117287804D01*
X145666110Y-117225449D01*
X145685406Y-117208730D01*
X145871401Y-117078495D01*
X146038495Y-116911401D01*
X146174035Y-116717830D01*
X146273903Y-116503663D01*
X146335063Y-116275408D01*
X146355659Y-116040000D01*
X146335063Y-115804592D01*
X146273903Y-115576337D01*
X146174035Y-115362171D01*
X146168425Y-115354158D01*
X146038494Y-115168597D01*
X145871402Y-115001506D01*
X145871396Y-115001501D01*
X145685842Y-114871575D01*
X145642217Y-114816998D01*
X145635023Y-114747500D01*
X145666546Y-114685145D01*
X145685842Y-114668425D01*
X145708026Y-114652891D01*
X145871401Y-114538495D01*
X146038495Y-114371401D01*
X146174035Y-114177830D01*
X146273903Y-113963663D01*
X146335063Y-113735408D01*
X146341223Y-113665000D01*
X157717540Y-113665000D01*
X157737326Y-113853256D01*
X157737327Y-113853259D01*
X157795818Y-114033277D01*
X157795821Y-114033284D01*
X157890467Y-114197216D01*
X158017128Y-114337888D01*
X158017129Y-114337888D01*
X158170265Y-114449148D01*
X158170270Y-114449151D01*
X158343192Y-114526142D01*
X158343197Y-114526144D01*
X158528354Y-114565500D01*
X158528355Y-114565500D01*
X158717644Y-114565500D01*
X158717646Y-114565500D01*
X158902803Y-114526144D01*
X159075730Y-114449151D01*
X159228871Y-114337888D01*
X159355533Y-114197216D01*
X159450179Y-114033284D01*
X159508674Y-113853256D01*
X159528460Y-113665000D01*
X159508674Y-113476744D01*
X159450179Y-113296716D01*
X159355533Y-113132784D01*
X159228871Y-112992112D01*
X159228870Y-112992111D01*
X159075734Y-112880851D01*
X159075729Y-112880848D01*
X158902807Y-112803857D01*
X158902802Y-112803855D01*
X158757001Y-112772865D01*
X158717646Y-112764500D01*
X158528354Y-112764500D01*
X158495897Y-112771398D01*
X158343197Y-112803855D01*
X158343192Y-112803857D01*
X158170270Y-112880848D01*
X158170265Y-112880851D01*
X158017129Y-112992111D01*
X157890466Y-113132785D01*
X157795821Y-113296715D01*
X157795818Y-113296722D01*
X157737327Y-113476740D01*
X157737326Y-113476744D01*
X157717540Y-113665000D01*
X146341223Y-113665000D01*
X146355659Y-113500000D01*
X146335063Y-113264592D01*
X146273903Y-113036337D01*
X146174035Y-112822171D01*
X146172354Y-112819769D01*
X146038494Y-112628597D01*
X145871402Y-112461506D01*
X145871395Y-112461501D01*
X145677834Y-112325967D01*
X145677830Y-112325965D01*
X145611998Y-112295267D01*
X145463663Y-112226097D01*
X145463659Y-112226096D01*
X145463655Y-112226094D01*
X145235413Y-112164938D01*
X145235403Y-112164936D01*
X145000001Y-112144341D01*
X144999999Y-112144341D01*
X144764596Y-112164936D01*
X144764586Y-112164938D01*
X144536344Y-112226094D01*
X144536335Y-112226098D01*
X144322171Y-112325964D01*
X144322169Y-112325965D01*
X144128600Y-112461503D01*
X144006673Y-112583430D01*
X143945350Y-112616914D01*
X143875658Y-112611930D01*
X143819725Y-112570058D01*
X143802810Y-112539081D01*
X143753797Y-112407671D01*
X143753793Y-112407664D01*
X143667547Y-112292455D01*
X143667544Y-112292452D01*
X143552335Y-112206206D01*
X143552328Y-112206202D01*
X143417482Y-112155908D01*
X143417483Y-112155908D01*
X143357883Y-112149501D01*
X143357881Y-112149500D01*
X143357873Y-112149500D01*
X143357864Y-112149500D01*
X141562129Y-112149500D01*
X141562123Y-112149501D01*
X141502516Y-112155908D01*
X141367671Y-112206202D01*
X141367664Y-112206206D01*
X141252455Y-112292452D01*
X141252452Y-112292455D01*
X141166206Y-112407664D01*
X141166202Y-112407671D01*
X141115908Y-112542517D01*
X141109501Y-112602116D01*
X141109500Y-112602135D01*
X141109500Y-114397870D01*
X141109501Y-114397876D01*
X141115908Y-114457483D01*
X141166202Y-114592328D01*
X141166206Y-114592335D01*
X141252452Y-114707544D01*
X141252455Y-114707547D01*
X141367664Y-114793793D01*
X141367671Y-114793797D01*
X141499081Y-114842810D01*
X141555015Y-114884681D01*
X141579432Y-114950145D01*
X141564580Y-115018418D01*
X141543430Y-115046673D01*
X141421503Y-115168600D01*
X141285965Y-115362169D01*
X141285964Y-115362171D01*
X141186098Y-115576335D01*
X141186094Y-115576344D01*
X141124938Y-115804586D01*
X141124936Y-115804596D01*
X141104341Y-116039999D01*
X141104341Y-116040000D01*
X141124936Y-116275403D01*
X141124938Y-116275413D01*
X141186094Y-116503655D01*
X141187947Y-116508744D01*
X141186757Y-116509177D01*
X141196323Y-116572180D01*
X141167799Y-116635962D01*
X141109321Y-116674198D01*
X141073450Y-116679500D01*
X134450164Y-116679500D01*
X134383125Y-116659815D01*
X134362483Y-116643181D01*
X131572558Y-113853256D01*
X128686125Y-110966824D01*
X128652641Y-110905502D01*
X128657625Y-110835810D01*
X128699497Y-110779877D01*
X128717169Y-110769505D01*
X128717107Y-110769397D01*
X128722724Y-110766153D01*
X128722730Y-110766151D01*
X128875871Y-110654888D01*
X129002533Y-110514216D01*
X129056571Y-110420618D01*
X129107136Y-110372405D01*
X129175743Y-110359181D01*
X129240608Y-110385149D01*
X129251637Y-110394939D01*
X131205611Y-112348912D01*
X131208163Y-112351624D01*
X131247772Y-112396333D01*
X131296932Y-112430265D01*
X131299949Y-112432486D01*
X131336984Y-112461501D01*
X131346972Y-112469326D01*
X131355515Y-112473171D01*
X131375067Y-112484198D01*
X131382774Y-112489518D01*
X131438639Y-112510705D01*
X131442070Y-112512126D01*
X131496561Y-112536650D01*
X131505776Y-112538338D01*
X131527389Y-112544363D01*
X131536155Y-112547688D01*
X131595471Y-112554890D01*
X131599158Y-112555451D01*
X131657915Y-112566219D01*
X131657916Y-112566218D01*
X131657917Y-112566219D01*
X131717534Y-112562613D01*
X131721278Y-112562500D01*
X133723434Y-112562500D01*
X133790473Y-112582185D01*
X133796319Y-112586182D01*
X133913265Y-112671148D01*
X133913270Y-112671151D01*
X134086192Y-112748142D01*
X134086197Y-112748144D01*
X134271354Y-112787500D01*
X134271355Y-112787500D01*
X134460644Y-112787500D01*
X134460646Y-112787500D01*
X134645803Y-112748144D01*
X134818730Y-112671151D01*
X134971871Y-112559888D01*
X135098533Y-112419216D01*
X135193179Y-112255284D01*
X135251674Y-112075256D01*
X135266941Y-111930000D01*
X175691634Y-111930000D01*
X175691931Y-111931946D01*
X175691933Y-111931952D01*
X175762562Y-112122657D01*
X175762565Y-112122664D01*
X175870149Y-112295267D01*
X176010264Y-112442668D01*
X176010266Y-112442669D01*
X176177195Y-112558856D01*
X176364092Y-112639059D01*
X176563310Y-112680000D01*
X177104616Y-112680000D01*
X177171655Y-112699685D01*
X177217410Y-112752489D01*
X177227354Y-112821647D01*
X177219177Y-112851453D01*
X177174313Y-112959763D01*
X177174312Y-112959765D01*
X177154534Y-113109999D01*
X177154534Y-113110000D01*
X177174312Y-113260234D01*
X177174313Y-113260236D01*
X177227586Y-113388849D01*
X177232302Y-113400233D01*
X177324549Y-113520451D01*
X177444767Y-113612698D01*
X177584764Y-113670687D01*
X177697280Y-113685500D01*
X177697287Y-113685500D01*
X177772713Y-113685500D01*
X177772720Y-113685500D01*
X177885236Y-113670687D01*
X178025233Y-113612698D01*
X178145451Y-113520451D01*
X178237698Y-113400233D01*
X178295687Y-113260236D01*
X178315466Y-113110000D01*
X178295687Y-112959764D01*
X178237698Y-112819767D01*
X178237697Y-112819765D01*
X178186187Y-112752637D01*
X178160992Y-112687468D01*
X178175030Y-112619023D01*
X178223844Y-112569033D01*
X178224385Y-112568731D01*
X178339211Y-112504997D01*
X178339216Y-112504994D01*
X178493530Y-112372521D01*
X178493531Y-112372520D01*
X178618018Y-112211695D01*
X178707588Y-112029093D01*
X178733246Y-111930000D01*
X180041634Y-111930000D01*
X180041931Y-111931946D01*
X180041933Y-111931952D01*
X180112562Y-112122657D01*
X180112565Y-112122664D01*
X180220149Y-112295267D01*
X180360264Y-112442668D01*
X180360266Y-112442669D01*
X180527195Y-112558856D01*
X180714092Y-112639059D01*
X180913310Y-112680000D01*
X181165000Y-112680000D01*
X181165000Y-112104000D01*
X181184685Y-112036961D01*
X181237489Y-111991206D01*
X181289000Y-111980000D01*
X181541000Y-111980000D01*
X181608039Y-111999685D01*
X181653794Y-112052489D01*
X181665000Y-112104000D01*
X181665000Y-112680000D01*
X181865713Y-112680000D01*
X182017338Y-112664581D01*
X182211381Y-112603700D01*
X182211391Y-112603695D01*
X182389215Y-112504994D01*
X182389216Y-112504994D01*
X182543530Y-112372521D01*
X182543531Y-112372520D01*
X182668018Y-112211695D01*
X182757588Y-112029093D01*
X182783246Y-111930000D01*
X182219979Y-111930000D01*
X182152940Y-111910315D01*
X182107185Y-111857511D01*
X182097241Y-111788353D01*
X182100713Y-111772066D01*
X182118894Y-111708162D01*
X182118895Y-111708160D01*
X182108546Y-111596482D01*
X182108546Y-111596479D01*
X182108544Y-111596475D01*
X182106115Y-111587937D01*
X182106701Y-111518070D01*
X182144966Y-111459610D01*
X182208763Y-111431119D01*
X182225381Y-111430000D01*
X182788366Y-111430000D01*
X182788068Y-111428053D01*
X182788066Y-111428047D01*
X182717437Y-111237342D01*
X182717434Y-111237335D01*
X182609850Y-111064732D01*
X182469735Y-110917331D01*
X182469733Y-110917330D01*
X182302804Y-110801143D01*
X182115907Y-110720940D01*
X181916690Y-110680000D01*
X181665000Y-110680000D01*
X181665000Y-111256000D01*
X181645315Y-111323039D01*
X181592511Y-111368794D01*
X181541000Y-111380000D01*
X181289000Y-111380000D01*
X181221961Y-111360315D01*
X181176206Y-111307511D01*
X181165000Y-111256000D01*
X181165000Y-110680000D01*
X180964287Y-110680000D01*
X180812661Y-110695418D01*
X180618618Y-110756299D01*
X180618608Y-110756304D01*
X180440784Y-110855005D01*
X180440783Y-110855005D01*
X180286469Y-110987478D01*
X180286468Y-110987479D01*
X180161981Y-111148304D01*
X180072411Y-111330906D01*
X180046754Y-111430000D01*
X180610021Y-111430000D01*
X180677060Y-111449685D01*
X180722815Y-111502489D01*
X180732759Y-111571647D01*
X180729287Y-111587934D01*
X180711105Y-111651837D01*
X180711104Y-111651837D01*
X180721453Y-111763517D01*
X180723885Y-111772063D01*
X180723299Y-111841930D01*
X180685034Y-111900390D01*
X180621237Y-111928881D01*
X180604619Y-111930000D01*
X180041634Y-111930000D01*
X178733246Y-111930000D01*
X178169979Y-111930000D01*
X178102940Y-111910315D01*
X178057185Y-111857511D01*
X178047241Y-111788353D01*
X178050713Y-111772066D01*
X178068894Y-111708162D01*
X178068895Y-111708160D01*
X178058546Y-111596482D01*
X178058546Y-111596479D01*
X178058544Y-111596475D01*
X178056115Y-111587937D01*
X178056701Y-111518070D01*
X178094966Y-111459610D01*
X178158763Y-111431119D01*
X178175381Y-111430000D01*
X178738366Y-111430000D01*
X178738068Y-111428053D01*
X178738066Y-111428047D01*
X178667437Y-111237342D01*
X178667434Y-111237335D01*
X178559850Y-111064732D01*
X178419735Y-110917331D01*
X178419733Y-110917330D01*
X178252804Y-110801143D01*
X178065907Y-110720940D01*
X177866690Y-110680000D01*
X177465000Y-110680000D01*
X177465000Y-111256000D01*
X177445315Y-111323039D01*
X177392511Y-111368794D01*
X177341000Y-111380000D01*
X177089000Y-111380000D01*
X177021961Y-111360315D01*
X176976206Y-111307511D01*
X176965000Y-111256000D01*
X176965000Y-110680000D01*
X176614287Y-110680000D01*
X176462661Y-110695418D01*
X176268618Y-110756299D01*
X176268608Y-110756304D01*
X176090784Y-110855005D01*
X176090783Y-110855005D01*
X175936469Y-110987478D01*
X175936468Y-110987479D01*
X175811981Y-111148304D01*
X175722411Y-111330906D01*
X175696754Y-111430000D01*
X176260021Y-111430000D01*
X176327060Y-111449685D01*
X176372815Y-111502489D01*
X176382759Y-111571647D01*
X176379287Y-111587934D01*
X176361105Y-111651837D01*
X176361104Y-111651837D01*
X176371453Y-111763517D01*
X176373885Y-111772063D01*
X176373299Y-111841930D01*
X176335034Y-111900390D01*
X176271237Y-111928881D01*
X176254619Y-111930000D01*
X175691634Y-111930000D01*
X135266941Y-111930000D01*
X135271460Y-111887000D01*
X135251674Y-111698744D01*
X135193179Y-111518716D01*
X135098533Y-111354784D01*
X134971871Y-111214112D01*
X134968276Y-111211500D01*
X134818734Y-111102851D01*
X134818729Y-111102848D01*
X134645807Y-111025857D01*
X134645802Y-111025855D01*
X134514750Y-110998000D01*
X168639540Y-110998000D01*
X168659326Y-111186256D01*
X168659327Y-111186259D01*
X168717818Y-111366277D01*
X168717821Y-111366284D01*
X168812467Y-111530216D01*
X168921975Y-111651837D01*
X168939129Y-111670888D01*
X169092265Y-111782148D01*
X169092270Y-111782151D01*
X169265192Y-111859142D01*
X169265197Y-111859144D01*
X169450354Y-111898500D01*
X169450355Y-111898500D01*
X169639644Y-111898500D01*
X169639646Y-111898500D01*
X169824803Y-111859144D01*
X169997730Y-111782151D01*
X170150871Y-111670888D01*
X170277533Y-111530216D01*
X170372179Y-111366284D01*
X170430674Y-111186256D01*
X170450460Y-110998000D01*
X170430674Y-110809744D01*
X170372179Y-110629716D01*
X170277533Y-110465784D01*
X170150871Y-110325112D01*
X170150870Y-110325111D01*
X169997734Y-110213851D01*
X169997729Y-110213848D01*
X169824807Y-110136857D01*
X169824802Y-110136855D01*
X169679000Y-110105865D01*
X169639646Y-110097500D01*
X169450354Y-110097500D01*
X169417897Y-110104398D01*
X169265197Y-110136855D01*
X169265192Y-110136857D01*
X169092270Y-110213848D01*
X169092265Y-110213851D01*
X168939129Y-110325111D01*
X168812466Y-110465785D01*
X168717821Y-110629715D01*
X168717818Y-110629722D01*
X168659327Y-110809740D01*
X168659326Y-110809744D01*
X168639540Y-110998000D01*
X134514750Y-110998000D01*
X134500001Y-110994865D01*
X134460646Y-110986500D01*
X134271354Y-110986500D01*
X134238897Y-110993398D01*
X134086197Y-111025855D01*
X134029192Y-111051236D01*
X133959942Y-111060520D01*
X133896666Y-111030892D01*
X133859453Y-110971756D01*
X133855436Y-110925000D01*
X133874460Y-110744000D01*
X133854674Y-110555744D01*
X133796179Y-110375716D01*
X133701533Y-110211784D01*
X133574871Y-110071112D01*
X133574870Y-110071111D01*
X133421734Y-109959851D01*
X133421729Y-109959848D01*
X133248807Y-109882857D01*
X133248802Y-109882855D01*
X133103000Y-109851865D01*
X133063646Y-109843500D01*
X132874354Y-109843500D01*
X132841897Y-109850398D01*
X132689197Y-109882855D01*
X132689192Y-109882857D01*
X132516270Y-109959848D01*
X132516265Y-109959851D01*
X132363129Y-110071111D01*
X132363128Y-110071112D01*
X132305975Y-110134587D01*
X132246489Y-110171235D01*
X132176632Y-110169904D01*
X132118584Y-110131017D01*
X132090774Y-110066920D01*
X132090505Y-110038658D01*
X132096460Y-109982000D01*
X132076674Y-109793744D01*
X132018179Y-109613716D01*
X131923533Y-109449784D01*
X131796871Y-109309112D01*
X131796870Y-109309111D01*
X131643734Y-109197851D01*
X131643729Y-109197848D01*
X131470807Y-109120857D01*
X131470802Y-109120855D01*
X131325001Y-109089865D01*
X131285646Y-109081500D01*
X131096354Y-109081500D01*
X131063897Y-109088398D01*
X130911197Y-109120855D01*
X130911192Y-109120857D01*
X130738270Y-109197848D01*
X130738265Y-109197851D01*
X130585129Y-109309111D01*
X130458466Y-109449785D01*
X130450912Y-109462868D01*
X130400343Y-109511082D01*
X130331735Y-109524302D01*
X130266872Y-109498332D01*
X130255846Y-109488545D01*
X129846556Y-109079255D01*
X129398385Y-108631084D01*
X129395851Y-108628392D01*
X129356229Y-108583668D01*
X129307061Y-108549730D01*
X129304051Y-108547515D01*
X129257025Y-108510672D01*
X129257023Y-108510671D01*
X129248476Y-108506824D01*
X129228938Y-108495805D01*
X129221226Y-108490482D01*
X129221224Y-108490481D01*
X129165366Y-108469296D01*
X129161907Y-108467863D01*
X129107440Y-108443350D01*
X129107441Y-108443350D01*
X129100087Y-108442002D01*
X129098222Y-108441660D01*
X129076614Y-108435637D01*
X129067845Y-108432311D01*
X129008529Y-108425108D01*
X129004828Y-108424545D01*
X128946089Y-108413781D01*
X128946082Y-108413781D01*
X128886466Y-108417387D01*
X128882722Y-108417500D01*
X126514278Y-108417500D01*
X126510534Y-108417387D01*
X126450918Y-108413781D01*
X126450909Y-108413781D01*
X126392171Y-108424545D01*
X126388470Y-108425108D01*
X126329156Y-108432311D01*
X126320381Y-108435639D01*
X126298778Y-108441660D01*
X126294259Y-108442488D01*
X126289560Y-108443350D01*
X126235075Y-108467869D01*
X126231618Y-108469301D01*
X126175774Y-108490481D01*
X126175770Y-108490484D01*
X126168056Y-108495808D01*
X126148525Y-108506824D01*
X126139970Y-108510674D01*
X126092943Y-108547517D01*
X126089928Y-108549736D01*
X126040772Y-108583667D01*
X126040769Y-108583670D01*
X126001164Y-108628373D01*
X125998597Y-108631100D01*
X125583928Y-109045770D01*
X125522605Y-109079255D01*
X125509224Y-109081408D01*
X125508359Y-109081498D01*
X125323197Y-109120855D01*
X125323192Y-109120857D01*
X125150270Y-109197848D01*
X125150265Y-109197851D01*
X124997129Y-109309111D01*
X124870466Y-109449785D01*
X124775821Y-109613715D01*
X124775818Y-109613722D01*
X124717327Y-109793740D01*
X124717326Y-109793744D01*
X124697540Y-109982000D01*
X111193594Y-109982000D01*
X111206450Y-107577844D01*
X112950000Y-107577844D01*
X112956401Y-107637372D01*
X112956403Y-107637379D01*
X113006645Y-107772086D01*
X113006649Y-107772093D01*
X113092809Y-107887187D01*
X113092812Y-107887190D01*
X113207906Y-107973350D01*
X113207913Y-107973354D01*
X113342620Y-108023596D01*
X113342627Y-108023598D01*
X113402155Y-108029999D01*
X113402172Y-108030000D01*
X114049999Y-108030000D01*
X114049999Y-107292301D01*
X114069683Y-107225262D01*
X114122487Y-107179507D01*
X114191646Y-107169563D01*
X114198380Y-107170531D01*
X114264237Y-107180000D01*
X114264238Y-107180000D01*
X114335762Y-107180000D01*
X114335763Y-107180000D01*
X114408352Y-107169563D01*
X114477510Y-107179507D01*
X114530314Y-107225261D01*
X114549999Y-107292301D01*
X114549999Y-108029999D01*
X114550000Y-108030000D01*
X115197828Y-108030000D01*
X115197844Y-108029999D01*
X115257372Y-108023598D01*
X115257379Y-108023596D01*
X115392086Y-107973354D01*
X115392093Y-107973350D01*
X115507187Y-107887190D01*
X115507190Y-107887187D01*
X115593350Y-107772093D01*
X115593354Y-107772086D01*
X115642422Y-107640529D01*
X115684293Y-107584595D01*
X115749757Y-107560178D01*
X115818030Y-107575030D01*
X115846285Y-107596181D01*
X115968599Y-107718495D01*
X116030359Y-107761740D01*
X116162165Y-107854032D01*
X116162167Y-107854033D01*
X116162170Y-107854035D01*
X116376337Y-107953903D01*
X116604592Y-108015063D01*
X116775319Y-108030000D01*
X116839999Y-108035659D01*
X116840000Y-108035659D01*
X116840001Y-108035659D01*
X116904681Y-108030000D01*
X117075408Y-108015063D01*
X117303663Y-107953903D01*
X117517830Y-107854035D01*
X117711401Y-107718495D01*
X117878495Y-107551401D01*
X118008426Y-107365841D01*
X118063002Y-107322217D01*
X118132500Y-107315023D01*
X118194855Y-107346546D01*
X118211575Y-107365842D01*
X118341500Y-107551395D01*
X118341505Y-107551401D01*
X118508599Y-107718495D01*
X118570359Y-107761740D01*
X118702165Y-107854032D01*
X118702167Y-107854033D01*
X118702170Y-107854035D01*
X118916337Y-107953903D01*
X119144592Y-108015063D01*
X119315319Y-108030000D01*
X119379999Y-108035659D01*
X119380000Y-108035659D01*
X119380001Y-108035659D01*
X119444681Y-108030000D01*
X119615408Y-108015063D01*
X119843663Y-107953903D01*
X120057830Y-107854035D01*
X120251401Y-107718495D01*
X120418495Y-107551401D01*
X120548426Y-107365840D01*
X120603001Y-107322217D01*
X120672499Y-107315023D01*
X120734854Y-107346546D01*
X120751574Y-107365841D01*
X120881505Y-107551401D01*
X121048599Y-107718495D01*
X121110359Y-107761740D01*
X121242165Y-107854032D01*
X121242167Y-107854033D01*
X121242170Y-107854035D01*
X121456337Y-107953903D01*
X121684592Y-108015063D01*
X121855319Y-108030000D01*
X121919999Y-108035659D01*
X121920000Y-108035659D01*
X121920001Y-108035659D01*
X121984681Y-108030000D01*
X122155408Y-108015063D01*
X122383663Y-107953903D01*
X122597830Y-107854035D01*
X122791401Y-107718495D01*
X122958495Y-107551401D01*
X123088426Y-107365841D01*
X123143002Y-107322217D01*
X123212500Y-107315023D01*
X123274855Y-107346546D01*
X123291575Y-107365842D01*
X123421500Y-107551395D01*
X123421505Y-107551401D01*
X123588599Y-107718495D01*
X123650359Y-107761740D01*
X123782165Y-107854032D01*
X123782167Y-107854033D01*
X123782170Y-107854035D01*
X123996337Y-107953903D01*
X124224592Y-108015063D01*
X124395319Y-108030000D01*
X124459999Y-108035659D01*
X124460000Y-108035659D01*
X124460001Y-108035659D01*
X124524681Y-108030000D01*
X124695408Y-108015063D01*
X124923663Y-107953903D01*
X125137830Y-107854035D01*
X125331401Y-107718495D01*
X125498495Y-107551401D01*
X125628426Y-107365840D01*
X125683001Y-107322217D01*
X125752499Y-107315023D01*
X125814854Y-107346546D01*
X125831574Y-107365841D01*
X125961505Y-107551401D01*
X126128599Y-107718495D01*
X126190359Y-107761740D01*
X126322165Y-107854032D01*
X126322167Y-107854033D01*
X126322170Y-107854035D01*
X126536337Y-107953903D01*
X126764592Y-108015063D01*
X126935319Y-108030000D01*
X126999999Y-108035659D01*
X127000000Y-108035659D01*
X127000001Y-108035659D01*
X127064681Y-108030000D01*
X127235408Y-108015063D01*
X127463663Y-107953903D01*
X127677830Y-107854035D01*
X127871401Y-107718495D01*
X128038495Y-107551401D01*
X128168426Y-107365841D01*
X128223002Y-107322217D01*
X128292500Y-107315023D01*
X128354855Y-107346546D01*
X128371575Y-107365842D01*
X128501500Y-107551395D01*
X128501505Y-107551401D01*
X128668599Y-107718495D01*
X128730359Y-107761740D01*
X128862165Y-107854032D01*
X128862167Y-107854033D01*
X128862170Y-107854035D01*
X129076337Y-107953903D01*
X129304592Y-108015063D01*
X129475319Y-108030000D01*
X129539999Y-108035659D01*
X129540000Y-108035659D01*
X129540001Y-108035659D01*
X129604681Y-108030000D01*
X129775408Y-108015063D01*
X130003663Y-107953903D01*
X130012033Y-107950000D01*
X173084540Y-107950000D01*
X173104326Y-108138256D01*
X173104327Y-108138259D01*
X173162818Y-108318277D01*
X173162821Y-108318284D01*
X173257467Y-108482216D01*
X173348814Y-108583667D01*
X173384129Y-108622888D01*
X173537265Y-108734148D01*
X173537270Y-108734151D01*
X173710192Y-108811142D01*
X173710197Y-108811144D01*
X173895354Y-108850500D01*
X173895355Y-108850500D01*
X174084644Y-108850500D01*
X174084646Y-108850500D01*
X174269803Y-108811144D01*
X174442730Y-108734151D01*
X174595871Y-108622888D01*
X174722533Y-108482216D01*
X174817179Y-108318284D01*
X174875674Y-108138256D01*
X174895460Y-107950000D01*
X174875674Y-107761744D01*
X174817179Y-107581716D01*
X174722533Y-107417784D01*
X174595871Y-107277112D01*
X174595870Y-107277111D01*
X174442734Y-107165851D01*
X174442729Y-107165848D01*
X174269807Y-107088857D01*
X174269802Y-107088855D01*
X174124000Y-107057865D01*
X174084646Y-107049500D01*
X173895354Y-107049500D01*
X173862897Y-107056398D01*
X173710197Y-107088855D01*
X173710192Y-107088857D01*
X173537270Y-107165848D01*
X173537265Y-107165851D01*
X173384129Y-107277111D01*
X173257466Y-107417785D01*
X173162821Y-107581715D01*
X173162818Y-107581722D01*
X173104327Y-107761740D01*
X173104326Y-107761744D01*
X173084540Y-107950000D01*
X130012033Y-107950000D01*
X130217830Y-107854035D01*
X130411401Y-107718495D01*
X130578495Y-107551401D01*
X130714035Y-107357830D01*
X130813903Y-107143663D01*
X130875063Y-106915408D01*
X130895659Y-106680000D01*
X130875063Y-106444592D01*
X130813903Y-106216337D01*
X130714035Y-106002171D01*
X130708425Y-105994158D01*
X130675996Y-105947844D01*
X166100000Y-105947844D01*
X166106401Y-106007372D01*
X166106403Y-106007379D01*
X166156645Y-106142086D01*
X166156649Y-106142093D01*
X166242809Y-106257187D01*
X166242812Y-106257190D01*
X166357906Y-106343350D01*
X166357913Y-106343354D01*
X166492620Y-106393596D01*
X166492627Y-106393598D01*
X166552155Y-106399999D01*
X166552172Y-106400000D01*
X167250000Y-106400000D01*
X167250000Y-105561821D01*
X167269685Y-105494782D01*
X167322489Y-105449027D01*
X167391647Y-105439083D01*
X167410547Y-105443329D01*
X167432173Y-105450000D01*
X167533723Y-105450000D01*
X167533724Y-105450000D01*
X167607519Y-105438877D01*
X167676742Y-105448350D01*
X167729857Y-105493744D01*
X167749997Y-105560648D01*
X167750000Y-105561492D01*
X167750000Y-106400000D01*
X168447828Y-106400000D01*
X168447844Y-106399999D01*
X168507372Y-106393598D01*
X168507379Y-106393596D01*
X168642086Y-106343354D01*
X168642093Y-106343350D01*
X168757187Y-106257190D01*
X168757190Y-106257187D01*
X168843350Y-106142093D01*
X168843355Y-106142084D01*
X168872075Y-106065081D01*
X168913945Y-106009147D01*
X168979409Y-105984729D01*
X169047682Y-105999580D01*
X169079484Y-106024428D01*
X169088216Y-106033913D01*
X169088219Y-106033915D01*
X169088222Y-106033918D01*
X169271365Y-106176464D01*
X169271371Y-106176468D01*
X169271374Y-106176470D01*
X169475497Y-106286936D01*
X169589487Y-106326068D01*
X169695015Y-106362297D01*
X169695017Y-106362297D01*
X169695019Y-106362298D01*
X169923951Y-106400500D01*
X169923952Y-106400500D01*
X170156048Y-106400500D01*
X170156049Y-106400500D01*
X170384981Y-106362298D01*
X170604503Y-106286936D01*
X170808626Y-106176470D01*
X170991784Y-106033913D01*
X171148979Y-105863153D01*
X171275924Y-105668849D01*
X171369157Y-105456300D01*
X171426134Y-105231305D01*
X171426698Y-105224499D01*
X171445300Y-105000006D01*
X171445300Y-105000000D01*
X176294922Y-105000000D01*
X176315219Y-105387287D01*
X176375886Y-105770323D01*
X176375887Y-105770330D01*
X176476262Y-106144936D01*
X176615244Y-106506994D01*
X176791310Y-106852543D01*
X177002531Y-107177793D01*
X177211095Y-107435350D01*
X177211096Y-107435350D01*
X177874250Y-106772195D01*
X177935573Y-106738710D01*
X178005264Y-106743694D01*
X178061198Y-106785565D01*
X178065033Y-106790985D01*
X178067448Y-106794600D01*
X178067449Y-106794601D01*
X178122704Y-106877296D01*
X178199692Y-106928738D01*
X178209012Y-106934965D01*
X178253818Y-106988577D01*
X178262525Y-107057902D01*
X178232371Y-107120929D01*
X178227803Y-107125748D01*
X177564648Y-107788902D01*
X177564649Y-107788904D01*
X177822206Y-107997468D01*
X178147456Y-108208689D01*
X178493005Y-108384755D01*
X178855063Y-108523737D01*
X179229669Y-108624112D01*
X179229676Y-108624113D01*
X179612712Y-108684780D01*
X179999999Y-108705078D01*
X180000001Y-108705078D01*
X180387287Y-108684780D01*
X180770323Y-108624113D01*
X180770330Y-108624112D01*
X181144936Y-108523737D01*
X181506994Y-108384755D01*
X181852543Y-108208689D01*
X182177783Y-107997476D01*
X182177785Y-107997475D01*
X182435349Y-107788902D01*
X181772196Y-107125749D01*
X181738711Y-107064426D01*
X181743695Y-106994734D01*
X181785567Y-106938801D01*
X181790986Y-106934966D01*
X181794599Y-106932551D01*
X181794601Y-106932551D01*
X181877296Y-106877296D01*
X181932551Y-106794601D01*
X181932551Y-106794599D01*
X181934966Y-106790986D01*
X181988578Y-106746181D01*
X182057903Y-106737474D01*
X182120930Y-106767628D01*
X182125749Y-106772196D01*
X182788902Y-107435349D01*
X182997475Y-107177785D01*
X182997476Y-107177783D01*
X183208689Y-106852543D01*
X183384755Y-106506994D01*
X183523737Y-106144936D01*
X183624112Y-105770330D01*
X183624113Y-105770323D01*
X183684780Y-105387287D01*
X183705078Y-105000000D01*
X183705078Y-104999999D01*
X183684780Y-104612712D01*
X183624113Y-104229676D01*
X183624112Y-104229669D01*
X183523737Y-103855063D01*
X183384755Y-103493005D01*
X183208689Y-103147456D01*
X182997468Y-102822206D01*
X182788904Y-102564649D01*
X182788902Y-102564648D01*
X182125748Y-103227803D01*
X182064425Y-103261288D01*
X181994733Y-103256304D01*
X181938800Y-103214432D01*
X181934965Y-103209012D01*
X181877296Y-103122704D01*
X181794601Y-103067449D01*
X181794600Y-103067448D01*
X181790985Y-103065033D01*
X181746180Y-103011421D01*
X181737473Y-102942096D01*
X181767627Y-102879068D01*
X181772195Y-102874250D01*
X182435350Y-102211096D01*
X182435350Y-102211095D01*
X182177793Y-102002531D01*
X181852543Y-101791310D01*
X181506994Y-101615244D01*
X181144936Y-101476262D01*
X180770330Y-101375887D01*
X180770323Y-101375886D01*
X180387287Y-101315219D01*
X180000001Y-101294922D01*
X179999999Y-101294922D01*
X179612712Y-101315219D01*
X179229676Y-101375886D01*
X179229669Y-101375887D01*
X178855063Y-101476262D01*
X178493005Y-101615244D01*
X178147456Y-101791310D01*
X177822206Y-102002531D01*
X177564648Y-102211095D01*
X177564648Y-102211096D01*
X178227803Y-102874251D01*
X178261288Y-102935574D01*
X178256304Y-103005266D01*
X178214432Y-103061199D01*
X178209013Y-103065034D01*
X178122704Y-103122704D01*
X178065034Y-103209013D01*
X178011422Y-103253818D01*
X177942097Y-103262525D01*
X177879069Y-103232370D01*
X177874251Y-103227803D01*
X177211096Y-102564648D01*
X177211095Y-102564648D01*
X177002531Y-102822206D01*
X176791310Y-103147456D01*
X176615244Y-103493005D01*
X176476262Y-103855063D01*
X176375887Y-104229669D01*
X176375886Y-104229676D01*
X176315219Y-104612712D01*
X176294922Y-104999999D01*
X176294922Y-105000000D01*
X171445300Y-105000000D01*
X171445300Y-104999993D01*
X171426135Y-104768702D01*
X171426133Y-104768691D01*
X171369157Y-104543699D01*
X171275924Y-104331151D01*
X171148983Y-104136852D01*
X171148980Y-104136849D01*
X171148979Y-104136847D01*
X170991784Y-103966087D01*
X170991779Y-103966083D01*
X170991777Y-103966081D01*
X170808634Y-103823535D01*
X170808628Y-103823531D01*
X170604504Y-103713064D01*
X170604495Y-103713061D01*
X170384984Y-103637702D01*
X170197404Y-103606401D01*
X170156049Y-103599500D01*
X169923951Y-103599500D01*
X169882596Y-103606401D01*
X169695015Y-103637702D01*
X169475504Y-103713061D01*
X169475495Y-103713064D01*
X169271371Y-103823531D01*
X169271365Y-103823535D01*
X169088222Y-103966081D01*
X169088215Y-103966087D01*
X169079484Y-103975572D01*
X169019595Y-104011561D01*
X168949757Y-104009458D01*
X168892143Y-103969932D01*
X168872075Y-103934918D01*
X168843355Y-103857915D01*
X168843350Y-103857906D01*
X168757190Y-103742812D01*
X168757187Y-103742809D01*
X168642093Y-103656649D01*
X168642086Y-103656645D01*
X168507379Y-103606403D01*
X168507372Y-103606401D01*
X168447844Y-103600000D01*
X167750000Y-103600000D01*
X167750000Y-104438178D01*
X167730315Y-104505217D01*
X167677511Y-104550972D01*
X167608353Y-104560916D01*
X167589454Y-104556670D01*
X167567829Y-104550000D01*
X167567827Y-104550000D01*
X167466276Y-104550000D01*
X167466268Y-104550000D01*
X167392481Y-104561122D01*
X167323256Y-104551649D01*
X167270143Y-104506254D01*
X167250003Y-104439350D01*
X167250000Y-104438507D01*
X167250000Y-103600000D01*
X166552155Y-103600000D01*
X166492627Y-103606401D01*
X166492620Y-103606403D01*
X166357913Y-103656645D01*
X166357906Y-103656649D01*
X166242812Y-103742809D01*
X166242809Y-103742812D01*
X166156649Y-103857906D01*
X166156645Y-103857913D01*
X166106403Y-103992620D01*
X166106401Y-103992627D01*
X166100000Y-104052155D01*
X166100000Y-104750000D01*
X166939997Y-104750000D01*
X167007036Y-104769685D01*
X167052791Y-104822489D01*
X167062735Y-104891647D01*
X167060888Y-104901592D01*
X167046189Y-104965992D01*
X167046189Y-104965993D01*
X167057021Y-105110532D01*
X167054920Y-105110689D01*
X167051405Y-105168139D01*
X167010110Y-105224499D01*
X166944899Y-105249587D01*
X166934784Y-105250000D01*
X166100000Y-105250000D01*
X166100000Y-105947844D01*
X130675996Y-105947844D01*
X130578494Y-105808597D01*
X130411402Y-105641506D01*
X130411395Y-105641501D01*
X130217834Y-105505967D01*
X130217830Y-105505965D01*
X130111323Y-105456300D01*
X130003663Y-105406097D01*
X130003659Y-105406096D01*
X130003655Y-105406094D01*
X129775413Y-105344938D01*
X129775403Y-105344936D01*
X129540001Y-105324341D01*
X129539999Y-105324341D01*
X129304596Y-105344936D01*
X129304586Y-105344938D01*
X129076344Y-105406094D01*
X129076335Y-105406098D01*
X128862171Y-105505964D01*
X128862169Y-105505965D01*
X128668597Y-105641505D01*
X128501505Y-105808597D01*
X128371575Y-105994158D01*
X128316998Y-106037783D01*
X128247500Y-106044977D01*
X128185145Y-106013454D01*
X128168425Y-105994158D01*
X128038494Y-105808597D01*
X127871402Y-105641506D01*
X127871395Y-105641501D01*
X127677834Y-105505967D01*
X127677830Y-105505965D01*
X127571323Y-105456300D01*
X127463663Y-105406097D01*
X127463659Y-105406096D01*
X127463655Y-105406094D01*
X127235413Y-105344938D01*
X127235403Y-105344936D01*
X127000001Y-105324341D01*
X126999999Y-105324341D01*
X126764596Y-105344936D01*
X126764586Y-105344938D01*
X126536344Y-105406094D01*
X126536335Y-105406098D01*
X126322171Y-105505964D01*
X126322169Y-105505965D01*
X126128597Y-105641505D01*
X125961508Y-105808594D01*
X125831574Y-105994159D01*
X125776997Y-106037784D01*
X125707498Y-106044976D01*
X125645144Y-106013454D01*
X125628424Y-105994158D01*
X125498494Y-105808597D01*
X125331402Y-105641506D01*
X125331395Y-105641501D01*
X125137834Y-105505967D01*
X125137830Y-105505965D01*
X125031323Y-105456300D01*
X124923663Y-105406097D01*
X124923659Y-105406096D01*
X124923655Y-105406094D01*
X124695413Y-105344938D01*
X124695403Y-105344936D01*
X124460001Y-105324341D01*
X124459999Y-105324341D01*
X124224596Y-105344936D01*
X124224586Y-105344938D01*
X123996344Y-105406094D01*
X123996335Y-105406098D01*
X123782171Y-105505964D01*
X123782169Y-105505965D01*
X123588597Y-105641505D01*
X123421505Y-105808597D01*
X123291575Y-105994158D01*
X123236998Y-106037783D01*
X123167500Y-106044977D01*
X123105145Y-106013454D01*
X123088425Y-105994158D01*
X122958494Y-105808597D01*
X122791402Y-105641506D01*
X122791395Y-105641501D01*
X122597834Y-105505967D01*
X122597830Y-105505965D01*
X122491323Y-105456300D01*
X122383663Y-105406097D01*
X122383659Y-105406096D01*
X122383655Y-105406094D01*
X122155413Y-105344938D01*
X122155403Y-105344936D01*
X121920001Y-105324341D01*
X121919999Y-105324341D01*
X121684596Y-105344936D01*
X121684586Y-105344938D01*
X121456344Y-105406094D01*
X121456335Y-105406098D01*
X121242171Y-105505964D01*
X121242169Y-105505965D01*
X121048597Y-105641505D01*
X120881505Y-105808597D01*
X120751575Y-105994158D01*
X120696998Y-106037783D01*
X120627500Y-106044977D01*
X120565145Y-106013454D01*
X120548425Y-105994158D01*
X120418494Y-105808597D01*
X120251402Y-105641506D01*
X120251395Y-105641501D01*
X120057834Y-105505967D01*
X120057830Y-105505965D01*
X119951323Y-105456300D01*
X119843663Y-105406097D01*
X119843659Y-105406096D01*
X119843655Y-105406094D01*
X119615413Y-105344938D01*
X119615403Y-105344936D01*
X119380001Y-105324341D01*
X119379999Y-105324341D01*
X119144596Y-105344936D01*
X119144586Y-105344938D01*
X118916344Y-105406094D01*
X118916335Y-105406098D01*
X118702171Y-105505964D01*
X118702169Y-105505965D01*
X118508597Y-105641505D01*
X118341508Y-105808594D01*
X118211574Y-105994159D01*
X118156997Y-106037784D01*
X118087498Y-106044976D01*
X118025144Y-106013454D01*
X118008424Y-105994158D01*
X117878494Y-105808597D01*
X117711402Y-105641506D01*
X117711395Y-105641501D01*
X117517834Y-105505967D01*
X117517830Y-105505965D01*
X117411323Y-105456300D01*
X117303663Y-105406097D01*
X117303659Y-105406096D01*
X117303655Y-105406094D01*
X117075413Y-105344938D01*
X117075403Y-105344936D01*
X116840001Y-105324341D01*
X116839999Y-105324341D01*
X116604596Y-105344936D01*
X116604586Y-105344938D01*
X116376344Y-105406094D01*
X116376335Y-105406098D01*
X116162171Y-105505964D01*
X116162169Y-105505965D01*
X115968600Y-105641503D01*
X115846284Y-105763819D01*
X115784961Y-105797303D01*
X115715269Y-105792319D01*
X115659336Y-105750447D01*
X115642421Y-105719470D01*
X115593354Y-105587913D01*
X115593350Y-105587906D01*
X115507190Y-105472812D01*
X115507187Y-105472809D01*
X115392093Y-105386649D01*
X115392086Y-105386645D01*
X115257379Y-105336403D01*
X115257372Y-105336401D01*
X115197844Y-105330000D01*
X114550000Y-105330000D01*
X114550000Y-106067698D01*
X114530315Y-106134737D01*
X114477511Y-106180492D01*
X114408355Y-106190436D01*
X114335766Y-106180000D01*
X114335763Y-106180000D01*
X114264237Y-106180000D01*
X114264233Y-106180000D01*
X114191645Y-106190436D01*
X114122487Y-106180492D01*
X114069684Y-106134736D01*
X114050000Y-106067698D01*
X114050000Y-105330000D01*
X113402155Y-105330000D01*
X113342627Y-105336401D01*
X113342620Y-105336403D01*
X113207913Y-105386645D01*
X113207906Y-105386649D01*
X113092812Y-105472809D01*
X113092809Y-105472812D01*
X113006649Y-105587906D01*
X113006645Y-105587913D01*
X112956403Y-105722620D01*
X112956401Y-105722627D01*
X112950000Y-105782155D01*
X112950000Y-106430000D01*
X113686653Y-106430000D01*
X113753692Y-106449685D01*
X113799447Y-106502489D01*
X113809391Y-106571647D01*
X113805631Y-106588933D01*
X113800000Y-106608111D01*
X113800000Y-106751888D01*
X113805631Y-106771067D01*
X113805630Y-106840936D01*
X113767855Y-106899714D01*
X113704299Y-106928738D01*
X113686653Y-106930000D01*
X112950000Y-106930000D01*
X112950000Y-107577844D01*
X111206450Y-107577844D01*
X111222675Y-104543699D01*
X111222796Y-104521000D01*
X132063540Y-104521000D01*
X132083326Y-104709256D01*
X132083327Y-104709259D01*
X132141818Y-104889277D01*
X132141821Y-104889284D01*
X132236467Y-105053216D01*
X132350840Y-105180240D01*
X132363129Y-105193888D01*
X132516265Y-105305148D01*
X132516270Y-105305151D01*
X132689192Y-105382142D01*
X132689197Y-105382144D01*
X132874354Y-105421500D01*
X132874355Y-105421500D01*
X133063644Y-105421500D01*
X133063646Y-105421500D01*
X133248803Y-105382144D01*
X133421730Y-105305151D01*
X133574871Y-105193888D01*
X133701533Y-105053216D01*
X133796179Y-104889284D01*
X133854674Y-104709256D01*
X133874460Y-104521000D01*
X133854674Y-104332744D01*
X133796179Y-104152716D01*
X133701533Y-103988784D01*
X133574871Y-103848112D01*
X133541044Y-103823535D01*
X133421734Y-103736851D01*
X133421729Y-103736848D01*
X133248807Y-103659857D01*
X133248802Y-103659855D01*
X133071606Y-103622192D01*
X133063646Y-103620500D01*
X132874354Y-103620500D01*
X132866394Y-103622192D01*
X132689197Y-103659855D01*
X132689192Y-103659857D01*
X132516270Y-103736848D01*
X132516265Y-103736851D01*
X132363129Y-103848111D01*
X132236466Y-103988785D01*
X132141821Y-104152715D01*
X132141818Y-104152722D01*
X132083327Y-104332740D01*
X132083326Y-104332744D01*
X132063540Y-104521000D01*
X111222796Y-104521000D01*
X111229587Y-103251000D01*
X154415540Y-103251000D01*
X154435326Y-103439256D01*
X154435327Y-103439259D01*
X154493818Y-103619277D01*
X154493821Y-103619284D01*
X154588467Y-103783216D01*
X154662223Y-103865130D01*
X154715129Y-103923888D01*
X154868265Y-104035148D01*
X154868270Y-104035151D01*
X155041192Y-104112142D01*
X155041197Y-104112144D01*
X155226354Y-104151500D01*
X155226355Y-104151500D01*
X155415644Y-104151500D01*
X155415646Y-104151500D01*
X155600803Y-104112144D01*
X155773730Y-104035151D01*
X155926871Y-103923888D01*
X156053533Y-103783216D01*
X156102613Y-103698205D01*
X156153179Y-103649991D01*
X156221786Y-103636767D01*
X156286651Y-103662735D01*
X156317385Y-103698203D01*
X156360393Y-103772695D01*
X156366467Y-103783216D01*
X156493129Y-103923888D01*
X156646265Y-104035148D01*
X156646270Y-104035151D01*
X156819192Y-104112142D01*
X156819197Y-104112144D01*
X157004354Y-104151500D01*
X157004355Y-104151500D01*
X157193644Y-104151500D01*
X157193646Y-104151500D01*
X157378803Y-104112144D01*
X157551730Y-104035151D01*
X157704871Y-103923888D01*
X157831533Y-103783216D01*
X157831534Y-103783214D01*
X157832350Y-103782308D01*
X157891837Y-103745659D01*
X157961694Y-103746990D01*
X158016650Y-103782308D01*
X158017465Y-103783214D01*
X158017467Y-103783216D01*
X158091223Y-103865130D01*
X158144129Y-103923888D01*
X158297265Y-104035148D01*
X158297270Y-104035151D01*
X158470192Y-104112142D01*
X158470197Y-104112144D01*
X158655354Y-104151500D01*
X158655355Y-104151500D01*
X158844644Y-104151500D01*
X158844646Y-104151500D01*
X159029803Y-104112144D01*
X159202730Y-104035151D01*
X159355871Y-103923888D01*
X159482533Y-103783216D01*
X159577179Y-103619284D01*
X159635674Y-103439256D01*
X159655460Y-103251000D01*
X159635674Y-103062744D01*
X159577179Y-102882716D01*
X159482533Y-102718784D01*
X159355871Y-102578112D01*
X159337341Y-102564649D01*
X159202734Y-102466851D01*
X159202729Y-102466848D01*
X159029807Y-102389857D01*
X159029802Y-102389855D01*
X158884000Y-102358865D01*
X158844646Y-102350500D01*
X158655354Y-102350500D01*
X158622897Y-102357398D01*
X158470197Y-102389855D01*
X158470192Y-102389857D01*
X158297270Y-102466848D01*
X158297265Y-102466851D01*
X158144129Y-102578111D01*
X158016650Y-102719691D01*
X157957163Y-102756340D01*
X157887306Y-102755009D01*
X157832350Y-102719691D01*
X157704870Y-102578111D01*
X157551734Y-102466851D01*
X157551729Y-102466848D01*
X157378807Y-102389857D01*
X157378802Y-102389855D01*
X157233000Y-102358865D01*
X157193646Y-102350500D01*
X157004354Y-102350500D01*
X156971897Y-102357398D01*
X156819197Y-102389855D01*
X156819192Y-102389857D01*
X156646270Y-102466848D01*
X156646265Y-102466851D01*
X156493129Y-102578111D01*
X156366466Y-102718785D01*
X156317387Y-102803793D01*
X156266820Y-102852008D01*
X156198213Y-102865232D01*
X156133349Y-102839264D01*
X156102613Y-102803793D01*
X156070982Y-102749007D01*
X156053533Y-102718784D01*
X155926871Y-102578112D01*
X155908341Y-102564649D01*
X155773734Y-102466851D01*
X155773729Y-102466848D01*
X155600807Y-102389857D01*
X155600802Y-102389855D01*
X155455001Y-102358865D01*
X155415646Y-102350500D01*
X155226354Y-102350500D01*
X155193897Y-102357398D01*
X155041197Y-102389855D01*
X155041192Y-102389857D01*
X154868270Y-102466848D01*
X154868265Y-102466851D01*
X154715129Y-102578111D01*
X154588466Y-102718785D01*
X154493821Y-102882715D01*
X154493818Y-102882722D01*
X154438510Y-103052944D01*
X154435326Y-103062744D01*
X154415540Y-103251000D01*
X111229587Y-103251000D01*
X111246310Y-100123834D01*
X111266353Y-100056904D01*
X111319400Y-100011432D01*
X111370308Y-100000500D01*
X179999500Y-100000500D01*
X180000000Y-100000500D01*
X180217318Y-100009488D01*
G37*
%TD.AperFunction*%
%TD*%
M02*
