%TF.GenerationSoftware,KiCad,Pcbnew,7.0.7*%
%TF.CreationDate,2024-01-15T23:48:36+01:00*%
%TF.ProjectId,FlipperZeroESP32,466c6970-7065-4725-9a65-726f45535033,rev?*%
%TF.SameCoordinates,Original*%
%TF.FileFunction,Legend,Top*%
%TF.FilePolarity,Positive*%
%FSLAX46Y46*%
G04 Gerber Fmt 4.6, Leading zero omitted, Abs format (unit mm)*
G04 Created by KiCad (PCBNEW 7.0.7) date 2024-01-15 23:48:36*
%MOMM*%
%LPD*%
G01*
G04 APERTURE LIST*
%ADD10C,0.200000*%
%ADD11C,0.250000*%
%ADD12C,0.350000*%
%ADD13C,0.150000*%
%ADD14C,0.120000*%
G04 APERTURE END LIST*
D10*
X148089673Y-129352219D02*
X148089673Y-128352219D01*
X148756339Y-128352219D02*
X148946815Y-128352219D01*
X148946815Y-128352219D02*
X149042053Y-128399838D01*
X149042053Y-128399838D02*
X149137291Y-128495076D01*
X149137291Y-128495076D02*
X149184910Y-128685552D01*
X149184910Y-128685552D02*
X149184910Y-129018885D01*
X149184910Y-129018885D02*
X149137291Y-129209361D01*
X149137291Y-129209361D02*
X149042053Y-129304600D01*
X149042053Y-129304600D02*
X148946815Y-129352219D01*
X148946815Y-129352219D02*
X148756339Y-129352219D01*
X148756339Y-129352219D02*
X148661101Y-129304600D01*
X148661101Y-129304600D02*
X148565863Y-129209361D01*
X148565863Y-129209361D02*
X148518244Y-129018885D01*
X148518244Y-129018885D02*
X148518244Y-128685552D01*
X148518244Y-128685552D02*
X148565863Y-128495076D01*
X148565863Y-128495076D02*
X148661101Y-128399838D01*
X148661101Y-128399838D02*
X148756339Y-128352219D01*
X149518244Y-128352219D02*
X150184910Y-128352219D01*
X150184910Y-128352219D02*
X149756339Y-129352219D01*
X119952219Y-138130326D02*
X118952219Y-138130326D01*
X118952219Y-137463660D02*
X118952219Y-137273184D01*
X118952219Y-137273184D02*
X118999838Y-137177946D01*
X118999838Y-137177946D02*
X119095076Y-137082708D01*
X119095076Y-137082708D02*
X119285552Y-137035089D01*
X119285552Y-137035089D02*
X119618885Y-137035089D01*
X119618885Y-137035089D02*
X119809361Y-137082708D01*
X119809361Y-137082708D02*
X119904600Y-137177946D01*
X119904600Y-137177946D02*
X119952219Y-137273184D01*
X119952219Y-137273184D02*
X119952219Y-137463660D01*
X119952219Y-137463660D02*
X119904600Y-137558898D01*
X119904600Y-137558898D02*
X119809361Y-137654136D01*
X119809361Y-137654136D02*
X119618885Y-137701755D01*
X119618885Y-137701755D02*
X119285552Y-137701755D01*
X119285552Y-137701755D02*
X119095076Y-137654136D01*
X119095076Y-137654136D02*
X118999838Y-137558898D01*
X118999838Y-137558898D02*
X118952219Y-137463660D01*
X119952219Y-136082708D02*
X119952219Y-136654136D01*
X119952219Y-136368422D02*
X118952219Y-136368422D01*
X118952219Y-136368422D02*
X119095076Y-136463660D01*
X119095076Y-136463660D02*
X119190314Y-136558898D01*
X119190314Y-136558898D02*
X119237933Y-136654136D01*
X118952219Y-135749374D02*
X118952219Y-135130327D01*
X118952219Y-135130327D02*
X119333171Y-135463660D01*
X119333171Y-135463660D02*
X119333171Y-135320803D01*
X119333171Y-135320803D02*
X119380790Y-135225565D01*
X119380790Y-135225565D02*
X119428409Y-135177946D01*
X119428409Y-135177946D02*
X119523647Y-135130327D01*
X119523647Y-135130327D02*
X119761742Y-135130327D01*
X119761742Y-135130327D02*
X119856980Y-135177946D01*
X119856980Y-135177946D02*
X119904600Y-135225565D01*
X119904600Y-135225565D02*
X119952219Y-135320803D01*
X119952219Y-135320803D02*
X119952219Y-135606517D01*
X119952219Y-135606517D02*
X119904600Y-135701755D01*
X119904600Y-135701755D02*
X119856980Y-135749374D01*
X148089673Y-113731266D02*
X148851578Y-113731266D01*
X148470625Y-114112219D02*
X148470625Y-113350314D01*
X149232530Y-113112219D02*
X149851577Y-113112219D01*
X149851577Y-113112219D02*
X149518244Y-113493171D01*
X149518244Y-113493171D02*
X149661101Y-113493171D01*
X149661101Y-113493171D02*
X149756339Y-113540790D01*
X149756339Y-113540790D02*
X149803958Y-113588409D01*
X149803958Y-113588409D02*
X149851577Y-113683647D01*
X149851577Y-113683647D02*
X149851577Y-113921742D01*
X149851577Y-113921742D02*
X149803958Y-114016980D01*
X149803958Y-114016980D02*
X149756339Y-114064600D01*
X149756339Y-114064600D02*
X149661101Y-114112219D01*
X149661101Y-114112219D02*
X149375387Y-114112219D01*
X149375387Y-114112219D02*
X149280149Y-114064600D01*
X149280149Y-114064600D02*
X149232530Y-114016980D01*
X150137292Y-113112219D02*
X150470625Y-114112219D01*
X150470625Y-114112219D02*
X150803958Y-113112219D01*
X151042054Y-113112219D02*
X151661101Y-113112219D01*
X151661101Y-113112219D02*
X151327768Y-113493171D01*
X151327768Y-113493171D02*
X151470625Y-113493171D01*
X151470625Y-113493171D02*
X151565863Y-113540790D01*
X151565863Y-113540790D02*
X151613482Y-113588409D01*
X151613482Y-113588409D02*
X151661101Y-113683647D01*
X151661101Y-113683647D02*
X151661101Y-113921742D01*
X151661101Y-113921742D02*
X151613482Y-114016980D01*
X151613482Y-114016980D02*
X151565863Y-114064600D01*
X151565863Y-114064600D02*
X151470625Y-114112219D01*
X151470625Y-114112219D02*
X151184911Y-114112219D01*
X151184911Y-114112219D02*
X151089673Y-114064600D01*
X151089673Y-114064600D02*
X151042054Y-114016980D01*
X127572219Y-104058898D02*
X127096028Y-104392231D01*
X127572219Y-104630326D02*
X126572219Y-104630326D01*
X126572219Y-104630326D02*
X126572219Y-104249374D01*
X126572219Y-104249374D02*
X126619838Y-104154136D01*
X126619838Y-104154136D02*
X126667457Y-104106517D01*
X126667457Y-104106517D02*
X126762695Y-104058898D01*
X126762695Y-104058898D02*
X126905552Y-104058898D01*
X126905552Y-104058898D02*
X127000790Y-104106517D01*
X127000790Y-104106517D02*
X127048409Y-104154136D01*
X127048409Y-104154136D02*
X127096028Y-104249374D01*
X127096028Y-104249374D02*
X127096028Y-104630326D01*
X127524600Y-103677945D02*
X127572219Y-103535088D01*
X127572219Y-103535088D02*
X127572219Y-103296993D01*
X127572219Y-103296993D02*
X127524600Y-103201755D01*
X127524600Y-103201755D02*
X127476980Y-103154136D01*
X127476980Y-103154136D02*
X127381742Y-103106517D01*
X127381742Y-103106517D02*
X127286504Y-103106517D01*
X127286504Y-103106517D02*
X127191266Y-103154136D01*
X127191266Y-103154136D02*
X127143647Y-103201755D01*
X127143647Y-103201755D02*
X127096028Y-103296993D01*
X127096028Y-103296993D02*
X127048409Y-103487469D01*
X127048409Y-103487469D02*
X127000790Y-103582707D01*
X127000790Y-103582707D02*
X126953171Y-103630326D01*
X126953171Y-103630326D02*
X126857933Y-103677945D01*
X126857933Y-103677945D02*
X126762695Y-103677945D01*
X126762695Y-103677945D02*
X126667457Y-103630326D01*
X126667457Y-103630326D02*
X126619838Y-103582707D01*
X126619838Y-103582707D02*
X126572219Y-103487469D01*
X126572219Y-103487469D02*
X126572219Y-103249374D01*
X126572219Y-103249374D02*
X126619838Y-103106517D01*
X126572219Y-102820802D02*
X126572219Y-102249374D01*
X127572219Y-102535088D02*
X126572219Y-102535088D01*
X122492219Y-138130326D02*
X121492219Y-138130326D01*
X121492219Y-137463660D02*
X121492219Y-137273184D01*
X121492219Y-137273184D02*
X121539838Y-137177946D01*
X121539838Y-137177946D02*
X121635076Y-137082708D01*
X121635076Y-137082708D02*
X121825552Y-137035089D01*
X121825552Y-137035089D02*
X122158885Y-137035089D01*
X122158885Y-137035089D02*
X122349361Y-137082708D01*
X122349361Y-137082708D02*
X122444600Y-137177946D01*
X122444600Y-137177946D02*
X122492219Y-137273184D01*
X122492219Y-137273184D02*
X122492219Y-137463660D01*
X122492219Y-137463660D02*
X122444600Y-137558898D01*
X122444600Y-137558898D02*
X122349361Y-137654136D01*
X122349361Y-137654136D02*
X122158885Y-137701755D01*
X122158885Y-137701755D02*
X121825552Y-137701755D01*
X121825552Y-137701755D02*
X121635076Y-137654136D01*
X121635076Y-137654136D02*
X121539838Y-137558898D01*
X121539838Y-137558898D02*
X121492219Y-137463660D01*
X122492219Y-136082708D02*
X122492219Y-136654136D01*
X122492219Y-136368422D02*
X121492219Y-136368422D01*
X121492219Y-136368422D02*
X121635076Y-136463660D01*
X121635076Y-136463660D02*
X121730314Y-136558898D01*
X121730314Y-136558898D02*
X121777933Y-136654136D01*
X121587457Y-135701755D02*
X121539838Y-135654136D01*
X121539838Y-135654136D02*
X121492219Y-135558898D01*
X121492219Y-135558898D02*
X121492219Y-135320803D01*
X121492219Y-135320803D02*
X121539838Y-135225565D01*
X121539838Y-135225565D02*
X121587457Y-135177946D01*
X121587457Y-135177946D02*
X121682695Y-135130327D01*
X121682695Y-135130327D02*
X121777933Y-135130327D01*
X121777933Y-135130327D02*
X121920790Y-135177946D01*
X121920790Y-135177946D02*
X122492219Y-135749374D01*
X122492219Y-135749374D02*
X122492219Y-135130327D01*
X118952219Y-104773183D02*
X118952219Y-104201755D01*
X119952219Y-104487469D02*
X118952219Y-104487469D01*
X119952219Y-103868421D02*
X118952219Y-103868421D01*
X118952219Y-103868421D02*
X118952219Y-103630326D01*
X118952219Y-103630326D02*
X118999838Y-103487469D01*
X118999838Y-103487469D02*
X119095076Y-103392231D01*
X119095076Y-103392231D02*
X119190314Y-103344612D01*
X119190314Y-103344612D02*
X119380790Y-103296993D01*
X119380790Y-103296993D02*
X119523647Y-103296993D01*
X119523647Y-103296993D02*
X119714123Y-103344612D01*
X119714123Y-103344612D02*
X119809361Y-103392231D01*
X119809361Y-103392231D02*
X119904600Y-103487469D01*
X119904600Y-103487469D02*
X119952219Y-103630326D01*
X119952219Y-103630326D02*
X119952219Y-103868421D01*
X119952219Y-102868421D02*
X118952219Y-102868421D01*
X148089673Y-116652219D02*
X148089673Y-115652219D01*
X148756339Y-115652219D02*
X148946815Y-115652219D01*
X148946815Y-115652219D02*
X149042053Y-115699838D01*
X149042053Y-115699838D02*
X149137291Y-115795076D01*
X149137291Y-115795076D02*
X149184910Y-115985552D01*
X149184910Y-115985552D02*
X149184910Y-116318885D01*
X149184910Y-116318885D02*
X149137291Y-116509361D01*
X149137291Y-116509361D02*
X149042053Y-116604600D01*
X149042053Y-116604600D02*
X148946815Y-116652219D01*
X148946815Y-116652219D02*
X148756339Y-116652219D01*
X148756339Y-116652219D02*
X148661101Y-116604600D01*
X148661101Y-116604600D02*
X148565863Y-116509361D01*
X148565863Y-116509361D02*
X148518244Y-116318885D01*
X148518244Y-116318885D02*
X148518244Y-115985552D01*
X148518244Y-115985552D02*
X148565863Y-115795076D01*
X148565863Y-115795076D02*
X148661101Y-115699838D01*
X148661101Y-115699838D02*
X148756339Y-115652219D01*
X149518244Y-115652219D02*
X150137291Y-115652219D01*
X150137291Y-115652219D02*
X149803958Y-116033171D01*
X149803958Y-116033171D02*
X149946815Y-116033171D01*
X149946815Y-116033171D02*
X150042053Y-116080790D01*
X150042053Y-116080790D02*
X150089672Y-116128409D01*
X150089672Y-116128409D02*
X150137291Y-116223647D01*
X150137291Y-116223647D02*
X150137291Y-116461742D01*
X150137291Y-116461742D02*
X150089672Y-116556980D01*
X150089672Y-116556980D02*
X150042053Y-116604600D01*
X150042053Y-116604600D02*
X149946815Y-116652219D01*
X149946815Y-116652219D02*
X149661101Y-116652219D01*
X149661101Y-116652219D02*
X149565863Y-116604600D01*
X149565863Y-116604600D02*
X149518244Y-116556980D01*
X150994434Y-115652219D02*
X150803958Y-115652219D01*
X150803958Y-115652219D02*
X150708720Y-115699838D01*
X150708720Y-115699838D02*
X150661101Y-115747457D01*
X150661101Y-115747457D02*
X150565863Y-115890314D01*
X150565863Y-115890314D02*
X150518244Y-116080790D01*
X150518244Y-116080790D02*
X150518244Y-116461742D01*
X150518244Y-116461742D02*
X150565863Y-116556980D01*
X150565863Y-116556980D02*
X150613482Y-116604600D01*
X150613482Y-116604600D02*
X150708720Y-116652219D01*
X150708720Y-116652219D02*
X150899196Y-116652219D01*
X150899196Y-116652219D02*
X150994434Y-116604600D01*
X150994434Y-116604600D02*
X151042053Y-116556980D01*
X151042053Y-116556980D02*
X151089672Y-116461742D01*
X151089672Y-116461742D02*
X151089672Y-116223647D01*
X151089672Y-116223647D02*
X151042053Y-116128409D01*
X151042053Y-116128409D02*
X150994434Y-116080790D01*
X150994434Y-116080790D02*
X150899196Y-116033171D01*
X150899196Y-116033171D02*
X150708720Y-116033171D01*
X150708720Y-116033171D02*
X150613482Y-116080790D01*
X150613482Y-116080790D02*
X150565863Y-116128409D01*
X150565863Y-116128409D02*
X150518244Y-116223647D01*
X114491266Y-138130326D02*
X114491266Y-137368422D01*
X114872219Y-137749374D02*
X114110314Y-137749374D01*
X113872219Y-136416041D02*
X113872219Y-136892231D01*
X113872219Y-136892231D02*
X114348409Y-136939850D01*
X114348409Y-136939850D02*
X114300790Y-136892231D01*
X114300790Y-136892231D02*
X114253171Y-136796993D01*
X114253171Y-136796993D02*
X114253171Y-136558898D01*
X114253171Y-136558898D02*
X114300790Y-136463660D01*
X114300790Y-136463660D02*
X114348409Y-136416041D01*
X114348409Y-136416041D02*
X114443647Y-136368422D01*
X114443647Y-136368422D02*
X114681742Y-136368422D01*
X114681742Y-136368422D02*
X114776980Y-136416041D01*
X114776980Y-136416041D02*
X114824600Y-136463660D01*
X114824600Y-136463660D02*
X114872219Y-136558898D01*
X114872219Y-136558898D02*
X114872219Y-136796993D01*
X114872219Y-136796993D02*
X114824600Y-136892231D01*
X114824600Y-136892231D02*
X114776980Y-136939850D01*
X113872219Y-136082707D02*
X114872219Y-135749374D01*
X114872219Y-135749374D02*
X113872219Y-135416041D01*
X152992219Y-138130326D02*
X151992219Y-138130326D01*
X151992219Y-137463660D02*
X151992219Y-137273184D01*
X151992219Y-137273184D02*
X152039838Y-137177946D01*
X152039838Y-137177946D02*
X152135076Y-137082708D01*
X152135076Y-137082708D02*
X152325552Y-137035089D01*
X152325552Y-137035089D02*
X152658885Y-137035089D01*
X152658885Y-137035089D02*
X152849361Y-137082708D01*
X152849361Y-137082708D02*
X152944600Y-137177946D01*
X152944600Y-137177946D02*
X152992219Y-137273184D01*
X152992219Y-137273184D02*
X152992219Y-137463660D01*
X152992219Y-137463660D02*
X152944600Y-137558898D01*
X152944600Y-137558898D02*
X152849361Y-137654136D01*
X152849361Y-137654136D02*
X152658885Y-137701755D01*
X152658885Y-137701755D02*
X152325552Y-137701755D01*
X152325552Y-137701755D02*
X152135076Y-137654136D01*
X152135076Y-137654136D02*
X152039838Y-137558898D01*
X152039838Y-137558898D02*
X151992219Y-137463660D01*
X152992219Y-136082708D02*
X152992219Y-136654136D01*
X152992219Y-136368422D02*
X151992219Y-136368422D01*
X151992219Y-136368422D02*
X152135076Y-136463660D01*
X152135076Y-136463660D02*
X152230314Y-136558898D01*
X152230314Y-136558898D02*
X152277933Y-136654136D01*
X137502707Y-130939838D02*
X137407469Y-130892219D01*
X137407469Y-130892219D02*
X137264612Y-130892219D01*
X137264612Y-130892219D02*
X137121755Y-130939838D01*
X137121755Y-130939838D02*
X137026517Y-131035076D01*
X137026517Y-131035076D02*
X136978898Y-131130314D01*
X136978898Y-131130314D02*
X136931279Y-131320790D01*
X136931279Y-131320790D02*
X136931279Y-131463647D01*
X136931279Y-131463647D02*
X136978898Y-131654123D01*
X136978898Y-131654123D02*
X137026517Y-131749361D01*
X137026517Y-131749361D02*
X137121755Y-131844600D01*
X137121755Y-131844600D02*
X137264612Y-131892219D01*
X137264612Y-131892219D02*
X137359850Y-131892219D01*
X137359850Y-131892219D02*
X137502707Y-131844600D01*
X137502707Y-131844600D02*
X137550326Y-131796980D01*
X137550326Y-131796980D02*
X137550326Y-131463647D01*
X137550326Y-131463647D02*
X137359850Y-131463647D01*
X137978898Y-131892219D02*
X137978898Y-130892219D01*
X137978898Y-130892219D02*
X138550326Y-131892219D01*
X138550326Y-131892219D02*
X138550326Y-130892219D01*
X139026517Y-131892219D02*
X139026517Y-130892219D01*
X139026517Y-130892219D02*
X139264612Y-130892219D01*
X139264612Y-130892219D02*
X139407469Y-130939838D01*
X139407469Y-130939838D02*
X139502707Y-131035076D01*
X139502707Y-131035076D02*
X139550326Y-131130314D01*
X139550326Y-131130314D02*
X139597945Y-131320790D01*
X139597945Y-131320790D02*
X139597945Y-131463647D01*
X139597945Y-131463647D02*
X139550326Y-131654123D01*
X139550326Y-131654123D02*
X139502707Y-131749361D01*
X139502707Y-131749361D02*
X139407469Y-131844600D01*
X139407469Y-131844600D02*
X139264612Y-131892219D01*
X139264612Y-131892219D02*
X139026517Y-131892219D01*
X125032219Y-138130326D02*
X124032219Y-138130326D01*
X124032219Y-137463660D02*
X124032219Y-137273184D01*
X124032219Y-137273184D02*
X124079838Y-137177946D01*
X124079838Y-137177946D02*
X124175076Y-137082708D01*
X124175076Y-137082708D02*
X124365552Y-137035089D01*
X124365552Y-137035089D02*
X124698885Y-137035089D01*
X124698885Y-137035089D02*
X124889361Y-137082708D01*
X124889361Y-137082708D02*
X124984600Y-137177946D01*
X124984600Y-137177946D02*
X125032219Y-137273184D01*
X125032219Y-137273184D02*
X125032219Y-137463660D01*
X125032219Y-137463660D02*
X124984600Y-137558898D01*
X124984600Y-137558898D02*
X124889361Y-137654136D01*
X124889361Y-137654136D02*
X124698885Y-137701755D01*
X124698885Y-137701755D02*
X124365552Y-137701755D01*
X124365552Y-137701755D02*
X124175076Y-137654136D01*
X124175076Y-137654136D02*
X124079838Y-137558898D01*
X124079838Y-137558898D02*
X124032219Y-137463660D01*
X125032219Y-136082708D02*
X125032219Y-136654136D01*
X125032219Y-136368422D02*
X124032219Y-136368422D01*
X124032219Y-136368422D02*
X124175076Y-136463660D01*
X124175076Y-136463660D02*
X124270314Y-136558898D01*
X124270314Y-136558898D02*
X124317933Y-136654136D01*
X124032219Y-135463660D02*
X124032219Y-135368422D01*
X124032219Y-135368422D02*
X124079838Y-135273184D01*
X124079838Y-135273184D02*
X124127457Y-135225565D01*
X124127457Y-135225565D02*
X124222695Y-135177946D01*
X124222695Y-135177946D02*
X124413171Y-135130327D01*
X124413171Y-135130327D02*
X124651266Y-135130327D01*
X124651266Y-135130327D02*
X124841742Y-135177946D01*
X124841742Y-135177946D02*
X124936980Y-135225565D01*
X124936980Y-135225565D02*
X124984600Y-135273184D01*
X124984600Y-135273184D02*
X125032219Y-135368422D01*
X125032219Y-135368422D02*
X125032219Y-135463660D01*
X125032219Y-135463660D02*
X124984600Y-135558898D01*
X124984600Y-135558898D02*
X124936980Y-135606517D01*
X124936980Y-135606517D02*
X124841742Y-135654136D01*
X124841742Y-135654136D02*
X124651266Y-135701755D01*
X124651266Y-135701755D02*
X124413171Y-135701755D01*
X124413171Y-135701755D02*
X124222695Y-135654136D01*
X124222695Y-135654136D02*
X124127457Y-135606517D01*
X124127457Y-135606517D02*
X124079838Y-135558898D01*
X124079838Y-135558898D02*
X124032219Y-135463660D01*
X148089673Y-121732219D02*
X148089673Y-120732219D01*
X148756339Y-120732219D02*
X148946815Y-120732219D01*
X148946815Y-120732219D02*
X149042053Y-120779838D01*
X149042053Y-120779838D02*
X149137291Y-120875076D01*
X149137291Y-120875076D02*
X149184910Y-121065552D01*
X149184910Y-121065552D02*
X149184910Y-121398885D01*
X149184910Y-121398885D02*
X149137291Y-121589361D01*
X149137291Y-121589361D02*
X149042053Y-121684600D01*
X149042053Y-121684600D02*
X148946815Y-121732219D01*
X148946815Y-121732219D02*
X148756339Y-121732219D01*
X148756339Y-121732219D02*
X148661101Y-121684600D01*
X148661101Y-121684600D02*
X148565863Y-121589361D01*
X148565863Y-121589361D02*
X148518244Y-121398885D01*
X148518244Y-121398885D02*
X148518244Y-121065552D01*
X148518244Y-121065552D02*
X148565863Y-120875076D01*
X148565863Y-120875076D02*
X148661101Y-120779838D01*
X148661101Y-120779838D02*
X148756339Y-120732219D01*
X149565863Y-120827457D02*
X149613482Y-120779838D01*
X149613482Y-120779838D02*
X149708720Y-120732219D01*
X149708720Y-120732219D02*
X149946815Y-120732219D01*
X149946815Y-120732219D02*
X150042053Y-120779838D01*
X150042053Y-120779838D02*
X150089672Y-120827457D01*
X150089672Y-120827457D02*
X150137291Y-120922695D01*
X150137291Y-120922695D02*
X150137291Y-121017933D01*
X150137291Y-121017933D02*
X150089672Y-121160790D01*
X150089672Y-121160790D02*
X149518244Y-121732219D01*
X149518244Y-121732219D02*
X150137291Y-121732219D01*
X151089672Y-121732219D02*
X150518244Y-121732219D01*
X150803958Y-121732219D02*
X150803958Y-120732219D01*
X150803958Y-120732219D02*
X150708720Y-120875076D01*
X150708720Y-120875076D02*
X150613482Y-120970314D01*
X150613482Y-120970314D02*
X150518244Y-121017933D01*
X130112219Y-138130326D02*
X129112219Y-138130326D01*
X129112219Y-138130326D02*
X129112219Y-137892231D01*
X129112219Y-137892231D02*
X129159838Y-137749374D01*
X129159838Y-137749374D02*
X129255076Y-137654136D01*
X129255076Y-137654136D02*
X129350314Y-137606517D01*
X129350314Y-137606517D02*
X129540790Y-137558898D01*
X129540790Y-137558898D02*
X129683647Y-137558898D01*
X129683647Y-137558898D02*
X129874123Y-137606517D01*
X129874123Y-137606517D02*
X129969361Y-137654136D01*
X129969361Y-137654136D02*
X130064600Y-137749374D01*
X130064600Y-137749374D02*
X130112219Y-137892231D01*
X130112219Y-137892231D02*
X130112219Y-138130326D01*
X129112219Y-137273183D02*
X129112219Y-136701755D01*
X130112219Y-136987469D02*
X129112219Y-136987469D01*
X130112219Y-135796993D02*
X129636028Y-136130326D01*
X130112219Y-136368421D02*
X129112219Y-136368421D01*
X129112219Y-136368421D02*
X129112219Y-135987469D01*
X129112219Y-135987469D02*
X129159838Y-135892231D01*
X129159838Y-135892231D02*
X129207457Y-135844612D01*
X129207457Y-135844612D02*
X129302695Y-135796993D01*
X129302695Y-135796993D02*
X129445552Y-135796993D01*
X129445552Y-135796993D02*
X129540790Y-135844612D01*
X129540790Y-135844612D02*
X129588409Y-135892231D01*
X129588409Y-135892231D02*
X129636028Y-135987469D01*
X129636028Y-135987469D02*
X129636028Y-136368421D01*
X121492219Y-104773183D02*
X121492219Y-104201755D01*
X122492219Y-104487469D02*
X121492219Y-104487469D01*
X122492219Y-103868421D02*
X121492219Y-103868421D01*
X121492219Y-103868421D02*
X121492219Y-103630326D01*
X121492219Y-103630326D02*
X121539838Y-103487469D01*
X121539838Y-103487469D02*
X121635076Y-103392231D01*
X121635076Y-103392231D02*
X121730314Y-103344612D01*
X121730314Y-103344612D02*
X121920790Y-103296993D01*
X121920790Y-103296993D02*
X122063647Y-103296993D01*
X122063647Y-103296993D02*
X122254123Y-103344612D01*
X122254123Y-103344612D02*
X122349361Y-103392231D01*
X122349361Y-103392231D02*
X122444600Y-103487469D01*
X122444600Y-103487469D02*
X122492219Y-103630326D01*
X122492219Y-103630326D02*
X122492219Y-103868421D01*
X121492219Y-102677945D02*
X121492219Y-102487469D01*
X121492219Y-102487469D02*
X121539838Y-102392231D01*
X121539838Y-102392231D02*
X121635076Y-102296993D01*
X121635076Y-102296993D02*
X121825552Y-102249374D01*
X121825552Y-102249374D02*
X122158885Y-102249374D01*
X122158885Y-102249374D02*
X122349361Y-102296993D01*
X122349361Y-102296993D02*
X122444600Y-102392231D01*
X122444600Y-102392231D02*
X122492219Y-102487469D01*
X122492219Y-102487469D02*
X122492219Y-102677945D01*
X122492219Y-102677945D02*
X122444600Y-102773183D01*
X122444600Y-102773183D02*
X122349361Y-102868421D01*
X122349361Y-102868421D02*
X122158885Y-102916040D01*
X122158885Y-102916040D02*
X121825552Y-102916040D01*
X121825552Y-102916040D02*
X121635076Y-102868421D01*
X121635076Y-102868421D02*
X121539838Y-102773183D01*
X121539838Y-102773183D02*
X121492219Y-102677945D01*
X137550327Y-129352219D02*
X137550327Y-128352219D01*
X138216993Y-128352219D02*
X138407469Y-128352219D01*
X138407469Y-128352219D02*
X138502707Y-128399838D01*
X138502707Y-128399838D02*
X138597945Y-128495076D01*
X138597945Y-128495076D02*
X138645564Y-128685552D01*
X138645564Y-128685552D02*
X138645564Y-129018885D01*
X138645564Y-129018885D02*
X138597945Y-129209361D01*
X138597945Y-129209361D02*
X138502707Y-129304600D01*
X138502707Y-129304600D02*
X138407469Y-129352219D01*
X138407469Y-129352219D02*
X138216993Y-129352219D01*
X138216993Y-129352219D02*
X138121755Y-129304600D01*
X138121755Y-129304600D02*
X138026517Y-129209361D01*
X138026517Y-129209361D02*
X137978898Y-129018885D01*
X137978898Y-129018885D02*
X137978898Y-128685552D01*
X137978898Y-128685552D02*
X138026517Y-128495076D01*
X138026517Y-128495076D02*
X138121755Y-128399838D01*
X138121755Y-128399838D02*
X138216993Y-128352219D01*
X139216993Y-128780790D02*
X139121755Y-128733171D01*
X139121755Y-128733171D02*
X139074136Y-128685552D01*
X139074136Y-128685552D02*
X139026517Y-128590314D01*
X139026517Y-128590314D02*
X139026517Y-128542695D01*
X139026517Y-128542695D02*
X139074136Y-128447457D01*
X139074136Y-128447457D02*
X139121755Y-128399838D01*
X139121755Y-128399838D02*
X139216993Y-128352219D01*
X139216993Y-128352219D02*
X139407469Y-128352219D01*
X139407469Y-128352219D02*
X139502707Y-128399838D01*
X139502707Y-128399838D02*
X139550326Y-128447457D01*
X139550326Y-128447457D02*
X139597945Y-128542695D01*
X139597945Y-128542695D02*
X139597945Y-128590314D01*
X139597945Y-128590314D02*
X139550326Y-128685552D01*
X139550326Y-128685552D02*
X139502707Y-128733171D01*
X139502707Y-128733171D02*
X139407469Y-128780790D01*
X139407469Y-128780790D02*
X139216993Y-128780790D01*
X139216993Y-128780790D02*
X139121755Y-128828409D01*
X139121755Y-128828409D02*
X139074136Y-128876028D01*
X139074136Y-128876028D02*
X139026517Y-128971266D01*
X139026517Y-128971266D02*
X139026517Y-129161742D01*
X139026517Y-129161742D02*
X139074136Y-129256980D01*
X139074136Y-129256980D02*
X139121755Y-129304600D01*
X139121755Y-129304600D02*
X139216993Y-129352219D01*
X139216993Y-129352219D02*
X139407469Y-129352219D01*
X139407469Y-129352219D02*
X139502707Y-129304600D01*
X139502707Y-129304600D02*
X139550326Y-129256980D01*
X139550326Y-129256980D02*
X139597945Y-129161742D01*
X139597945Y-129161742D02*
X139597945Y-128971266D01*
X139597945Y-128971266D02*
X139550326Y-128876028D01*
X139550326Y-128876028D02*
X139502707Y-128828409D01*
X139502707Y-128828409D02*
X139407469Y-128780790D01*
X148089673Y-126812219D02*
X148089673Y-125812219D01*
X148756339Y-125812219D02*
X148946815Y-125812219D01*
X148946815Y-125812219D02*
X149042053Y-125859838D01*
X149042053Y-125859838D02*
X149137291Y-125955076D01*
X149137291Y-125955076D02*
X149184910Y-126145552D01*
X149184910Y-126145552D02*
X149184910Y-126478885D01*
X149184910Y-126478885D02*
X149137291Y-126669361D01*
X149137291Y-126669361D02*
X149042053Y-126764600D01*
X149042053Y-126764600D02*
X148946815Y-126812219D01*
X148946815Y-126812219D02*
X148756339Y-126812219D01*
X148756339Y-126812219D02*
X148661101Y-126764600D01*
X148661101Y-126764600D02*
X148565863Y-126669361D01*
X148565863Y-126669361D02*
X148518244Y-126478885D01*
X148518244Y-126478885D02*
X148518244Y-126145552D01*
X148518244Y-126145552D02*
X148565863Y-125955076D01*
X148565863Y-125955076D02*
X148661101Y-125859838D01*
X148661101Y-125859838D02*
X148756339Y-125812219D01*
X149661101Y-126812219D02*
X149851577Y-126812219D01*
X149851577Y-126812219D02*
X149946815Y-126764600D01*
X149946815Y-126764600D02*
X149994434Y-126716980D01*
X149994434Y-126716980D02*
X150089672Y-126574123D01*
X150089672Y-126574123D02*
X150137291Y-126383647D01*
X150137291Y-126383647D02*
X150137291Y-126002695D01*
X150137291Y-126002695D02*
X150089672Y-125907457D01*
X150089672Y-125907457D02*
X150042053Y-125859838D01*
X150042053Y-125859838D02*
X149946815Y-125812219D01*
X149946815Y-125812219D02*
X149756339Y-125812219D01*
X149756339Y-125812219D02*
X149661101Y-125859838D01*
X149661101Y-125859838D02*
X149613482Y-125907457D01*
X149613482Y-125907457D02*
X149565863Y-126002695D01*
X149565863Y-126002695D02*
X149565863Y-126240790D01*
X149565863Y-126240790D02*
X149613482Y-126336028D01*
X149613482Y-126336028D02*
X149661101Y-126383647D01*
X149661101Y-126383647D02*
X149756339Y-126431266D01*
X149756339Y-126431266D02*
X149946815Y-126431266D01*
X149946815Y-126431266D02*
X150042053Y-126383647D01*
X150042053Y-126383647D02*
X150089672Y-126336028D01*
X150089672Y-126336028D02*
X150137291Y-126240790D01*
X116412219Y-104773183D02*
X116412219Y-104201755D01*
X117412219Y-104487469D02*
X116412219Y-104487469D01*
X117412219Y-103868421D02*
X116412219Y-103868421D01*
X116412219Y-103868421D02*
X117126504Y-103535088D01*
X117126504Y-103535088D02*
X116412219Y-103201755D01*
X116412219Y-103201755D02*
X117412219Y-103201755D01*
X117364600Y-102773183D02*
X117412219Y-102630326D01*
X117412219Y-102630326D02*
X117412219Y-102392231D01*
X117412219Y-102392231D02*
X117364600Y-102296993D01*
X117364600Y-102296993D02*
X117316980Y-102249374D01*
X117316980Y-102249374D02*
X117221742Y-102201755D01*
X117221742Y-102201755D02*
X117126504Y-102201755D01*
X117126504Y-102201755D02*
X117031266Y-102249374D01*
X117031266Y-102249374D02*
X116983647Y-102296993D01*
X116983647Y-102296993D02*
X116936028Y-102392231D01*
X116936028Y-102392231D02*
X116888409Y-102582707D01*
X116888409Y-102582707D02*
X116840790Y-102677945D01*
X116840790Y-102677945D02*
X116793171Y-102725564D01*
X116793171Y-102725564D02*
X116697933Y-102773183D01*
X116697933Y-102773183D02*
X116602695Y-102773183D01*
X116602695Y-102773183D02*
X116507457Y-102725564D01*
X116507457Y-102725564D02*
X116459838Y-102677945D01*
X116459838Y-102677945D02*
X116412219Y-102582707D01*
X116412219Y-102582707D02*
X116412219Y-102344612D01*
X116412219Y-102344612D02*
X116459838Y-102201755D01*
X131699838Y-137606517D02*
X131652219Y-137701755D01*
X131652219Y-137701755D02*
X131652219Y-137844612D01*
X131652219Y-137844612D02*
X131699838Y-137987469D01*
X131699838Y-137987469D02*
X131795076Y-138082707D01*
X131795076Y-138082707D02*
X131890314Y-138130326D01*
X131890314Y-138130326D02*
X132080790Y-138177945D01*
X132080790Y-138177945D02*
X132223647Y-138177945D01*
X132223647Y-138177945D02*
X132414123Y-138130326D01*
X132414123Y-138130326D02*
X132509361Y-138082707D01*
X132509361Y-138082707D02*
X132604600Y-137987469D01*
X132604600Y-137987469D02*
X132652219Y-137844612D01*
X132652219Y-137844612D02*
X132652219Y-137749374D01*
X132652219Y-137749374D02*
X132604600Y-137606517D01*
X132604600Y-137606517D02*
X132556980Y-137558898D01*
X132556980Y-137558898D02*
X132223647Y-137558898D01*
X132223647Y-137558898D02*
X132223647Y-137749374D01*
X132652219Y-137130326D02*
X131652219Y-137130326D01*
X131652219Y-137130326D02*
X132652219Y-136558898D01*
X132652219Y-136558898D02*
X131652219Y-136558898D01*
X132652219Y-136082707D02*
X131652219Y-136082707D01*
X131652219Y-136082707D02*
X131652219Y-135844612D01*
X131652219Y-135844612D02*
X131699838Y-135701755D01*
X131699838Y-135701755D02*
X131795076Y-135606517D01*
X131795076Y-135606517D02*
X131890314Y-135558898D01*
X131890314Y-135558898D02*
X132080790Y-135511279D01*
X132080790Y-135511279D02*
X132223647Y-135511279D01*
X132223647Y-135511279D02*
X132414123Y-135558898D01*
X132414123Y-135558898D02*
X132509361Y-135606517D01*
X132509361Y-135606517D02*
X132604600Y-135701755D01*
X132604600Y-135701755D02*
X132652219Y-135844612D01*
X132652219Y-135844612D02*
X132652219Y-136082707D01*
X162152219Y-138273183D02*
X162152219Y-137701755D01*
X163152219Y-137987469D02*
X162152219Y-137987469D01*
X162152219Y-137463659D02*
X163152219Y-136796993D01*
X162152219Y-136796993D02*
X163152219Y-137463659D01*
X163152219Y-136416040D02*
X162152219Y-136416040D01*
X162152219Y-136416040D02*
X162152219Y-136177945D01*
X162152219Y-136177945D02*
X162199838Y-136035088D01*
X162199838Y-136035088D02*
X162295076Y-135939850D01*
X162295076Y-135939850D02*
X162390314Y-135892231D01*
X162390314Y-135892231D02*
X162580790Y-135844612D01*
X162580790Y-135844612D02*
X162723647Y-135844612D01*
X162723647Y-135844612D02*
X162914123Y-135892231D01*
X162914123Y-135892231D02*
X163009361Y-135939850D01*
X163009361Y-135939850D02*
X163104600Y-136035088D01*
X163104600Y-136035088D02*
X163152219Y-136177945D01*
X163152219Y-136177945D02*
X163152219Y-136416040D01*
X162152219Y-135225564D02*
X162152219Y-135130326D01*
X162152219Y-135130326D02*
X162199838Y-135035088D01*
X162199838Y-135035088D02*
X162247457Y-134987469D01*
X162247457Y-134987469D02*
X162342695Y-134939850D01*
X162342695Y-134939850D02*
X162533171Y-134892231D01*
X162533171Y-134892231D02*
X162771266Y-134892231D01*
X162771266Y-134892231D02*
X162961742Y-134939850D01*
X162961742Y-134939850D02*
X163056980Y-134987469D01*
X163056980Y-134987469D02*
X163104600Y-135035088D01*
X163104600Y-135035088D02*
X163152219Y-135130326D01*
X163152219Y-135130326D02*
X163152219Y-135225564D01*
X163152219Y-135225564D02*
X163104600Y-135320802D01*
X163104600Y-135320802D02*
X163056980Y-135368421D01*
X163056980Y-135368421D02*
X162961742Y-135416040D01*
X162961742Y-135416040D02*
X162771266Y-135463659D01*
X162771266Y-135463659D02*
X162533171Y-135463659D01*
X162533171Y-135463659D02*
X162342695Y-135416040D01*
X162342695Y-135416040D02*
X162247457Y-135368421D01*
X162247457Y-135368421D02*
X162199838Y-135320802D01*
X162199838Y-135320802D02*
X162152219Y-135225564D01*
D11*
X172235714Y-124646952D02*
X172421428Y-124708857D01*
X172421428Y-124708857D02*
X172483333Y-124770761D01*
X172483333Y-124770761D02*
X172545237Y-124894571D01*
X172545237Y-124894571D02*
X172545237Y-125080285D01*
X172545237Y-125080285D02*
X172483333Y-125204095D01*
X172483333Y-125204095D02*
X172421428Y-125266000D01*
X172421428Y-125266000D02*
X172297618Y-125327904D01*
X172297618Y-125327904D02*
X171802380Y-125327904D01*
X171802380Y-125327904D02*
X171802380Y-124027904D01*
X171802380Y-124027904D02*
X172235714Y-124027904D01*
X172235714Y-124027904D02*
X172359523Y-124089809D01*
X172359523Y-124089809D02*
X172421428Y-124151714D01*
X172421428Y-124151714D02*
X172483333Y-124275523D01*
X172483333Y-124275523D02*
X172483333Y-124399333D01*
X172483333Y-124399333D02*
X172421428Y-124523142D01*
X172421428Y-124523142D02*
X172359523Y-124585047D01*
X172359523Y-124585047D02*
X172235714Y-124646952D01*
X172235714Y-124646952D02*
X171802380Y-124646952D01*
X173349999Y-124027904D02*
X173597618Y-124027904D01*
X173597618Y-124027904D02*
X173721428Y-124089809D01*
X173721428Y-124089809D02*
X173845237Y-124213619D01*
X173845237Y-124213619D02*
X173907142Y-124461238D01*
X173907142Y-124461238D02*
X173907142Y-124894571D01*
X173907142Y-124894571D02*
X173845237Y-125142190D01*
X173845237Y-125142190D02*
X173721428Y-125266000D01*
X173721428Y-125266000D02*
X173597618Y-125327904D01*
X173597618Y-125327904D02*
X173349999Y-125327904D01*
X173349999Y-125327904D02*
X173226190Y-125266000D01*
X173226190Y-125266000D02*
X173102380Y-125142190D01*
X173102380Y-125142190D02*
X173040476Y-124894571D01*
X173040476Y-124894571D02*
X173040476Y-124461238D01*
X173040476Y-124461238D02*
X173102380Y-124213619D01*
X173102380Y-124213619D02*
X173226190Y-124089809D01*
X173226190Y-124089809D02*
X173349999Y-124027904D01*
X174711904Y-124027904D02*
X174959523Y-124027904D01*
X174959523Y-124027904D02*
X175083333Y-124089809D01*
X175083333Y-124089809D02*
X175207142Y-124213619D01*
X175207142Y-124213619D02*
X175269047Y-124461238D01*
X175269047Y-124461238D02*
X175269047Y-124894571D01*
X175269047Y-124894571D02*
X175207142Y-125142190D01*
X175207142Y-125142190D02*
X175083333Y-125266000D01*
X175083333Y-125266000D02*
X174959523Y-125327904D01*
X174959523Y-125327904D02*
X174711904Y-125327904D01*
X174711904Y-125327904D02*
X174588095Y-125266000D01*
X174588095Y-125266000D02*
X174464285Y-125142190D01*
X174464285Y-125142190D02*
X174402381Y-124894571D01*
X174402381Y-124894571D02*
X174402381Y-124461238D01*
X174402381Y-124461238D02*
X174464285Y-124213619D01*
X174464285Y-124213619D02*
X174588095Y-124089809D01*
X174588095Y-124089809D02*
X174711904Y-124027904D01*
X175640476Y-124027904D02*
X176383333Y-124027904D01*
X176011905Y-125327904D02*
X176011905Y-124027904D01*
D10*
X158072219Y-138130326D02*
X157072219Y-138130326D01*
X157072219Y-137463660D02*
X157072219Y-137273184D01*
X157072219Y-137273184D02*
X157119838Y-137177946D01*
X157119838Y-137177946D02*
X157215076Y-137082708D01*
X157215076Y-137082708D02*
X157405552Y-137035089D01*
X157405552Y-137035089D02*
X157738885Y-137035089D01*
X157738885Y-137035089D02*
X157929361Y-137082708D01*
X157929361Y-137082708D02*
X158024600Y-137177946D01*
X158024600Y-137177946D02*
X158072219Y-137273184D01*
X158072219Y-137273184D02*
X158072219Y-137463660D01*
X158072219Y-137463660D02*
X158024600Y-137558898D01*
X158024600Y-137558898D02*
X157929361Y-137654136D01*
X157929361Y-137654136D02*
X157738885Y-137701755D01*
X157738885Y-137701755D02*
X157405552Y-137701755D01*
X157405552Y-137701755D02*
X157215076Y-137654136D01*
X157215076Y-137654136D02*
X157119838Y-137558898D01*
X157119838Y-137558898D02*
X157072219Y-137463660D01*
X157167457Y-136654136D02*
X157119838Y-136606517D01*
X157119838Y-136606517D02*
X157072219Y-136511279D01*
X157072219Y-136511279D02*
X157072219Y-136273184D01*
X157072219Y-136273184D02*
X157119838Y-136177946D01*
X157119838Y-136177946D02*
X157167457Y-136130327D01*
X157167457Y-136130327D02*
X157262695Y-136082708D01*
X157262695Y-136082708D02*
X157357933Y-136082708D01*
X157357933Y-136082708D02*
X157500790Y-136130327D01*
X157500790Y-136130327D02*
X158072219Y-136701755D01*
X158072219Y-136701755D02*
X158072219Y-136082708D01*
X117412219Y-138130326D02*
X116412219Y-138130326D01*
X116412219Y-137463660D02*
X116412219Y-137273184D01*
X116412219Y-137273184D02*
X116459838Y-137177946D01*
X116459838Y-137177946D02*
X116555076Y-137082708D01*
X116555076Y-137082708D02*
X116745552Y-137035089D01*
X116745552Y-137035089D02*
X117078885Y-137035089D01*
X117078885Y-137035089D02*
X117269361Y-137082708D01*
X117269361Y-137082708D02*
X117364600Y-137177946D01*
X117364600Y-137177946D02*
X117412219Y-137273184D01*
X117412219Y-137273184D02*
X117412219Y-137463660D01*
X117412219Y-137463660D02*
X117364600Y-137558898D01*
X117364600Y-137558898D02*
X117269361Y-137654136D01*
X117269361Y-137654136D02*
X117078885Y-137701755D01*
X117078885Y-137701755D02*
X116745552Y-137701755D01*
X116745552Y-137701755D02*
X116555076Y-137654136D01*
X116555076Y-137654136D02*
X116459838Y-137558898D01*
X116459838Y-137558898D02*
X116412219Y-137463660D01*
X117412219Y-136082708D02*
X117412219Y-136654136D01*
X117412219Y-136368422D02*
X116412219Y-136368422D01*
X116412219Y-136368422D02*
X116555076Y-136463660D01*
X116555076Y-136463660D02*
X116650314Y-136558898D01*
X116650314Y-136558898D02*
X116697933Y-136654136D01*
X117412219Y-135130327D02*
X117412219Y-135701755D01*
X117412219Y-135416041D02*
X116412219Y-135416041D01*
X116412219Y-135416041D02*
X116555076Y-135511279D01*
X116555076Y-135511279D02*
X116650314Y-135606517D01*
X116650314Y-135606517D02*
X116697933Y-135701755D01*
D11*
X138866667Y-141234666D02*
X139333334Y-142634666D01*
X139333334Y-142634666D02*
X139800000Y-141234666D01*
X141000000Y-142634666D02*
X140200000Y-142634666D01*
X140600000Y-142634666D02*
X140600000Y-141234666D01*
X140600000Y-141234666D02*
X140466667Y-141434666D01*
X140466667Y-141434666D02*
X140333334Y-141568000D01*
X140333334Y-141568000D02*
X140200000Y-141634666D01*
X141600000Y-142501333D02*
X141666667Y-142568000D01*
X141666667Y-142568000D02*
X141600000Y-142634666D01*
X141600000Y-142634666D02*
X141533333Y-142568000D01*
X141533333Y-142568000D02*
X141600000Y-142501333D01*
X141600000Y-142501333D02*
X141600000Y-142634666D01*
X142533334Y-141234666D02*
X142666667Y-141234666D01*
X142666667Y-141234666D02*
X142800000Y-141301333D01*
X142800000Y-141301333D02*
X142866667Y-141368000D01*
X142866667Y-141368000D02*
X142933334Y-141501333D01*
X142933334Y-141501333D02*
X143000000Y-141768000D01*
X143000000Y-141768000D02*
X143000000Y-142101333D01*
X143000000Y-142101333D02*
X142933334Y-142368000D01*
X142933334Y-142368000D02*
X142866667Y-142501333D01*
X142866667Y-142501333D02*
X142800000Y-142568000D01*
X142800000Y-142568000D02*
X142666667Y-142634666D01*
X142666667Y-142634666D02*
X142533334Y-142634666D01*
X142533334Y-142634666D02*
X142400000Y-142568000D01*
X142400000Y-142568000D02*
X142333334Y-142501333D01*
X142333334Y-142501333D02*
X142266667Y-142368000D01*
X142266667Y-142368000D02*
X142200000Y-142101333D01*
X142200000Y-142101333D02*
X142200000Y-141768000D01*
X142200000Y-141768000D02*
X142266667Y-141501333D01*
X142266667Y-141501333D02*
X142333334Y-141368000D01*
X142333334Y-141368000D02*
X142400000Y-141301333D01*
X142400000Y-141301333D02*
X142533334Y-141234666D01*
D10*
X148089673Y-124272219D02*
X148089673Y-123272219D01*
X148756339Y-123272219D02*
X148946815Y-123272219D01*
X148946815Y-123272219D02*
X149042053Y-123319838D01*
X149042053Y-123319838D02*
X149137291Y-123415076D01*
X149137291Y-123415076D02*
X149184910Y-123605552D01*
X149184910Y-123605552D02*
X149184910Y-123938885D01*
X149184910Y-123938885D02*
X149137291Y-124129361D01*
X149137291Y-124129361D02*
X149042053Y-124224600D01*
X149042053Y-124224600D02*
X148946815Y-124272219D01*
X148946815Y-124272219D02*
X148756339Y-124272219D01*
X148756339Y-124272219D02*
X148661101Y-124224600D01*
X148661101Y-124224600D02*
X148565863Y-124129361D01*
X148565863Y-124129361D02*
X148518244Y-123938885D01*
X148518244Y-123938885D02*
X148518244Y-123605552D01*
X148518244Y-123605552D02*
X148565863Y-123415076D01*
X148565863Y-123415076D02*
X148661101Y-123319838D01*
X148661101Y-123319838D02*
X148756339Y-123272219D01*
X150137291Y-124272219D02*
X149565863Y-124272219D01*
X149851577Y-124272219D02*
X149851577Y-123272219D01*
X149851577Y-123272219D02*
X149756339Y-123415076D01*
X149756339Y-123415076D02*
X149661101Y-123510314D01*
X149661101Y-123510314D02*
X149565863Y-123557933D01*
X151042053Y-123272219D02*
X150565863Y-123272219D01*
X150565863Y-123272219D02*
X150518244Y-123748409D01*
X150518244Y-123748409D02*
X150565863Y-123700790D01*
X150565863Y-123700790D02*
X150661101Y-123653171D01*
X150661101Y-123653171D02*
X150899196Y-123653171D01*
X150899196Y-123653171D02*
X150994434Y-123700790D01*
X150994434Y-123700790D02*
X151042053Y-123748409D01*
X151042053Y-123748409D02*
X151089672Y-123843647D01*
X151089672Y-123843647D02*
X151089672Y-124081742D01*
X151089672Y-124081742D02*
X151042053Y-124176980D01*
X151042053Y-124176980D02*
X150994434Y-124224600D01*
X150994434Y-124224600D02*
X150899196Y-124272219D01*
X150899196Y-124272219D02*
X150661101Y-124272219D01*
X150661101Y-124272219D02*
X150565863Y-124224600D01*
X150565863Y-124224600D02*
X150518244Y-124176980D01*
X129731266Y-104630326D02*
X129731266Y-103868422D01*
X130112219Y-104249374D02*
X129350314Y-104249374D01*
X129112219Y-103487469D02*
X129112219Y-102868422D01*
X129112219Y-102868422D02*
X129493171Y-103201755D01*
X129493171Y-103201755D02*
X129493171Y-103058898D01*
X129493171Y-103058898D02*
X129540790Y-102963660D01*
X129540790Y-102963660D02*
X129588409Y-102916041D01*
X129588409Y-102916041D02*
X129683647Y-102868422D01*
X129683647Y-102868422D02*
X129921742Y-102868422D01*
X129921742Y-102868422D02*
X130016980Y-102916041D01*
X130016980Y-102916041D02*
X130064600Y-102963660D01*
X130064600Y-102963660D02*
X130112219Y-103058898D01*
X130112219Y-103058898D02*
X130112219Y-103344612D01*
X130112219Y-103344612D02*
X130064600Y-103439850D01*
X130064600Y-103439850D02*
X130016980Y-103487469D01*
X129112219Y-102582707D02*
X130112219Y-102249374D01*
X130112219Y-102249374D02*
X129112219Y-101916041D01*
X129112219Y-101677945D02*
X129112219Y-101058898D01*
X129112219Y-101058898D02*
X129493171Y-101392231D01*
X129493171Y-101392231D02*
X129493171Y-101249374D01*
X129493171Y-101249374D02*
X129540790Y-101154136D01*
X129540790Y-101154136D02*
X129588409Y-101106517D01*
X129588409Y-101106517D02*
X129683647Y-101058898D01*
X129683647Y-101058898D02*
X129921742Y-101058898D01*
X129921742Y-101058898D02*
X130016980Y-101106517D01*
X130016980Y-101106517D02*
X130064600Y-101154136D01*
X130064600Y-101154136D02*
X130112219Y-101249374D01*
X130112219Y-101249374D02*
X130112219Y-101535088D01*
X130112219Y-101535088D02*
X130064600Y-101630326D01*
X130064600Y-101630326D02*
X130016980Y-101677945D01*
X170039838Y-137606517D02*
X169992219Y-137701755D01*
X169992219Y-137701755D02*
X169992219Y-137844612D01*
X169992219Y-137844612D02*
X170039838Y-137987469D01*
X170039838Y-137987469D02*
X170135076Y-138082707D01*
X170135076Y-138082707D02*
X170230314Y-138130326D01*
X170230314Y-138130326D02*
X170420790Y-138177945D01*
X170420790Y-138177945D02*
X170563647Y-138177945D01*
X170563647Y-138177945D02*
X170754123Y-138130326D01*
X170754123Y-138130326D02*
X170849361Y-138082707D01*
X170849361Y-138082707D02*
X170944600Y-137987469D01*
X170944600Y-137987469D02*
X170992219Y-137844612D01*
X170992219Y-137844612D02*
X170992219Y-137749374D01*
X170992219Y-137749374D02*
X170944600Y-137606517D01*
X170944600Y-137606517D02*
X170896980Y-137558898D01*
X170896980Y-137558898D02*
X170563647Y-137558898D01*
X170563647Y-137558898D02*
X170563647Y-137749374D01*
X170992219Y-137130326D02*
X169992219Y-137130326D01*
X169992219Y-137130326D02*
X170992219Y-136558898D01*
X170992219Y-136558898D02*
X169992219Y-136558898D01*
X170992219Y-136082707D02*
X169992219Y-136082707D01*
X169992219Y-136082707D02*
X169992219Y-135844612D01*
X169992219Y-135844612D02*
X170039838Y-135701755D01*
X170039838Y-135701755D02*
X170135076Y-135606517D01*
X170135076Y-135606517D02*
X170230314Y-135558898D01*
X170230314Y-135558898D02*
X170420790Y-135511279D01*
X170420790Y-135511279D02*
X170563647Y-135511279D01*
X170563647Y-135511279D02*
X170754123Y-135558898D01*
X170754123Y-135558898D02*
X170849361Y-135606517D01*
X170849361Y-135606517D02*
X170944600Y-135701755D01*
X170944600Y-135701755D02*
X170992219Y-135844612D01*
X170992219Y-135844612D02*
X170992219Y-136082707D01*
D11*
X158111905Y-125327904D02*
X157678572Y-124708857D01*
X157369048Y-125327904D02*
X157369048Y-124027904D01*
X157369048Y-124027904D02*
X157864286Y-124027904D01*
X157864286Y-124027904D02*
X157988096Y-124089809D01*
X157988096Y-124089809D02*
X158050001Y-124151714D01*
X158050001Y-124151714D02*
X158111905Y-124275523D01*
X158111905Y-124275523D02*
X158111905Y-124461238D01*
X158111905Y-124461238D02*
X158050001Y-124585047D01*
X158050001Y-124585047D02*
X157988096Y-124646952D01*
X157988096Y-124646952D02*
X157864286Y-124708857D01*
X157864286Y-124708857D02*
X157369048Y-124708857D01*
X158669048Y-124646952D02*
X159102382Y-124646952D01*
X159288096Y-125327904D02*
X158669048Y-125327904D01*
X158669048Y-125327904D02*
X158669048Y-124027904D01*
X158669048Y-124027904D02*
X159288096Y-124027904D01*
X159783334Y-125266000D02*
X159969048Y-125327904D01*
X159969048Y-125327904D02*
X160278572Y-125327904D01*
X160278572Y-125327904D02*
X160402381Y-125266000D01*
X160402381Y-125266000D02*
X160464286Y-125204095D01*
X160464286Y-125204095D02*
X160526191Y-125080285D01*
X160526191Y-125080285D02*
X160526191Y-124956476D01*
X160526191Y-124956476D02*
X160464286Y-124832666D01*
X160464286Y-124832666D02*
X160402381Y-124770761D01*
X160402381Y-124770761D02*
X160278572Y-124708857D01*
X160278572Y-124708857D02*
X160030953Y-124646952D01*
X160030953Y-124646952D02*
X159907143Y-124585047D01*
X159907143Y-124585047D02*
X159845238Y-124523142D01*
X159845238Y-124523142D02*
X159783334Y-124399333D01*
X159783334Y-124399333D02*
X159783334Y-124275523D01*
X159783334Y-124275523D02*
X159845238Y-124151714D01*
X159845238Y-124151714D02*
X159907143Y-124089809D01*
X159907143Y-124089809D02*
X160030953Y-124027904D01*
X160030953Y-124027904D02*
X160340476Y-124027904D01*
X160340476Y-124027904D02*
X160526191Y-124089809D01*
X161083333Y-124646952D02*
X161516667Y-124646952D01*
X161702381Y-125327904D02*
X161083333Y-125327904D01*
X161083333Y-125327904D02*
X161083333Y-124027904D01*
X161083333Y-124027904D02*
X161702381Y-124027904D01*
X162073809Y-124027904D02*
X162816666Y-124027904D01*
X162445238Y-125327904D02*
X162445238Y-124027904D01*
D10*
X165692219Y-138130326D02*
X164692219Y-138130326D01*
X164692219Y-137463660D02*
X164692219Y-137273184D01*
X164692219Y-137273184D02*
X164739838Y-137177946D01*
X164739838Y-137177946D02*
X164835076Y-137082708D01*
X164835076Y-137082708D02*
X165025552Y-137035089D01*
X165025552Y-137035089D02*
X165358885Y-137035089D01*
X165358885Y-137035089D02*
X165549361Y-137082708D01*
X165549361Y-137082708D02*
X165644600Y-137177946D01*
X165644600Y-137177946D02*
X165692219Y-137273184D01*
X165692219Y-137273184D02*
X165692219Y-137463660D01*
X165692219Y-137463660D02*
X165644600Y-137558898D01*
X165644600Y-137558898D02*
X165549361Y-137654136D01*
X165549361Y-137654136D02*
X165358885Y-137701755D01*
X165358885Y-137701755D02*
X165025552Y-137701755D01*
X165025552Y-137701755D02*
X164835076Y-137654136D01*
X164835076Y-137654136D02*
X164739838Y-137558898D01*
X164739838Y-137558898D02*
X164692219Y-137463660D01*
X165692219Y-136082708D02*
X165692219Y-136654136D01*
X165692219Y-136368422D02*
X164692219Y-136368422D01*
X164692219Y-136368422D02*
X164835076Y-136463660D01*
X164835076Y-136463660D02*
X164930314Y-136558898D01*
X164930314Y-136558898D02*
X164977933Y-136654136D01*
X165120790Y-135511279D02*
X165073171Y-135606517D01*
X165073171Y-135606517D02*
X165025552Y-135654136D01*
X165025552Y-135654136D02*
X164930314Y-135701755D01*
X164930314Y-135701755D02*
X164882695Y-135701755D01*
X164882695Y-135701755D02*
X164787457Y-135654136D01*
X164787457Y-135654136D02*
X164739838Y-135606517D01*
X164739838Y-135606517D02*
X164692219Y-135511279D01*
X164692219Y-135511279D02*
X164692219Y-135320803D01*
X164692219Y-135320803D02*
X164739838Y-135225565D01*
X164739838Y-135225565D02*
X164787457Y-135177946D01*
X164787457Y-135177946D02*
X164882695Y-135130327D01*
X164882695Y-135130327D02*
X164930314Y-135130327D01*
X164930314Y-135130327D02*
X165025552Y-135177946D01*
X165025552Y-135177946D02*
X165073171Y-135225565D01*
X165073171Y-135225565D02*
X165120790Y-135320803D01*
X165120790Y-135320803D02*
X165120790Y-135511279D01*
X165120790Y-135511279D02*
X165168409Y-135606517D01*
X165168409Y-135606517D02*
X165216028Y-135654136D01*
X165216028Y-135654136D02*
X165311266Y-135701755D01*
X165311266Y-135701755D02*
X165501742Y-135701755D01*
X165501742Y-135701755D02*
X165596980Y-135654136D01*
X165596980Y-135654136D02*
X165644600Y-135606517D01*
X165644600Y-135606517D02*
X165692219Y-135511279D01*
X165692219Y-135511279D02*
X165692219Y-135320803D01*
X165692219Y-135320803D02*
X165644600Y-135225565D01*
X165644600Y-135225565D02*
X165596980Y-135177946D01*
X165596980Y-135177946D02*
X165501742Y-135130327D01*
X165501742Y-135130327D02*
X165311266Y-135130327D01*
X165311266Y-135130327D02*
X165216028Y-135177946D01*
X165216028Y-135177946D02*
X165168409Y-135225565D01*
X165168409Y-135225565D02*
X165120790Y-135320803D01*
X136597946Y-124272219D02*
X136597946Y-123272219D01*
X137264612Y-123272219D02*
X137455088Y-123272219D01*
X137455088Y-123272219D02*
X137550326Y-123319838D01*
X137550326Y-123319838D02*
X137645564Y-123415076D01*
X137645564Y-123415076D02*
X137693183Y-123605552D01*
X137693183Y-123605552D02*
X137693183Y-123938885D01*
X137693183Y-123938885D02*
X137645564Y-124129361D01*
X137645564Y-124129361D02*
X137550326Y-124224600D01*
X137550326Y-124224600D02*
X137455088Y-124272219D01*
X137455088Y-124272219D02*
X137264612Y-124272219D01*
X137264612Y-124272219D02*
X137169374Y-124224600D01*
X137169374Y-124224600D02*
X137074136Y-124129361D01*
X137074136Y-124129361D02*
X137026517Y-123938885D01*
X137026517Y-123938885D02*
X137026517Y-123605552D01*
X137026517Y-123605552D02*
X137074136Y-123415076D01*
X137074136Y-123415076D02*
X137169374Y-123319838D01*
X137169374Y-123319838D02*
X137264612Y-123272219D01*
X138645564Y-124272219D02*
X138074136Y-124272219D01*
X138359850Y-124272219D02*
X138359850Y-123272219D01*
X138359850Y-123272219D02*
X138264612Y-123415076D01*
X138264612Y-123415076D02*
X138169374Y-123510314D01*
X138169374Y-123510314D02*
X138074136Y-123557933D01*
X139502707Y-123272219D02*
X139312231Y-123272219D01*
X139312231Y-123272219D02*
X139216993Y-123319838D01*
X139216993Y-123319838D02*
X139169374Y-123367457D01*
X139169374Y-123367457D02*
X139074136Y-123510314D01*
X139074136Y-123510314D02*
X139026517Y-123700790D01*
X139026517Y-123700790D02*
X139026517Y-124081742D01*
X139026517Y-124081742D02*
X139074136Y-124176980D01*
X139074136Y-124176980D02*
X139121755Y-124224600D01*
X139121755Y-124224600D02*
X139216993Y-124272219D01*
X139216993Y-124272219D02*
X139407469Y-124272219D01*
X139407469Y-124272219D02*
X139502707Y-124224600D01*
X139502707Y-124224600D02*
X139550326Y-124176980D01*
X139550326Y-124176980D02*
X139597945Y-124081742D01*
X139597945Y-124081742D02*
X139597945Y-123843647D01*
X139597945Y-123843647D02*
X139550326Y-123748409D01*
X139550326Y-123748409D02*
X139502707Y-123700790D01*
X139502707Y-123700790D02*
X139407469Y-123653171D01*
X139407469Y-123653171D02*
X139216993Y-123653171D01*
X139216993Y-123653171D02*
X139121755Y-123700790D01*
X139121755Y-123700790D02*
X139074136Y-123748409D01*
X139074136Y-123748409D02*
X139026517Y-123843647D01*
X113919838Y-104106517D02*
X113872219Y-104201755D01*
X113872219Y-104201755D02*
X113872219Y-104344612D01*
X113872219Y-104344612D02*
X113919838Y-104487469D01*
X113919838Y-104487469D02*
X114015076Y-104582707D01*
X114015076Y-104582707D02*
X114110314Y-104630326D01*
X114110314Y-104630326D02*
X114300790Y-104677945D01*
X114300790Y-104677945D02*
X114443647Y-104677945D01*
X114443647Y-104677945D02*
X114634123Y-104630326D01*
X114634123Y-104630326D02*
X114729361Y-104582707D01*
X114729361Y-104582707D02*
X114824600Y-104487469D01*
X114824600Y-104487469D02*
X114872219Y-104344612D01*
X114872219Y-104344612D02*
X114872219Y-104249374D01*
X114872219Y-104249374D02*
X114824600Y-104106517D01*
X114824600Y-104106517D02*
X114776980Y-104058898D01*
X114776980Y-104058898D02*
X114443647Y-104058898D01*
X114443647Y-104058898D02*
X114443647Y-104249374D01*
X114872219Y-103630326D02*
X113872219Y-103630326D01*
X113872219Y-103630326D02*
X114872219Y-103058898D01*
X114872219Y-103058898D02*
X113872219Y-103058898D01*
X114872219Y-102582707D02*
X113872219Y-102582707D01*
X113872219Y-102582707D02*
X113872219Y-102344612D01*
X113872219Y-102344612D02*
X113919838Y-102201755D01*
X113919838Y-102201755D02*
X114015076Y-102106517D01*
X114015076Y-102106517D02*
X114110314Y-102058898D01*
X114110314Y-102058898D02*
X114300790Y-102011279D01*
X114300790Y-102011279D02*
X114443647Y-102011279D01*
X114443647Y-102011279D02*
X114634123Y-102058898D01*
X114634123Y-102058898D02*
X114729361Y-102106517D01*
X114729361Y-102106517D02*
X114824600Y-102201755D01*
X114824600Y-102201755D02*
X114872219Y-102344612D01*
X114872219Y-102344612D02*
X114872219Y-102582707D01*
X136978898Y-113731266D02*
X137740803Y-113731266D01*
X137359850Y-114112219D02*
X137359850Y-113350314D01*
X138693183Y-113112219D02*
X138216993Y-113112219D01*
X138216993Y-113112219D02*
X138169374Y-113588409D01*
X138169374Y-113588409D02*
X138216993Y-113540790D01*
X138216993Y-113540790D02*
X138312231Y-113493171D01*
X138312231Y-113493171D02*
X138550326Y-113493171D01*
X138550326Y-113493171D02*
X138645564Y-113540790D01*
X138645564Y-113540790D02*
X138693183Y-113588409D01*
X138693183Y-113588409D02*
X138740802Y-113683647D01*
X138740802Y-113683647D02*
X138740802Y-113921742D01*
X138740802Y-113921742D02*
X138693183Y-114016980D01*
X138693183Y-114016980D02*
X138645564Y-114064600D01*
X138645564Y-114064600D02*
X138550326Y-114112219D01*
X138550326Y-114112219D02*
X138312231Y-114112219D01*
X138312231Y-114112219D02*
X138216993Y-114064600D01*
X138216993Y-114064600D02*
X138169374Y-114016980D01*
X139026517Y-113112219D02*
X139359850Y-114112219D01*
X139359850Y-114112219D02*
X139693183Y-113112219D01*
D12*
X164629466Y-106866666D02*
X163229466Y-106866666D01*
X163229466Y-106866666D02*
X163229466Y-106333333D01*
X163229466Y-106333333D02*
X163296133Y-106200000D01*
X163296133Y-106200000D02*
X163362800Y-106133333D01*
X163362800Y-106133333D02*
X163496133Y-106066666D01*
X163496133Y-106066666D02*
X163696133Y-106066666D01*
X163696133Y-106066666D02*
X163829466Y-106133333D01*
X163829466Y-106133333D02*
X163896133Y-106200000D01*
X163896133Y-106200000D02*
X163962800Y-106333333D01*
X163962800Y-106333333D02*
X163962800Y-106866666D01*
X163229466Y-105600000D02*
X164629466Y-105266666D01*
X164629466Y-105266666D02*
X163629466Y-105000000D01*
X163629466Y-105000000D02*
X164629466Y-104733333D01*
X164629466Y-104733333D02*
X163229466Y-104400000D01*
X164629466Y-103066666D02*
X163962800Y-103533333D01*
X164629466Y-103866666D02*
X163229466Y-103866666D01*
X163229466Y-103866666D02*
X163229466Y-103333333D01*
X163229466Y-103333333D02*
X163296133Y-103200000D01*
X163296133Y-103200000D02*
X163362800Y-103133333D01*
X163362800Y-103133333D02*
X163496133Y-103066666D01*
X163496133Y-103066666D02*
X163696133Y-103066666D01*
X163696133Y-103066666D02*
X163829466Y-103133333D01*
X163829466Y-103133333D02*
X163896133Y-103200000D01*
X163896133Y-103200000D02*
X163962800Y-103333333D01*
X163962800Y-103333333D02*
X163962800Y-103866666D01*
D10*
X150071266Y-138130326D02*
X150071266Y-137368422D01*
X150452219Y-137749374D02*
X149690314Y-137749374D01*
X149452219Y-136987469D02*
X149452219Y-136368422D01*
X149452219Y-136368422D02*
X149833171Y-136701755D01*
X149833171Y-136701755D02*
X149833171Y-136558898D01*
X149833171Y-136558898D02*
X149880790Y-136463660D01*
X149880790Y-136463660D02*
X149928409Y-136416041D01*
X149928409Y-136416041D02*
X150023647Y-136368422D01*
X150023647Y-136368422D02*
X150261742Y-136368422D01*
X150261742Y-136368422D02*
X150356980Y-136416041D01*
X150356980Y-136416041D02*
X150404600Y-136463660D01*
X150404600Y-136463660D02*
X150452219Y-136558898D01*
X150452219Y-136558898D02*
X150452219Y-136844612D01*
X150452219Y-136844612D02*
X150404600Y-136939850D01*
X150404600Y-136939850D02*
X150356980Y-136987469D01*
X149452219Y-136082707D02*
X150452219Y-135749374D01*
X150452219Y-135749374D02*
X149452219Y-135416041D01*
X149452219Y-135177945D02*
X149452219Y-134558898D01*
X149452219Y-134558898D02*
X149833171Y-134892231D01*
X149833171Y-134892231D02*
X149833171Y-134749374D01*
X149833171Y-134749374D02*
X149880790Y-134654136D01*
X149880790Y-134654136D02*
X149928409Y-134606517D01*
X149928409Y-134606517D02*
X150023647Y-134558898D01*
X150023647Y-134558898D02*
X150261742Y-134558898D01*
X150261742Y-134558898D02*
X150356980Y-134606517D01*
X150356980Y-134606517D02*
X150404600Y-134654136D01*
X150404600Y-134654136D02*
X150452219Y-134749374D01*
X150452219Y-134749374D02*
X150452219Y-135035088D01*
X150452219Y-135035088D02*
X150404600Y-135130326D01*
X150404600Y-135130326D02*
X150356980Y-135177945D01*
X137502707Y-120779838D02*
X137407469Y-120732219D01*
X137407469Y-120732219D02*
X137264612Y-120732219D01*
X137264612Y-120732219D02*
X137121755Y-120779838D01*
X137121755Y-120779838D02*
X137026517Y-120875076D01*
X137026517Y-120875076D02*
X136978898Y-120970314D01*
X136978898Y-120970314D02*
X136931279Y-121160790D01*
X136931279Y-121160790D02*
X136931279Y-121303647D01*
X136931279Y-121303647D02*
X136978898Y-121494123D01*
X136978898Y-121494123D02*
X137026517Y-121589361D01*
X137026517Y-121589361D02*
X137121755Y-121684600D01*
X137121755Y-121684600D02*
X137264612Y-121732219D01*
X137264612Y-121732219D02*
X137359850Y-121732219D01*
X137359850Y-121732219D02*
X137502707Y-121684600D01*
X137502707Y-121684600D02*
X137550326Y-121636980D01*
X137550326Y-121636980D02*
X137550326Y-121303647D01*
X137550326Y-121303647D02*
X137359850Y-121303647D01*
X137978898Y-121732219D02*
X137978898Y-120732219D01*
X137978898Y-120732219D02*
X138550326Y-121732219D01*
X138550326Y-121732219D02*
X138550326Y-120732219D01*
X139026517Y-121732219D02*
X139026517Y-120732219D01*
X139026517Y-120732219D02*
X139264612Y-120732219D01*
X139264612Y-120732219D02*
X139407469Y-120779838D01*
X139407469Y-120779838D02*
X139502707Y-120875076D01*
X139502707Y-120875076D02*
X139550326Y-120970314D01*
X139550326Y-120970314D02*
X139597945Y-121160790D01*
X139597945Y-121160790D02*
X139597945Y-121303647D01*
X139597945Y-121303647D02*
X139550326Y-121494123D01*
X139550326Y-121494123D02*
X139502707Y-121589361D01*
X139502707Y-121589361D02*
X139407469Y-121684600D01*
X139407469Y-121684600D02*
X139264612Y-121732219D01*
X139264612Y-121732219D02*
X139026517Y-121732219D01*
X136597946Y-116652219D02*
X136597946Y-115652219D01*
X137264612Y-115652219D02*
X137455088Y-115652219D01*
X137455088Y-115652219D02*
X137550326Y-115699838D01*
X137550326Y-115699838D02*
X137645564Y-115795076D01*
X137645564Y-115795076D02*
X137693183Y-115985552D01*
X137693183Y-115985552D02*
X137693183Y-116318885D01*
X137693183Y-116318885D02*
X137645564Y-116509361D01*
X137645564Y-116509361D02*
X137550326Y-116604600D01*
X137550326Y-116604600D02*
X137455088Y-116652219D01*
X137455088Y-116652219D02*
X137264612Y-116652219D01*
X137264612Y-116652219D02*
X137169374Y-116604600D01*
X137169374Y-116604600D02*
X137074136Y-116509361D01*
X137074136Y-116509361D02*
X137026517Y-116318885D01*
X137026517Y-116318885D02*
X137026517Y-115985552D01*
X137026517Y-115985552D02*
X137074136Y-115795076D01*
X137074136Y-115795076D02*
X137169374Y-115699838D01*
X137169374Y-115699838D02*
X137264612Y-115652219D01*
X138026517Y-115652219D02*
X138645564Y-115652219D01*
X138645564Y-115652219D02*
X138312231Y-116033171D01*
X138312231Y-116033171D02*
X138455088Y-116033171D01*
X138455088Y-116033171D02*
X138550326Y-116080790D01*
X138550326Y-116080790D02*
X138597945Y-116128409D01*
X138597945Y-116128409D02*
X138645564Y-116223647D01*
X138645564Y-116223647D02*
X138645564Y-116461742D01*
X138645564Y-116461742D02*
X138597945Y-116556980D01*
X138597945Y-116556980D02*
X138550326Y-116604600D01*
X138550326Y-116604600D02*
X138455088Y-116652219D01*
X138455088Y-116652219D02*
X138169374Y-116652219D01*
X138169374Y-116652219D02*
X138074136Y-116604600D01*
X138074136Y-116604600D02*
X138026517Y-116556980D01*
X138978898Y-115652219D02*
X139645564Y-115652219D01*
X139645564Y-115652219D02*
X139216993Y-116652219D01*
X172579838Y-137606517D02*
X172532219Y-137701755D01*
X172532219Y-137701755D02*
X172532219Y-137844612D01*
X172532219Y-137844612D02*
X172579838Y-137987469D01*
X172579838Y-137987469D02*
X172675076Y-138082707D01*
X172675076Y-138082707D02*
X172770314Y-138130326D01*
X172770314Y-138130326D02*
X172960790Y-138177945D01*
X172960790Y-138177945D02*
X173103647Y-138177945D01*
X173103647Y-138177945D02*
X173294123Y-138130326D01*
X173294123Y-138130326D02*
X173389361Y-138082707D01*
X173389361Y-138082707D02*
X173484600Y-137987469D01*
X173484600Y-137987469D02*
X173532219Y-137844612D01*
X173532219Y-137844612D02*
X173532219Y-137749374D01*
X173532219Y-137749374D02*
X173484600Y-137606517D01*
X173484600Y-137606517D02*
X173436980Y-137558898D01*
X173436980Y-137558898D02*
X173103647Y-137558898D01*
X173103647Y-137558898D02*
X173103647Y-137749374D01*
X173532219Y-137130326D02*
X172532219Y-137130326D01*
X172532219Y-137130326D02*
X173532219Y-136558898D01*
X173532219Y-136558898D02*
X172532219Y-136558898D01*
X173532219Y-136082707D02*
X172532219Y-136082707D01*
X172532219Y-136082707D02*
X172532219Y-135844612D01*
X172532219Y-135844612D02*
X172579838Y-135701755D01*
X172579838Y-135701755D02*
X172675076Y-135606517D01*
X172675076Y-135606517D02*
X172770314Y-135558898D01*
X172770314Y-135558898D02*
X172960790Y-135511279D01*
X172960790Y-135511279D02*
X173103647Y-135511279D01*
X173103647Y-135511279D02*
X173294123Y-135558898D01*
X173294123Y-135558898D02*
X173389361Y-135606517D01*
X173389361Y-135606517D02*
X173484600Y-135701755D01*
X173484600Y-135701755D02*
X173532219Y-135844612D01*
X173532219Y-135844612D02*
X173532219Y-136082707D01*
X136597946Y-126812219D02*
X136597946Y-125812219D01*
X137264612Y-125812219D02*
X137455088Y-125812219D01*
X137455088Y-125812219D02*
X137550326Y-125859838D01*
X137550326Y-125859838D02*
X137645564Y-125955076D01*
X137645564Y-125955076D02*
X137693183Y-126145552D01*
X137693183Y-126145552D02*
X137693183Y-126478885D01*
X137693183Y-126478885D02*
X137645564Y-126669361D01*
X137645564Y-126669361D02*
X137550326Y-126764600D01*
X137550326Y-126764600D02*
X137455088Y-126812219D01*
X137455088Y-126812219D02*
X137264612Y-126812219D01*
X137264612Y-126812219D02*
X137169374Y-126764600D01*
X137169374Y-126764600D02*
X137074136Y-126669361D01*
X137074136Y-126669361D02*
X137026517Y-126478885D01*
X137026517Y-126478885D02*
X137026517Y-126145552D01*
X137026517Y-126145552D02*
X137074136Y-125955076D01*
X137074136Y-125955076D02*
X137169374Y-125859838D01*
X137169374Y-125859838D02*
X137264612Y-125812219D01*
X138645564Y-126812219D02*
X138074136Y-126812219D01*
X138359850Y-126812219D02*
X138359850Y-125812219D01*
X138359850Y-125812219D02*
X138264612Y-125955076D01*
X138264612Y-125955076D02*
X138169374Y-126050314D01*
X138169374Y-126050314D02*
X138074136Y-126097933D01*
X139502707Y-126145552D02*
X139502707Y-126812219D01*
X139264612Y-125764600D02*
X139026517Y-126478885D01*
X139026517Y-126478885D02*
X139645564Y-126478885D01*
X154579838Y-137606517D02*
X154532219Y-137701755D01*
X154532219Y-137701755D02*
X154532219Y-137844612D01*
X154532219Y-137844612D02*
X154579838Y-137987469D01*
X154579838Y-137987469D02*
X154675076Y-138082707D01*
X154675076Y-138082707D02*
X154770314Y-138130326D01*
X154770314Y-138130326D02*
X154960790Y-138177945D01*
X154960790Y-138177945D02*
X155103647Y-138177945D01*
X155103647Y-138177945D02*
X155294123Y-138130326D01*
X155294123Y-138130326D02*
X155389361Y-138082707D01*
X155389361Y-138082707D02*
X155484600Y-137987469D01*
X155484600Y-137987469D02*
X155532219Y-137844612D01*
X155532219Y-137844612D02*
X155532219Y-137749374D01*
X155532219Y-137749374D02*
X155484600Y-137606517D01*
X155484600Y-137606517D02*
X155436980Y-137558898D01*
X155436980Y-137558898D02*
X155103647Y-137558898D01*
X155103647Y-137558898D02*
X155103647Y-137749374D01*
X155532219Y-137130326D02*
X154532219Y-137130326D01*
X154532219Y-137130326D02*
X155532219Y-136558898D01*
X155532219Y-136558898D02*
X154532219Y-136558898D01*
X155532219Y-136082707D02*
X154532219Y-136082707D01*
X154532219Y-136082707D02*
X154532219Y-135844612D01*
X154532219Y-135844612D02*
X154579838Y-135701755D01*
X154579838Y-135701755D02*
X154675076Y-135606517D01*
X154675076Y-135606517D02*
X154770314Y-135558898D01*
X154770314Y-135558898D02*
X154960790Y-135511279D01*
X154960790Y-135511279D02*
X155103647Y-135511279D01*
X155103647Y-135511279D02*
X155294123Y-135558898D01*
X155294123Y-135558898D02*
X155389361Y-135606517D01*
X155389361Y-135606517D02*
X155484600Y-135701755D01*
X155484600Y-135701755D02*
X155532219Y-135844612D01*
X155532219Y-135844612D02*
X155532219Y-136082707D01*
X148613482Y-130939838D02*
X148518244Y-130892219D01*
X148518244Y-130892219D02*
X148375387Y-130892219D01*
X148375387Y-130892219D02*
X148232530Y-130939838D01*
X148232530Y-130939838D02*
X148137292Y-131035076D01*
X148137292Y-131035076D02*
X148089673Y-131130314D01*
X148089673Y-131130314D02*
X148042054Y-131320790D01*
X148042054Y-131320790D02*
X148042054Y-131463647D01*
X148042054Y-131463647D02*
X148089673Y-131654123D01*
X148089673Y-131654123D02*
X148137292Y-131749361D01*
X148137292Y-131749361D02*
X148232530Y-131844600D01*
X148232530Y-131844600D02*
X148375387Y-131892219D01*
X148375387Y-131892219D02*
X148470625Y-131892219D01*
X148470625Y-131892219D02*
X148613482Y-131844600D01*
X148613482Y-131844600D02*
X148661101Y-131796980D01*
X148661101Y-131796980D02*
X148661101Y-131463647D01*
X148661101Y-131463647D02*
X148470625Y-131463647D01*
X149089673Y-131892219D02*
X149089673Y-130892219D01*
X149089673Y-130892219D02*
X149661101Y-131892219D01*
X149661101Y-131892219D02*
X149661101Y-130892219D01*
X150137292Y-131892219D02*
X150137292Y-130892219D01*
X150137292Y-130892219D02*
X150375387Y-130892219D01*
X150375387Y-130892219D02*
X150518244Y-130939838D01*
X150518244Y-130939838D02*
X150613482Y-131035076D01*
X150613482Y-131035076D02*
X150661101Y-131130314D01*
X150661101Y-131130314D02*
X150708720Y-131320790D01*
X150708720Y-131320790D02*
X150708720Y-131463647D01*
X150708720Y-131463647D02*
X150661101Y-131654123D01*
X150661101Y-131654123D02*
X150613482Y-131749361D01*
X150613482Y-131749361D02*
X150518244Y-131844600D01*
X150518244Y-131844600D02*
X150375387Y-131892219D01*
X150375387Y-131892219D02*
X150137292Y-131892219D01*
X160612219Y-137558898D02*
X160136028Y-137892231D01*
X160612219Y-138130326D02*
X159612219Y-138130326D01*
X159612219Y-138130326D02*
X159612219Y-137749374D01*
X159612219Y-137749374D02*
X159659838Y-137654136D01*
X159659838Y-137654136D02*
X159707457Y-137606517D01*
X159707457Y-137606517D02*
X159802695Y-137558898D01*
X159802695Y-137558898D02*
X159945552Y-137558898D01*
X159945552Y-137558898D02*
X160040790Y-137606517D01*
X160040790Y-137606517D02*
X160088409Y-137654136D01*
X160088409Y-137654136D02*
X160136028Y-137749374D01*
X160136028Y-137749374D02*
X160136028Y-138130326D01*
X159612219Y-137225564D02*
X160612219Y-136558898D01*
X159612219Y-136558898D02*
X160612219Y-137225564D01*
X160612219Y-136177945D02*
X159612219Y-136177945D01*
X159612219Y-136177945D02*
X159612219Y-135939850D01*
X159612219Y-135939850D02*
X159659838Y-135796993D01*
X159659838Y-135796993D02*
X159755076Y-135701755D01*
X159755076Y-135701755D02*
X159850314Y-135654136D01*
X159850314Y-135654136D02*
X160040790Y-135606517D01*
X160040790Y-135606517D02*
X160183647Y-135606517D01*
X160183647Y-135606517D02*
X160374123Y-135654136D01*
X160374123Y-135654136D02*
X160469361Y-135701755D01*
X160469361Y-135701755D02*
X160564600Y-135796993D01*
X160564600Y-135796993D02*
X160612219Y-135939850D01*
X160612219Y-135939850D02*
X160612219Y-136177945D01*
X159612219Y-134987469D02*
X159612219Y-134892231D01*
X159612219Y-134892231D02*
X159659838Y-134796993D01*
X159659838Y-134796993D02*
X159707457Y-134749374D01*
X159707457Y-134749374D02*
X159802695Y-134701755D01*
X159802695Y-134701755D02*
X159993171Y-134654136D01*
X159993171Y-134654136D02*
X160231266Y-134654136D01*
X160231266Y-134654136D02*
X160421742Y-134701755D01*
X160421742Y-134701755D02*
X160516980Y-134749374D01*
X160516980Y-134749374D02*
X160564600Y-134796993D01*
X160564600Y-134796993D02*
X160612219Y-134892231D01*
X160612219Y-134892231D02*
X160612219Y-134987469D01*
X160612219Y-134987469D02*
X160564600Y-135082707D01*
X160564600Y-135082707D02*
X160516980Y-135130326D01*
X160516980Y-135130326D02*
X160421742Y-135177945D01*
X160421742Y-135177945D02*
X160231266Y-135225564D01*
X160231266Y-135225564D02*
X159993171Y-135225564D01*
X159993171Y-135225564D02*
X159802695Y-135177945D01*
X159802695Y-135177945D02*
X159707457Y-135130326D01*
X159707457Y-135130326D02*
X159659838Y-135082707D01*
X159659838Y-135082707D02*
X159612219Y-134987469D01*
X127572219Y-137558898D02*
X127096028Y-137892231D01*
X127572219Y-138130326D02*
X126572219Y-138130326D01*
X126572219Y-138130326D02*
X126572219Y-137749374D01*
X126572219Y-137749374D02*
X126619838Y-137654136D01*
X126619838Y-137654136D02*
X126667457Y-137606517D01*
X126667457Y-137606517D02*
X126762695Y-137558898D01*
X126762695Y-137558898D02*
X126905552Y-137558898D01*
X126905552Y-137558898D02*
X127000790Y-137606517D01*
X127000790Y-137606517D02*
X127048409Y-137654136D01*
X127048409Y-137654136D02*
X127096028Y-137749374D01*
X127096028Y-137749374D02*
X127096028Y-138130326D01*
X126572219Y-137273183D02*
X126572219Y-136701755D01*
X127572219Y-136987469D02*
X126572219Y-136987469D01*
X127524600Y-136416040D02*
X127572219Y-136273183D01*
X127572219Y-136273183D02*
X127572219Y-136035088D01*
X127572219Y-136035088D02*
X127524600Y-135939850D01*
X127524600Y-135939850D02*
X127476980Y-135892231D01*
X127476980Y-135892231D02*
X127381742Y-135844612D01*
X127381742Y-135844612D02*
X127286504Y-135844612D01*
X127286504Y-135844612D02*
X127191266Y-135892231D01*
X127191266Y-135892231D02*
X127143647Y-135939850D01*
X127143647Y-135939850D02*
X127096028Y-136035088D01*
X127096028Y-136035088D02*
X127048409Y-136225564D01*
X127048409Y-136225564D02*
X127000790Y-136320802D01*
X127000790Y-136320802D02*
X126953171Y-136368421D01*
X126953171Y-136368421D02*
X126857933Y-136416040D01*
X126857933Y-136416040D02*
X126762695Y-136416040D01*
X126762695Y-136416040D02*
X126667457Y-136368421D01*
X126667457Y-136368421D02*
X126619838Y-136320802D01*
X126619838Y-136320802D02*
X126572219Y-136225564D01*
X126572219Y-136225564D02*
X126572219Y-135987469D01*
X126572219Y-135987469D02*
X126619838Y-135844612D01*
X148613482Y-118239838D02*
X148518244Y-118192219D01*
X148518244Y-118192219D02*
X148375387Y-118192219D01*
X148375387Y-118192219D02*
X148232530Y-118239838D01*
X148232530Y-118239838D02*
X148137292Y-118335076D01*
X148137292Y-118335076D02*
X148089673Y-118430314D01*
X148089673Y-118430314D02*
X148042054Y-118620790D01*
X148042054Y-118620790D02*
X148042054Y-118763647D01*
X148042054Y-118763647D02*
X148089673Y-118954123D01*
X148089673Y-118954123D02*
X148137292Y-119049361D01*
X148137292Y-119049361D02*
X148232530Y-119144600D01*
X148232530Y-119144600D02*
X148375387Y-119192219D01*
X148375387Y-119192219D02*
X148470625Y-119192219D01*
X148470625Y-119192219D02*
X148613482Y-119144600D01*
X148613482Y-119144600D02*
X148661101Y-119096980D01*
X148661101Y-119096980D02*
X148661101Y-118763647D01*
X148661101Y-118763647D02*
X148470625Y-118763647D01*
X149089673Y-119192219D02*
X149089673Y-118192219D01*
X149089673Y-118192219D02*
X149661101Y-119192219D01*
X149661101Y-119192219D02*
X149661101Y-118192219D01*
X150137292Y-119192219D02*
X150137292Y-118192219D01*
X150137292Y-118192219D02*
X150375387Y-118192219D01*
X150375387Y-118192219D02*
X150518244Y-118239838D01*
X150518244Y-118239838D02*
X150613482Y-118335076D01*
X150613482Y-118335076D02*
X150661101Y-118430314D01*
X150661101Y-118430314D02*
X150708720Y-118620790D01*
X150708720Y-118620790D02*
X150708720Y-118763647D01*
X150708720Y-118763647D02*
X150661101Y-118954123D01*
X150661101Y-118954123D02*
X150613482Y-119049361D01*
X150613482Y-119049361D02*
X150518244Y-119144600D01*
X150518244Y-119144600D02*
X150375387Y-119192219D01*
X150375387Y-119192219D02*
X150137292Y-119192219D01*
X168232219Y-138130326D02*
X167232219Y-138130326D01*
X167232219Y-137463660D02*
X167232219Y-137273184D01*
X167232219Y-137273184D02*
X167279838Y-137177946D01*
X167279838Y-137177946D02*
X167375076Y-137082708D01*
X167375076Y-137082708D02*
X167565552Y-137035089D01*
X167565552Y-137035089D02*
X167898885Y-137035089D01*
X167898885Y-137035089D02*
X168089361Y-137082708D01*
X168089361Y-137082708D02*
X168184600Y-137177946D01*
X168184600Y-137177946D02*
X168232219Y-137273184D01*
X168232219Y-137273184D02*
X168232219Y-137463660D01*
X168232219Y-137463660D02*
X168184600Y-137558898D01*
X168184600Y-137558898D02*
X168089361Y-137654136D01*
X168089361Y-137654136D02*
X167898885Y-137701755D01*
X167898885Y-137701755D02*
X167565552Y-137701755D01*
X167565552Y-137701755D02*
X167375076Y-137654136D01*
X167375076Y-137654136D02*
X167279838Y-137558898D01*
X167279838Y-137558898D02*
X167232219Y-137463660D01*
X168232219Y-136082708D02*
X168232219Y-136654136D01*
X168232219Y-136368422D02*
X167232219Y-136368422D01*
X167232219Y-136368422D02*
X167375076Y-136463660D01*
X167375076Y-136463660D02*
X167470314Y-136558898D01*
X167470314Y-136558898D02*
X167517933Y-136654136D01*
X167232219Y-135749374D02*
X167232219Y-135082708D01*
X167232219Y-135082708D02*
X168232219Y-135511279D01*
X124032219Y-104773183D02*
X124032219Y-104201755D01*
X125032219Y-104487469D02*
X124032219Y-104487469D01*
X124936980Y-103296993D02*
X124984600Y-103344612D01*
X124984600Y-103344612D02*
X125032219Y-103487469D01*
X125032219Y-103487469D02*
X125032219Y-103582707D01*
X125032219Y-103582707D02*
X124984600Y-103725564D01*
X124984600Y-103725564D02*
X124889361Y-103820802D01*
X124889361Y-103820802D02*
X124794123Y-103868421D01*
X124794123Y-103868421D02*
X124603647Y-103916040D01*
X124603647Y-103916040D02*
X124460790Y-103916040D01*
X124460790Y-103916040D02*
X124270314Y-103868421D01*
X124270314Y-103868421D02*
X124175076Y-103820802D01*
X124175076Y-103820802D02*
X124079838Y-103725564D01*
X124079838Y-103725564D02*
X124032219Y-103582707D01*
X124032219Y-103582707D02*
X124032219Y-103487469D01*
X124032219Y-103487469D02*
X124079838Y-103344612D01*
X124079838Y-103344612D02*
X124127457Y-103296993D01*
X125032219Y-102868421D02*
X124032219Y-102868421D01*
X125032219Y-102296993D02*
X124460790Y-102725564D01*
X124032219Y-102296993D02*
X124603647Y-102868421D01*
X136597946Y-119192219D02*
X136597946Y-118192219D01*
X137264612Y-118192219D02*
X137455088Y-118192219D01*
X137455088Y-118192219D02*
X137550326Y-118239838D01*
X137550326Y-118239838D02*
X137645564Y-118335076D01*
X137645564Y-118335076D02*
X137693183Y-118525552D01*
X137693183Y-118525552D02*
X137693183Y-118858885D01*
X137693183Y-118858885D02*
X137645564Y-119049361D01*
X137645564Y-119049361D02*
X137550326Y-119144600D01*
X137550326Y-119144600D02*
X137455088Y-119192219D01*
X137455088Y-119192219D02*
X137264612Y-119192219D01*
X137264612Y-119192219D02*
X137169374Y-119144600D01*
X137169374Y-119144600D02*
X137074136Y-119049361D01*
X137074136Y-119049361D02*
X137026517Y-118858885D01*
X137026517Y-118858885D02*
X137026517Y-118525552D01*
X137026517Y-118525552D02*
X137074136Y-118335076D01*
X137074136Y-118335076D02*
X137169374Y-118239838D01*
X137169374Y-118239838D02*
X137264612Y-118192219D01*
X138026517Y-118192219D02*
X138645564Y-118192219D01*
X138645564Y-118192219D02*
X138312231Y-118573171D01*
X138312231Y-118573171D02*
X138455088Y-118573171D01*
X138455088Y-118573171D02*
X138550326Y-118620790D01*
X138550326Y-118620790D02*
X138597945Y-118668409D01*
X138597945Y-118668409D02*
X138645564Y-118763647D01*
X138645564Y-118763647D02*
X138645564Y-119001742D01*
X138645564Y-119001742D02*
X138597945Y-119096980D01*
X138597945Y-119096980D02*
X138550326Y-119144600D01*
X138550326Y-119144600D02*
X138455088Y-119192219D01*
X138455088Y-119192219D02*
X138169374Y-119192219D01*
X138169374Y-119192219D02*
X138074136Y-119144600D01*
X138074136Y-119144600D02*
X138026517Y-119096980D01*
X139550326Y-118192219D02*
X139074136Y-118192219D01*
X139074136Y-118192219D02*
X139026517Y-118668409D01*
X139026517Y-118668409D02*
X139074136Y-118620790D01*
X139074136Y-118620790D02*
X139169374Y-118573171D01*
X139169374Y-118573171D02*
X139407469Y-118573171D01*
X139407469Y-118573171D02*
X139502707Y-118620790D01*
X139502707Y-118620790D02*
X139550326Y-118668409D01*
X139550326Y-118668409D02*
X139597945Y-118763647D01*
X139597945Y-118763647D02*
X139597945Y-119001742D01*
X139597945Y-119001742D02*
X139550326Y-119096980D01*
X139550326Y-119096980D02*
X139502707Y-119144600D01*
X139502707Y-119144600D02*
X139407469Y-119192219D01*
X139407469Y-119192219D02*
X139169374Y-119192219D01*
X139169374Y-119192219D02*
X139074136Y-119144600D01*
X139074136Y-119144600D02*
X139026517Y-119096980D01*
D13*
X181404761Y-122150057D02*
X181309523Y-122102438D01*
X181309523Y-122102438D02*
X181214285Y-122007200D01*
X181214285Y-122007200D02*
X181071428Y-121864342D01*
X181071428Y-121864342D02*
X180976190Y-121816723D01*
X180976190Y-121816723D02*
X180880952Y-121816723D01*
X180928571Y-122054819D02*
X180833333Y-122007200D01*
X180833333Y-122007200D02*
X180738095Y-121911961D01*
X180738095Y-121911961D02*
X180690476Y-121721485D01*
X180690476Y-121721485D02*
X180690476Y-121388152D01*
X180690476Y-121388152D02*
X180738095Y-121197676D01*
X180738095Y-121197676D02*
X180833333Y-121102438D01*
X180833333Y-121102438D02*
X180928571Y-121054819D01*
X180928571Y-121054819D02*
X181119047Y-121054819D01*
X181119047Y-121054819D02*
X181214285Y-121102438D01*
X181214285Y-121102438D02*
X181309523Y-121197676D01*
X181309523Y-121197676D02*
X181357142Y-121388152D01*
X181357142Y-121388152D02*
X181357142Y-121721485D01*
X181357142Y-121721485D02*
X181309523Y-121911961D01*
X181309523Y-121911961D02*
X181214285Y-122007200D01*
X181214285Y-122007200D02*
X181119047Y-122054819D01*
X181119047Y-122054819D02*
X180928571Y-122054819D01*
X182309523Y-122054819D02*
X181738095Y-122054819D01*
X182023809Y-122054819D02*
X182023809Y-121054819D01*
X182023809Y-121054819D02*
X181928571Y-121197676D01*
X181928571Y-121197676D02*
X181833333Y-121292914D01*
X181833333Y-121292914D02*
X181738095Y-121340533D01*
X103544819Y-121181904D02*
X104354342Y-121181904D01*
X104354342Y-121181904D02*
X104449580Y-121134285D01*
X104449580Y-121134285D02*
X104497200Y-121086666D01*
X104497200Y-121086666D02*
X104544819Y-120991428D01*
X104544819Y-120991428D02*
X104544819Y-120800952D01*
X104544819Y-120800952D02*
X104497200Y-120705714D01*
X104497200Y-120705714D02*
X104449580Y-120658095D01*
X104449580Y-120658095D02*
X104354342Y-120610476D01*
X104354342Y-120610476D02*
X103544819Y-120610476D01*
X103544819Y-120229523D02*
X103544819Y-119610476D01*
X103544819Y-119610476D02*
X103925771Y-119943809D01*
X103925771Y-119943809D02*
X103925771Y-119800952D01*
X103925771Y-119800952D02*
X103973390Y-119705714D01*
X103973390Y-119705714D02*
X104021009Y-119658095D01*
X104021009Y-119658095D02*
X104116247Y-119610476D01*
X104116247Y-119610476D02*
X104354342Y-119610476D01*
X104354342Y-119610476D02*
X104449580Y-119658095D01*
X104449580Y-119658095D02*
X104497200Y-119705714D01*
X104497200Y-119705714D02*
X104544819Y-119800952D01*
X104544819Y-119800952D02*
X104544819Y-120086666D01*
X104544819Y-120086666D02*
X104497200Y-120181904D01*
X104497200Y-120181904D02*
X104449580Y-120229523D01*
X108559104Y-125181905D02*
X108559104Y-124705715D01*
X108844819Y-125277143D02*
X107844819Y-124943810D01*
X107844819Y-124943810D02*
X108844819Y-124610477D01*
X108178152Y-124277143D02*
X108844819Y-124277143D01*
X108273390Y-124277143D02*
X108225771Y-124229524D01*
X108225771Y-124229524D02*
X108178152Y-124134286D01*
X108178152Y-124134286D02*
X108178152Y-123991429D01*
X108178152Y-123991429D02*
X108225771Y-123896191D01*
X108225771Y-123896191D02*
X108321009Y-123848572D01*
X108321009Y-123848572D02*
X108844819Y-123848572D01*
X108178152Y-123515238D02*
X108178152Y-123134286D01*
X107844819Y-123372381D02*
X108701961Y-123372381D01*
X108701961Y-123372381D02*
X108797200Y-123324762D01*
X108797200Y-123324762D02*
X108844819Y-123229524D01*
X108844819Y-123229524D02*
X108844819Y-123134286D01*
X108797200Y-122420000D02*
X108844819Y-122515238D01*
X108844819Y-122515238D02*
X108844819Y-122705714D01*
X108844819Y-122705714D02*
X108797200Y-122800952D01*
X108797200Y-122800952D02*
X108701961Y-122848571D01*
X108701961Y-122848571D02*
X108321009Y-122848571D01*
X108321009Y-122848571D02*
X108225771Y-122800952D01*
X108225771Y-122800952D02*
X108178152Y-122705714D01*
X108178152Y-122705714D02*
X108178152Y-122515238D01*
X108178152Y-122515238D02*
X108225771Y-122420000D01*
X108225771Y-122420000D02*
X108321009Y-122372381D01*
X108321009Y-122372381D02*
X108416247Y-122372381D01*
X108416247Y-122372381D02*
X108511485Y-122848571D01*
X108178152Y-121943809D02*
X108844819Y-121943809D01*
X108273390Y-121943809D02*
X108225771Y-121896190D01*
X108225771Y-121896190D02*
X108178152Y-121800952D01*
X108178152Y-121800952D02*
X108178152Y-121658095D01*
X108178152Y-121658095D02*
X108225771Y-121562857D01*
X108225771Y-121562857D02*
X108321009Y-121515238D01*
X108321009Y-121515238D02*
X108844819Y-121515238D01*
X108178152Y-121039047D02*
X108844819Y-121039047D01*
X108273390Y-121039047D02*
X108225771Y-120991428D01*
X108225771Y-120991428D02*
X108178152Y-120896190D01*
X108178152Y-120896190D02*
X108178152Y-120753333D01*
X108178152Y-120753333D02*
X108225771Y-120658095D01*
X108225771Y-120658095D02*
X108321009Y-120610476D01*
X108321009Y-120610476D02*
X108844819Y-120610476D01*
X108844819Y-119705714D02*
X108321009Y-119705714D01*
X108321009Y-119705714D02*
X108225771Y-119753333D01*
X108225771Y-119753333D02*
X108178152Y-119848571D01*
X108178152Y-119848571D02*
X108178152Y-120039047D01*
X108178152Y-120039047D02*
X108225771Y-120134285D01*
X108797200Y-119705714D02*
X108844819Y-119800952D01*
X108844819Y-119800952D02*
X108844819Y-120039047D01*
X108844819Y-120039047D02*
X108797200Y-120134285D01*
X108797200Y-120134285D02*
X108701961Y-120181904D01*
X108701961Y-120181904D02*
X108606723Y-120181904D01*
X108606723Y-120181904D02*
X108511485Y-120134285D01*
X108511485Y-120134285D02*
X108463866Y-120039047D01*
X108463866Y-120039047D02*
X108463866Y-119800952D01*
X108463866Y-119800952D02*
X108416247Y-119705714D01*
X108559104Y-118515237D02*
X108559104Y-118039047D01*
X108844819Y-118610475D02*
X107844819Y-118277142D01*
X107844819Y-118277142D02*
X108844819Y-117943809D01*
X108844819Y-117610475D02*
X108178152Y-117610475D01*
X108368628Y-117610475D02*
X108273390Y-117562856D01*
X108273390Y-117562856D02*
X108225771Y-117515237D01*
X108225771Y-117515237D02*
X108178152Y-117419999D01*
X108178152Y-117419999D02*
X108178152Y-117324761D01*
X108797200Y-116610475D02*
X108844819Y-116705713D01*
X108844819Y-116705713D02*
X108844819Y-116896189D01*
X108844819Y-116896189D02*
X108797200Y-116991427D01*
X108797200Y-116991427D02*
X108701961Y-117039046D01*
X108701961Y-117039046D02*
X108321009Y-117039046D01*
X108321009Y-117039046D02*
X108225771Y-116991427D01*
X108225771Y-116991427D02*
X108178152Y-116896189D01*
X108178152Y-116896189D02*
X108178152Y-116705713D01*
X108178152Y-116705713D02*
X108225771Y-116610475D01*
X108225771Y-116610475D02*
X108321009Y-116562856D01*
X108321009Y-116562856D02*
X108416247Y-116562856D01*
X108416247Y-116562856D02*
X108511485Y-117039046D01*
X108844819Y-115705713D02*
X108321009Y-115705713D01*
X108321009Y-115705713D02*
X108225771Y-115753332D01*
X108225771Y-115753332D02*
X108178152Y-115848570D01*
X108178152Y-115848570D02*
X108178152Y-116039046D01*
X108178152Y-116039046D02*
X108225771Y-116134284D01*
X108797200Y-115705713D02*
X108844819Y-115800951D01*
X108844819Y-115800951D02*
X108844819Y-116039046D01*
X108844819Y-116039046D02*
X108797200Y-116134284D01*
X108797200Y-116134284D02*
X108701961Y-116181903D01*
X108701961Y-116181903D02*
X108606723Y-116181903D01*
X108606723Y-116181903D02*
X108511485Y-116134284D01*
X108511485Y-116134284D02*
X108463866Y-116039046D01*
X108463866Y-116039046D02*
X108463866Y-115800951D01*
X108463866Y-115800951D02*
X108416247Y-115705713D01*
%TO.C,G\u002A\u002A\u002A*%
G36*
X143883546Y-101784703D02*
G01*
X144097159Y-101795318D01*
X144281805Y-101813531D01*
X144295240Y-101815367D01*
X144441589Y-101836459D01*
X144543685Y-101853288D01*
X144602694Y-101867194D01*
X144619785Y-101879518D01*
X144596125Y-101891601D01*
X144532881Y-101904783D01*
X144431220Y-101920405D01*
X144391605Y-101926021D01*
X144173823Y-101962472D01*
X143947489Y-102010906D01*
X143723352Y-102068327D01*
X143512162Y-102131742D01*
X143324666Y-102198158D01*
X143171613Y-102264579D01*
X143165905Y-102267421D01*
X143113790Y-102286665D01*
X143031329Y-102309654D01*
X142933286Y-102332420D01*
X142895449Y-102340103D01*
X142476458Y-102444286D01*
X142075568Y-102589202D01*
X141695145Y-102772606D01*
X141337558Y-102992254D01*
X141005173Y-103245902D01*
X140700359Y-103531305D01*
X140425482Y-103846220D01*
X140182909Y-104188402D01*
X139975009Y-104555607D01*
X139804148Y-104945591D01*
X139672695Y-105356110D01*
X139659413Y-105407712D01*
X139584034Y-105795255D01*
X139546525Y-106198377D01*
X139546827Y-106607046D01*
X139584883Y-107011230D01*
X139660633Y-107400895D01*
X139671219Y-107442266D01*
X139803983Y-107860847D01*
X139976741Y-108257487D01*
X140188921Y-108631191D01*
X140439951Y-108980964D01*
X140729260Y-109305812D01*
X140759351Y-109335973D01*
X141087002Y-109630541D01*
X141435506Y-109884491D01*
X141805301Y-110098041D01*
X142196829Y-110271409D01*
X142610527Y-110404812D01*
X143046836Y-110498467D01*
X143134720Y-110512137D01*
X143346687Y-110533873D01*
X143586981Y-110543005D01*
X143840682Y-110540014D01*
X144092875Y-110525382D01*
X144328642Y-110499589D01*
X144512344Y-110467685D01*
X144943100Y-110352775D01*
X145352687Y-110198031D01*
X145739289Y-110004748D01*
X146101090Y-109774222D01*
X146436275Y-109507748D01*
X146743030Y-109206622D01*
X147019537Y-108872139D01*
X147263983Y-108505594D01*
X147265462Y-108503112D01*
X147451530Y-108149323D01*
X147603035Y-107774042D01*
X147718275Y-107384387D01*
X147795550Y-106987476D01*
X147833160Y-106590427D01*
X147829404Y-106200358D01*
X147826210Y-106155849D01*
X147816102Y-106032533D01*
X147805634Y-105914067D01*
X147796070Y-105814249D01*
X147788933Y-105748946D01*
X147774450Y-105632523D01*
X147988865Y-105600413D01*
X148084387Y-105586429D01*
X148163262Y-105575479D01*
X148214211Y-105569100D01*
X148226085Y-105568097D01*
X148246542Y-105589744D01*
X148264683Y-105651003D01*
X148280305Y-105745769D01*
X148293201Y-105867937D01*
X148303168Y-106011401D01*
X148310000Y-106170057D01*
X148313493Y-106337799D01*
X148313442Y-106508523D01*
X148309642Y-106676123D01*
X148301888Y-106834494D01*
X148289976Y-106977531D01*
X148276804Y-107080103D01*
X148187277Y-107525229D01*
X148060666Y-107946817D01*
X147894590Y-108350966D01*
X147686668Y-108743777D01*
X147530925Y-108991465D01*
X147375304Y-109207082D01*
X147194556Y-109428185D01*
X146999921Y-109642293D01*
X146802638Y-109836923D01*
X146647131Y-109972938D01*
X146272413Y-110250278D01*
X145877973Y-110486698D01*
X145465857Y-110681539D01*
X145038111Y-110834137D01*
X144596780Y-110943832D01*
X144143912Y-111009963D01*
X143681550Y-111031867D01*
X143397874Y-111023357D01*
X142948662Y-110974524D01*
X142511132Y-110882844D01*
X142087868Y-110750264D01*
X141681454Y-110578727D01*
X141294475Y-110370179D01*
X140929515Y-110126564D01*
X140589158Y-109849828D01*
X140275990Y-109541916D01*
X139992594Y-109204773D01*
X139741554Y-108840344D01*
X139525456Y-108450573D01*
X139346884Y-108037406D01*
X139315490Y-107950974D01*
X139202039Y-107584573D01*
X139122746Y-107222773D01*
X139075417Y-106852401D01*
X139057858Y-106460284D01*
X139057650Y-106403117D01*
X139074400Y-105975222D01*
X139125083Y-105571380D01*
X139211703Y-105182859D01*
X139336260Y-104800926D01*
X139500757Y-104416850D01*
X139524158Y-104368396D01*
X139744641Y-103968372D01*
X140000545Y-103595812D01*
X140289404Y-103252508D01*
X140608752Y-102940250D01*
X140956123Y-102660829D01*
X141329052Y-102416037D01*
X141725072Y-102207664D01*
X142141717Y-102037501D01*
X142576522Y-101907340D01*
X143027021Y-101818972D01*
X143035910Y-101817681D01*
X143217149Y-101798176D01*
X143428717Y-101786159D01*
X143655791Y-101781659D01*
X143883546Y-101784703D01*
G37*
G36*
X145568075Y-102157812D02*
G01*
X146002548Y-102244693D01*
X146442273Y-102376712D01*
X146888045Y-102553885D01*
X147141292Y-102673169D01*
X147242175Y-102720744D01*
X147336867Y-102758588D01*
X147438217Y-102790781D01*
X147559074Y-102821400D01*
X147712288Y-102854525D01*
X147713364Y-102854747D01*
X148011710Y-102920201D01*
X148322140Y-102995835D01*
X148636707Y-103079271D01*
X148947462Y-103168138D01*
X149246458Y-103260059D01*
X149525748Y-103352660D01*
X149777383Y-103443566D01*
X149993417Y-103530403D01*
X150033910Y-103548074D01*
X150343341Y-103702535D01*
X150609798Y-103872396D01*
X150833488Y-104057895D01*
X151014616Y-104259269D01*
X151153391Y-104476754D01*
X151250018Y-104710589D01*
X151304704Y-104961009D01*
X151310614Y-105012982D01*
X151314045Y-105076164D01*
X151310965Y-105115367D01*
X151306746Y-105121676D01*
X151281927Y-105109331D01*
X151231901Y-105077231D01*
X151177981Y-105039749D01*
X151085070Y-104973767D01*
X151017654Y-104932306D01*
X150963393Y-104914130D01*
X150909948Y-104918006D01*
X150844982Y-104942701D01*
X150756154Y-104986981D01*
X150738817Y-104995845D01*
X150627639Y-105049236D01*
X150516100Y-105094905D01*
X150399184Y-105133671D01*
X150271874Y-105166355D01*
X150129153Y-105193777D01*
X149966005Y-105216758D01*
X149777413Y-105236117D01*
X149558360Y-105252674D01*
X149303829Y-105267251D01*
X149008803Y-105280668D01*
X148992738Y-105281329D01*
X148635258Y-105300822D01*
X148316273Y-105329162D01*
X148029122Y-105367765D01*
X147767143Y-105418046D01*
X147523672Y-105481421D01*
X147292047Y-105559307D01*
X147065607Y-105653118D01*
X146921838Y-105721419D01*
X146842383Y-105762825D01*
X146752547Y-105812610D01*
X146661075Y-105865531D01*
X146576711Y-105916345D01*
X146508201Y-105959810D01*
X146464289Y-105990683D01*
X146452738Y-106002655D01*
X146473062Y-105998618D01*
X146528227Y-105983068D01*
X146609519Y-105958553D01*
X146696603Y-105931318D01*
X146794889Y-105900352D01*
X146875800Y-105875283D01*
X146930206Y-105858914D01*
X146948880Y-105853928D01*
X146942108Y-105872545D01*
X146917237Y-105922914D01*
X146878451Y-105996812D01*
X146841177Y-106065595D01*
X146800533Y-106141712D01*
X146743527Y-106251353D01*
X146674002Y-106386978D01*
X146595799Y-106541046D01*
X146512762Y-106706018D01*
X146428732Y-106874352D01*
X146416755Y-106898468D01*
X146270158Y-107187327D01*
X146135787Y-107437691D01*
X146010704Y-107654244D01*
X145891972Y-107841672D01*
X145776654Y-108004659D01*
X145661811Y-108147890D01*
X145568636Y-108251052D01*
X145498353Y-108325545D01*
X145442432Y-108386171D01*
X145406796Y-108426413D01*
X145397060Y-108439836D01*
X145422170Y-108426350D01*
X145474080Y-108390564D01*
X145544068Y-108339034D01*
X145623413Y-108278317D01*
X145703393Y-108214971D01*
X145775288Y-108155551D01*
X145776114Y-108154847D01*
X145898638Y-108038786D01*
X146032033Y-107892185D01*
X146167408Y-107725781D01*
X146295873Y-107550314D01*
X146373431Y-107433375D01*
X146509946Y-107217828D01*
X146524215Y-107559887D01*
X146542010Y-107816620D01*
X146574893Y-108049170D01*
X146626560Y-108276943D01*
X146700708Y-108519344D01*
X146714834Y-108560579D01*
X146794940Y-108791501D01*
X146704742Y-108908414D01*
X146619202Y-109009751D01*
X146508016Y-109127566D01*
X146382241Y-109250998D01*
X146252935Y-109369188D01*
X146133832Y-109469154D01*
X145788888Y-109715202D01*
X145426569Y-109919402D01*
X145045009Y-110082582D01*
X144642346Y-110205571D01*
X144328077Y-110271472D01*
X144117107Y-110298269D01*
X143877450Y-110312902D01*
X143624522Y-110315428D01*
X143373741Y-110305905D01*
X143140523Y-110284390D01*
X143020306Y-110266601D01*
X142616917Y-110173875D01*
X142226677Y-110039248D01*
X141853265Y-109865081D01*
X141500364Y-109653738D01*
X141171654Y-109407581D01*
X140870816Y-109128973D01*
X140601531Y-108820277D01*
X140455984Y-108620638D01*
X140359608Y-108478718D01*
X140372146Y-108258981D01*
X140395670Y-108021234D01*
X140440616Y-107772945D01*
X140508767Y-107506539D01*
X140527140Y-107448922D01*
X143821974Y-107448922D01*
X143834930Y-107443379D01*
X143867382Y-107409562D01*
X143895563Y-107375640D01*
X143940943Y-107322180D01*
X144008781Y-107246628D01*
X144089459Y-107159537D01*
X144163670Y-107081490D01*
X144419323Y-106843095D01*
X144707369Y-106621857D01*
X145015237Y-106426390D01*
X145330360Y-106265306D01*
X145397083Y-106236315D01*
X145474043Y-106203618D01*
X145511659Y-106185687D01*
X145512811Y-106179644D01*
X145480382Y-106182606D01*
X145445892Y-106187525D01*
X145299780Y-106217224D01*
X145131065Y-106264975D01*
X144956447Y-106325383D01*
X144792625Y-106393055D01*
X144754674Y-106410782D01*
X144669483Y-106450369D01*
X144602164Y-106479111D01*
X144561477Y-106493413D01*
X144553459Y-106493329D01*
X144568314Y-106462235D01*
X144610070Y-106402551D01*
X144674514Y-106319248D01*
X144757433Y-106217300D01*
X144854615Y-106101676D01*
X144961847Y-105977351D01*
X145074916Y-105849294D01*
X145189609Y-105722480D01*
X145301712Y-105601878D01*
X145364777Y-105535814D01*
X145458051Y-105438545D01*
X145519057Y-105372592D01*
X145547810Y-105336832D01*
X145544323Y-105330140D01*
X145508610Y-105351393D01*
X145440687Y-105399467D01*
X145365801Y-105454530D01*
X145031807Y-105728506D01*
X144720299Y-106037480D01*
X144436634Y-106374940D01*
X144186172Y-106734378D01*
X143974271Y-107109283D01*
X143931459Y-107197210D01*
X143887450Y-107292069D01*
X143851932Y-107371801D01*
X143828855Y-107427327D01*
X143821974Y-107448922D01*
X140527140Y-107448922D01*
X140601910Y-107214442D01*
X140650416Y-107078162D01*
X140648522Y-107074101D01*
X140628619Y-107103977D01*
X140594715Y-107161608D01*
X140583674Y-107181135D01*
X140517513Y-107308310D01*
X140444712Y-107463505D01*
X140372077Y-107630994D01*
X140306411Y-107795049D01*
X140254519Y-107939945D01*
X140251984Y-107947712D01*
X140224658Y-108028096D01*
X140200964Y-108090906D01*
X140185612Y-108123744D01*
X140184651Y-108124977D01*
X140170301Y-108113050D01*
X140144288Y-108068490D01*
X140111124Y-108001476D01*
X140075321Y-107922188D01*
X140041393Y-107840803D01*
X140013853Y-107767500D01*
X139997212Y-107712459D01*
X139994452Y-107695969D01*
X140001115Y-107654695D01*
X140022443Y-107578604D01*
X140055785Y-107475242D01*
X140098491Y-107352155D01*
X140147909Y-107216890D01*
X140201391Y-107076993D01*
X140256284Y-106940011D01*
X140279758Y-106883658D01*
X140438462Y-106535261D01*
X140584546Y-106254379D01*
X140937964Y-106254379D01*
X140949405Y-106265820D01*
X140960847Y-106254379D01*
X140949405Y-106242937D01*
X140937964Y-106254379D01*
X140584546Y-106254379D01*
X140617685Y-106190661D01*
X140810094Y-105862968D01*
X141008356Y-105565294D01*
X141046910Y-105512085D01*
X141111330Y-105431537D01*
X141201259Y-105328664D01*
X141308466Y-105212059D01*
X141424716Y-105090312D01*
X141541776Y-104972017D01*
X141651412Y-104865765D01*
X141745391Y-104780148D01*
X141761747Y-104766118D01*
X141830510Y-104711629D01*
X141917320Y-104648273D01*
X142014821Y-104580780D01*
X142115656Y-104513880D01*
X142212468Y-104452302D01*
X142297902Y-104400778D01*
X142364600Y-104364037D01*
X142405205Y-104346809D01*
X142413498Y-104347060D01*
X142400289Y-104364267D01*
X142357963Y-104405815D01*
X142292243Y-104466373D01*
X142208856Y-104540611D01*
X142158635Y-104584390D01*
X141898893Y-104818337D01*
X141676802Y-105039038D01*
X141488176Y-105251791D01*
X141328825Y-105461895D01*
X141194561Y-105674649D01*
X141081197Y-105895349D01*
X141030548Y-106011535D01*
X140989327Y-106115247D01*
X140968187Y-106177864D01*
X140967188Y-106199445D01*
X140986388Y-106180048D01*
X141025846Y-106119731D01*
X141068128Y-106048777D01*
X141205397Y-105837330D01*
X142244748Y-105837330D01*
X142245901Y-105881948D01*
X142256777Y-105963552D01*
X142274530Y-106063582D01*
X142352990Y-106352743D01*
X142473200Y-106625641D01*
X142633038Y-106879032D01*
X142830376Y-107109668D01*
X143063091Y-107314303D01*
X143121403Y-107357356D01*
X143174833Y-107394521D01*
X143197910Y-107406525D01*
X143196934Y-107395608D01*
X143188859Y-107381361D01*
X143167763Y-107347288D01*
X143131194Y-107289057D01*
X143099140Y-107238343D01*
X142960124Y-106977360D01*
X142857989Y-106695256D01*
X142793143Y-106398548D01*
X142765990Y-106093756D01*
X142776938Y-105787401D01*
X142807203Y-105602948D01*
X143655991Y-105602948D01*
X143682865Y-105600340D01*
X143748465Y-105575369D01*
X143768107Y-105566791D01*
X143857257Y-105530882D01*
X143968172Y-105491337D01*
X144078354Y-105456136D01*
X144089015Y-105453002D01*
X144178221Y-105430403D01*
X144285304Y-105408372D01*
X144400827Y-105388224D01*
X144515355Y-105371274D01*
X144619449Y-105358839D01*
X144703674Y-105352233D01*
X144758593Y-105352773D01*
X144774034Y-105357506D01*
X144767510Y-105380513D01*
X144735692Y-105425970D01*
X144687547Y-105481729D01*
X144542240Y-105657534D01*
X144421780Y-105850063D01*
X144359615Y-105974197D01*
X144312217Y-106080187D01*
X144279029Y-106162748D01*
X144261670Y-106217092D01*
X144261756Y-106238430D01*
X144272745Y-106231496D01*
X144294541Y-106203457D01*
X144334983Y-106147061D01*
X144387220Y-106071958D01*
X144418335Y-106026412D01*
X144478000Y-105945927D01*
X144561247Y-105843732D01*
X144659129Y-105730316D01*
X144762702Y-105616166D01*
X144818425Y-105557313D01*
X144972164Y-105395925D01*
X145102003Y-105255860D01*
X145206364Y-105138972D01*
X145283668Y-105047113D01*
X145332339Y-104982137D01*
X145350798Y-104945897D01*
X145345271Y-104938613D01*
X145320756Y-104949899D01*
X145270468Y-104978979D01*
X145226062Y-105006473D01*
X145141025Y-105054084D01*
X145041106Y-105097008D01*
X144919168Y-105137538D01*
X144768077Y-105177965D01*
X144580695Y-105220582D01*
X144519135Y-105233556D01*
X144332353Y-105274863D01*
X144181426Y-105314635D01*
X144056710Y-105356278D01*
X143948563Y-105403197D01*
X143847340Y-105458798D01*
X143803470Y-105486270D01*
X143716719Y-105544944D01*
X143667417Y-105584160D01*
X143655991Y-105602948D01*
X142807203Y-105602948D01*
X142826392Y-105486001D01*
X142914761Y-105196076D01*
X142964423Y-105077439D01*
X142997668Y-104999417D01*
X143009432Y-104959659D01*
X143001215Y-104956857D01*
X142974521Y-104989697D01*
X142930848Y-105056869D01*
X142871698Y-105157061D01*
X142870129Y-105159811D01*
X142748132Y-105411513D01*
X142665616Y-105672102D01*
X142621102Y-105948173D01*
X142613109Y-106246319D01*
X142615101Y-106296096D01*
X142628606Y-106574739D01*
X142572779Y-106506090D01*
X142508088Y-106412421D01*
X142439292Y-106289374D01*
X142373761Y-106151874D01*
X142318863Y-106014848D01*
X142295981Y-105945460D01*
X142270153Y-105867079D01*
X142252953Y-105831705D01*
X142244748Y-105837330D01*
X141205397Y-105837330D01*
X141323717Y-105655071D01*
X141617065Y-105284969D01*
X141945073Y-104941461D01*
X142304640Y-104627537D01*
X142692666Y-104346187D01*
X143066186Y-104121915D01*
X143154935Y-104075721D01*
X143257386Y-104025848D01*
X143365285Y-103975887D01*
X143470380Y-103929430D01*
X143564419Y-103890068D01*
X143639148Y-103861390D01*
X143686315Y-103846989D01*
X143698217Y-103846915D01*
X143692463Y-103870038D01*
X143666350Y-103918397D01*
X143638390Y-103962176D01*
X143598269Y-104031198D01*
X143556366Y-104118337D01*
X143518496Y-104209475D01*
X143490475Y-104290489D01*
X143478118Y-104347259D01*
X143477964Y-104351720D01*
X143488726Y-104347369D01*
X143516666Y-104311935D01*
X143548105Y-104264900D01*
X143606508Y-104178896D01*
X143673808Y-104088189D01*
X143702564Y-104052151D01*
X143751631Y-103999052D01*
X143817395Y-103936313D01*
X143891731Y-103870631D01*
X143966513Y-103808705D01*
X144033615Y-103757230D01*
X144084911Y-103722905D01*
X144112276Y-103712426D01*
X144113748Y-103713256D01*
X144111167Y-103738458D01*
X144092951Y-103792716D01*
X144066243Y-103856921D01*
X143986119Y-104068819D01*
X143921091Y-104307836D01*
X143875579Y-104556588D01*
X143864155Y-104651684D01*
X143851555Y-104802600D01*
X143849026Y-104911746D01*
X143856921Y-104982077D01*
X143875595Y-105016546D01*
X143905403Y-105018107D01*
X143907976Y-105017034D01*
X144063083Y-104957586D01*
X144231768Y-104911926D01*
X144425570Y-104877364D01*
X144594442Y-104857099D01*
X144723632Y-104843310D01*
X144845638Y-104828972D01*
X144948856Y-104815539D01*
X145021685Y-104804464D01*
X145036196Y-104801753D01*
X145156326Y-104766991D01*
X146681567Y-104766991D01*
X146693009Y-104778433D01*
X146704450Y-104766991D01*
X146693009Y-104755550D01*
X146681567Y-104766991D01*
X145156326Y-104766991D01*
X145248585Y-104740294D01*
X146757844Y-104740294D01*
X146760985Y-104753898D01*
X146773099Y-104755550D01*
X146791934Y-104747177D01*
X146788354Y-104740294D01*
X150510636Y-104740294D01*
X150513777Y-104753898D01*
X150525892Y-104755550D01*
X150544727Y-104747177D01*
X150541147Y-104740294D01*
X150513990Y-104737556D01*
X150510636Y-104740294D01*
X146788354Y-104740294D01*
X146761197Y-104737556D01*
X146757844Y-104740294D01*
X145248585Y-104740294D01*
X145253033Y-104739007D01*
X145283414Y-104723709D01*
X146837599Y-104723709D01*
X146856297Y-104723030D01*
X146876072Y-104719357D01*
X146924843Y-104709627D01*
X147007096Y-104693344D01*
X147111404Y-104672766D01*
X147226338Y-104650151D01*
X147227935Y-104649837D01*
X147471608Y-104605045D01*
X147696439Y-104571041D01*
X147915217Y-104546674D01*
X148140728Y-104530795D01*
X148385758Y-104522254D01*
X148663096Y-104519900D01*
X148672378Y-104519914D01*
X149029368Y-104526221D01*
X149353796Y-104544654D01*
X149657546Y-104576414D01*
X149952499Y-104622706D01*
X150211214Y-104675741D01*
X150312521Y-104697756D01*
X150396106Y-104714307D01*
X150452730Y-104723672D01*
X150473019Y-104724519D01*
X150456317Y-104715151D01*
X150403994Y-104696714D01*
X150324705Y-104671730D01*
X150227102Y-104642724D01*
X150119838Y-104612218D01*
X150011566Y-104582735D01*
X149910940Y-104556799D01*
X149839405Y-104539768D01*
X149642465Y-104498969D01*
X149455105Y-104468336D01*
X149265748Y-104446766D01*
X149062817Y-104433154D01*
X148834734Y-104426396D01*
X148638054Y-104425163D01*
X148393530Y-104427678D01*
X148182702Y-104435461D01*
X147993668Y-104449855D01*
X147814526Y-104472199D01*
X147633374Y-104503834D01*
X147438312Y-104546100D01*
X147326932Y-104572848D01*
X147235265Y-104596550D01*
X147140212Y-104622993D01*
X147048157Y-104650102D01*
X146965483Y-104675803D01*
X146898576Y-104698021D01*
X146853820Y-104714681D01*
X146837599Y-104723709D01*
X145283414Y-104723709D01*
X145423140Y-104653351D01*
X146132378Y-104653351D01*
X146147686Y-104646265D01*
X146188502Y-104613880D01*
X146247166Y-104562431D01*
X146271708Y-104539953D01*
X146363347Y-104460805D01*
X146471188Y-104375914D01*
X146572315Y-104303295D01*
X146574906Y-104301561D01*
X146764541Y-104180923D01*
X146940696Y-104082771D01*
X147122021Y-103997003D01*
X147192530Y-103967058D01*
X147296799Y-103926544D01*
X147409327Y-103887159D01*
X147520541Y-103851746D01*
X147620871Y-103823148D01*
X147700746Y-103804208D01*
X147750594Y-103797767D01*
X147758849Y-103798878D01*
X147751748Y-103812756D01*
X147712375Y-103842729D01*
X147648632Y-103882970D01*
X147630088Y-103893794D01*
X147559249Y-103935955D01*
X147508271Y-103969032D01*
X147486212Y-103987070D01*
X147486138Y-103988428D01*
X147511055Y-103989062D01*
X147567189Y-103982968D01*
X147619765Y-103975091D01*
X147787420Y-103953455D01*
X147985662Y-103937446D01*
X148199588Y-103927656D01*
X148414299Y-103924679D01*
X148614891Y-103929107D01*
X148683236Y-103932785D01*
X149150769Y-103982424D01*
X149598168Y-104070867D01*
X150032316Y-104199977D01*
X150460093Y-104371616D01*
X150663265Y-104468693D01*
X150766990Y-104519457D01*
X150852990Y-104559014D01*
X150914714Y-104584557D01*
X150945614Y-104593281D01*
X150947459Y-104590458D01*
X150925973Y-104560010D01*
X150883350Y-104504329D01*
X150827439Y-104433598D01*
X150805490Y-104406312D01*
X150628936Y-104218416D01*
X150416585Y-104048064D01*
X150166886Y-103894431D01*
X149878287Y-103756693D01*
X149549234Y-103634026D01*
X149178176Y-103525606D01*
X149118594Y-103510470D01*
X148826352Y-103447172D01*
X148542595Y-103404317D01*
X148274637Y-103382429D01*
X148029792Y-103382029D01*
X147815375Y-103403642D01*
X147762783Y-103413500D01*
X147689540Y-103426529D01*
X147637967Y-103431275D01*
X147619765Y-103427144D01*
X147639032Y-103409182D01*
X147688735Y-103380304D01*
X147756725Y-103346359D01*
X147830856Y-103313198D01*
X147898979Y-103286674D01*
X147933777Y-103275893D01*
X147997333Y-103259554D01*
X147940126Y-103243256D01*
X147836474Y-103227505D01*
X147706679Y-103228404D01*
X147567003Y-103245399D01*
X147505661Y-103258056D01*
X147308088Y-103326653D01*
X147133486Y-103434366D01*
X146980154Y-103582294D01*
X146953375Y-103614925D01*
X146880069Y-103707480D01*
X146996898Y-103648279D01*
X147070815Y-103614339D01*
X147163320Y-103576815D01*
X147262592Y-103539899D01*
X147356810Y-103507785D01*
X147434153Y-103484665D01*
X147482799Y-103474731D01*
X147486503Y-103474628D01*
X147483414Y-103484482D01*
X147447202Y-103509993D01*
X147385452Y-103545912D01*
X147376453Y-103550798D01*
X147132779Y-103701655D01*
X146897607Y-103884644D01*
X146788286Y-103984521D01*
X146722356Y-104046836D01*
X146670833Y-104092902D01*
X146640830Y-104116501D01*
X146636077Y-104117614D01*
X146646675Y-104090863D01*
X146673158Y-104039617D01*
X146688672Y-104011856D01*
X146732639Y-103930845D01*
X146750843Y-103885842D01*
X146742592Y-103876746D01*
X146707192Y-103903455D01*
X146643949Y-103965866D01*
X146611068Y-104000415D01*
X146552957Y-104066232D01*
X146483587Y-104151048D01*
X146408379Y-104247470D01*
X146332752Y-104348104D01*
X146262127Y-104445558D01*
X146201922Y-104532440D01*
X146157558Y-104601356D01*
X146134455Y-104644914D01*
X146132378Y-104653351D01*
X145423140Y-104653351D01*
X145438593Y-104645570D01*
X145590952Y-104522612D01*
X145685497Y-104406975D01*
X145735525Y-104342058D01*
X145769249Y-104319890D01*
X145786516Y-104340396D01*
X145787172Y-104403504D01*
X145780991Y-104452524D01*
X145767819Y-104538162D01*
X145803706Y-104458204D01*
X145832041Y-104342864D01*
X145818873Y-104225136D01*
X145767490Y-104112029D01*
X145681178Y-104010554D01*
X145563225Y-103927719D01*
X145552204Y-103921945D01*
X145476615Y-103886652D01*
X145409403Y-103865961D01*
X145332519Y-103856027D01*
X145228643Y-103853010D01*
X145136161Y-103851767D01*
X145082210Y-103848333D01*
X145059554Y-103840760D01*
X145060960Y-103827100D01*
X145073782Y-103811323D01*
X145114682Y-103783503D01*
X145183538Y-103752488D01*
X145248702Y-103730211D01*
X145387105Y-103689452D01*
X145213533Y-103581270D01*
X145047368Y-103492347D01*
X145629357Y-103492347D01*
X145643218Y-103570617D01*
X145666549Y-103626507D01*
X145736380Y-103723689D01*
X145835973Y-103787619D01*
X145961429Y-103816051D01*
X145997973Y-103817352D01*
X146079261Y-103813752D01*
X146134225Y-103798727D01*
X146182022Y-103765939D01*
X146198607Y-103750963D01*
X146257707Y-103673483D01*
X146271944Y-103595674D01*
X146242116Y-103520250D01*
X146169025Y-103449925D01*
X146097310Y-103407539D01*
X145957057Y-103353750D01*
X145834622Y-103341643D01*
X145729068Y-103371157D01*
X145710563Y-103381638D01*
X145651302Y-103432150D01*
X145629357Y-103492347D01*
X145047368Y-103492347D01*
X144969707Y-103450787D01*
X144718873Y-103360646D01*
X144454022Y-103309083D01*
X144168148Y-103294334D01*
X144082578Y-103296595D01*
X143871981Y-103313810D01*
X143687488Y-103349057D01*
X143511528Y-103406692D01*
X143354501Y-103477054D01*
X143270911Y-103515660D01*
X143223247Y-103531566D01*
X143212646Y-103524914D01*
X143240245Y-103495847D01*
X143276235Y-103467236D01*
X143483195Y-103334500D01*
X143718384Y-103224621D01*
X143942720Y-103150860D01*
X143991298Y-103143109D01*
X144073342Y-103135603D01*
X144181815Y-103128531D01*
X144309681Y-103122081D01*
X144449904Y-103116445D01*
X144595448Y-103111810D01*
X144739278Y-103108367D01*
X144874356Y-103106305D01*
X144993648Y-103105813D01*
X145090117Y-103107081D01*
X145156727Y-103110297D01*
X145186442Y-103115652D01*
X145187277Y-103117361D01*
X145164217Y-103140727D01*
X145115830Y-103172486D01*
X145101786Y-103180289D01*
X145023272Y-103222397D01*
X145094725Y-103222397D01*
X145148743Y-103215975D01*
X145231739Y-103198829D01*
X145329084Y-103174137D01*
X145368962Y-103162802D01*
X145538346Y-103121508D01*
X145694345Y-103103872D01*
X145847175Y-103111019D01*
X146007048Y-103144078D01*
X146184179Y-103204176D01*
X146339543Y-103269940D01*
X146462274Y-103321245D01*
X146556092Y-103349567D01*
X146630837Y-103356267D01*
X146696351Y-103342706D01*
X146736458Y-103324819D01*
X146784384Y-103303836D01*
X146811679Y-103299358D01*
X146812515Y-103299951D01*
X146811938Y-103328702D01*
X146785411Y-103378209D01*
X146741033Y-103438648D01*
X146686902Y-103500195D01*
X146631118Y-103553026D01*
X146581781Y-103587318D01*
X146572070Y-103591597D01*
X146555599Y-103617351D01*
X146539948Y-103672715D01*
X146534617Y-103702937D01*
X146519563Y-103805910D01*
X146672637Y-103645730D01*
X146743939Y-103567673D01*
X146822624Y-103475910D01*
X146903124Y-103377630D01*
X146979871Y-103280023D01*
X147047298Y-103190277D01*
X147099836Y-103115582D01*
X147131918Y-103063128D01*
X147139225Y-103043266D01*
X147119212Y-103022128D01*
X147063945Y-102987190D01*
X146980586Y-102941849D01*
X146876294Y-102889498D01*
X146758228Y-102833533D01*
X146633550Y-102777350D01*
X146509418Y-102724342D01*
X146392993Y-102677905D01*
X146292558Y-102641806D01*
X145899087Y-102532928D01*
X145496063Y-102462885D01*
X145090720Y-102432165D01*
X144690294Y-102441261D01*
X144302019Y-102490661D01*
X144239423Y-102502760D01*
X143880894Y-102596097D01*
X143513964Y-102731232D01*
X143142754Y-102905944D01*
X142771379Y-103118009D01*
X142403959Y-103365207D01*
X142044610Y-103645315D01*
X141912896Y-103758280D01*
X141846650Y-103818438D01*
X141764233Y-103896129D01*
X141670900Y-103986088D01*
X141571906Y-104083049D01*
X141472508Y-104181747D01*
X141377961Y-104276914D01*
X141293520Y-104363286D01*
X141224439Y-104435596D01*
X141175976Y-104488578D01*
X141153385Y-104516967D01*
X141152575Y-104520132D01*
X141173450Y-104511656D01*
X141222748Y-104482791D01*
X141291185Y-104439080D01*
X141317009Y-104421926D01*
X141419624Y-104355782D01*
X141515129Y-104299046D01*
X141596572Y-104255342D01*
X141657001Y-104228290D01*
X141689465Y-104221516D01*
X141693099Y-104225944D01*
X141677545Y-104251391D01*
X141637320Y-104296129D01*
X141595847Y-104336590D01*
X141364322Y-104566148D01*
X141126365Y-104829270D01*
X140889987Y-105116093D01*
X140663200Y-105416753D01*
X140454016Y-105721387D01*
X140391157Y-105819604D01*
X140341994Y-105901686D01*
X140282408Y-106007125D01*
X140215829Y-106129216D01*
X140145685Y-106261253D01*
X140075403Y-106396532D01*
X140008412Y-106528348D01*
X139948141Y-106649995D01*
X139898017Y-106754770D01*
X139861468Y-106835966D01*
X139841923Y-106886880D01*
X139839585Y-106898384D01*
X139827904Y-106926690D01*
X139819813Y-106929424D01*
X139803264Y-106907513D01*
X139789533Y-106845565D01*
X139779253Y-106749257D01*
X139773061Y-106624265D01*
X139771489Y-106497176D01*
X139772042Y-106277261D01*
X139928477Y-105941543D01*
X140203526Y-105400838D01*
X140509017Y-104893838D01*
X140844730Y-104420856D01*
X141210448Y-103982204D01*
X141538941Y-103642174D01*
X141880871Y-103332234D01*
X142226855Y-103061670D01*
X142585547Y-102824324D01*
X142965602Y-102614039D01*
X143027035Y-102583444D01*
X143446681Y-102399864D01*
X143866812Y-102261317D01*
X144288222Y-102167821D01*
X144711707Y-102119393D01*
X145138059Y-102116051D01*
X145568075Y-102157812D01*
G37*
D14*
%TO.C,C1*%
X167236252Y-111910000D02*
X165813748Y-111910000D01*
X167236252Y-110090000D02*
X165813748Y-110090000D01*
%TO.C,J2*%
X148530000Y-144605000D02*
X148530000Y-143275000D01*
X149860000Y-144605000D02*
X148530000Y-144605000D01*
X151130000Y-144605000D02*
X174050000Y-144605000D01*
X151130000Y-144605000D02*
X151130000Y-142005000D01*
X174050000Y-144605000D02*
X174050000Y-139405000D01*
X148530000Y-142005000D02*
X148530000Y-139405000D01*
X151130000Y-142005000D02*
X148530000Y-142005000D01*
X148530000Y-139405000D02*
X174050000Y-139405000D01*
%TO.C,C2*%
X156711252Y-122410000D02*
X155288748Y-122410000D01*
X156711252Y-120590000D02*
X155288748Y-120590000D01*
%TO.C,C4*%
X156711252Y-116410000D02*
X155288748Y-116410000D01*
X156711252Y-114590000D02*
X155288748Y-114590000D01*
%TO.C,R5*%
X133910000Y-106772936D02*
X133910000Y-108227064D01*
X132090000Y-106772936D02*
X132090000Y-108227064D01*
%TO.C,C7*%
X116311252Y-133371000D02*
X114888748Y-133371000D01*
X116311252Y-131551000D02*
X114888748Y-131551000D01*
%TO.C,R4*%
X121885064Y-133371000D02*
X120430936Y-133371000D01*
X121885064Y-131551000D02*
X120430936Y-131551000D01*
%TO.C,J4*%
X141130000Y-112170000D02*
X142460000Y-112170000D01*
X141130000Y-113500000D02*
X141130000Y-112170000D01*
X141130000Y-114770000D02*
X141130000Y-132610000D01*
X141130000Y-114770000D02*
X143730000Y-114770000D01*
X141130000Y-132610000D02*
X146330000Y-132610000D01*
X143730000Y-112170000D02*
X146330000Y-112170000D01*
X143730000Y-114770000D02*
X143730000Y-112170000D01*
X146330000Y-112170000D02*
X146330000Y-132610000D01*
%TO.C,SW2*%
X170500000Y-129250000D02*
X170500000Y-130750000D01*
X171750000Y-133250000D02*
X176250000Y-133250000D01*
X176250000Y-126750000D02*
X171750000Y-126750000D01*
X177500000Y-130750000D02*
X177500000Y-129250000D01*
%TO.C,C6*%
X180851248Y-130140000D02*
X182273752Y-130140000D01*
X180851248Y-131960000D02*
X182273752Y-131960000D01*
%TO.C,SW1*%
X156500000Y-129250000D02*
X156500000Y-130750000D01*
X157750000Y-133250000D02*
X162250000Y-133250000D01*
X162250000Y-126750000D02*
X157750000Y-126750000D01*
X163500000Y-130750000D02*
X163500000Y-129250000D01*
%TO.C,U1*%
X153590000Y-112600000D02*
X153590000Y-106590000D01*
X160410000Y-110350000D02*
X160410000Y-106590000D01*
X153590000Y-106590000D02*
X154850000Y-106590000D01*
X160410000Y-106590000D02*
X159150000Y-106590000D01*
%TO.C,R7*%
X167910000Y-125310436D02*
X167910000Y-126764564D01*
X166090000Y-125310436D02*
X166090000Y-126764564D01*
%TO.C,Q2*%
X181500000Y-125940000D02*
X179825000Y-125940000D01*
X181500000Y-125940000D02*
X182150000Y-125940000D01*
X181500000Y-129060000D02*
X180850000Y-129060000D01*
X181500000Y-129060000D02*
X182150000Y-129060000D01*
%TO.C,R1*%
X174410000Y-118272936D02*
X174410000Y-119727064D01*
X172590000Y-118272936D02*
X172590000Y-119727064D01*
%TO.C,Q1*%
X181500000Y-122440000D02*
X179825000Y-122440000D01*
X181500000Y-122440000D02*
X182150000Y-122440000D01*
X181500000Y-125560000D02*
X180850000Y-125560000D01*
X181500000Y-125560000D02*
X182150000Y-125560000D01*
%TO.C,U2*%
X166525000Y-122560000D02*
X169975000Y-122560000D01*
X166525000Y-122560000D02*
X164575000Y-122560000D01*
X166525000Y-112440000D02*
X168475000Y-112440000D01*
X166525000Y-112440000D02*
X164575000Y-112440000D01*
%TO.C,R2*%
X172590000Y-113727064D02*
X172590000Y-112272936D01*
X174410000Y-113727064D02*
X174410000Y-112272936D01*
%TO.C,U3*%
X105390000Y-129420000D02*
X112140000Y-129420000D01*
X105390000Y-129420000D02*
X105390000Y-111420000D01*
X130140000Y-129420000D02*
X130890000Y-129420000D01*
X130890000Y-129420000D02*
X130890000Y-128420000D01*
X105390000Y-111420000D02*
X112140000Y-111420000D01*
X111330000Y-111420000D02*
X111330000Y-129420000D01*
X130140000Y-111420000D02*
X130890000Y-111420000D01*
X130890000Y-111420000D02*
X130890000Y-112420000D01*
%TO.C,J3*%
X178490000Y-120580000D02*
X180410000Y-120580000D01*
X184125000Y-120580000D02*
X182420000Y-120580000D01*
X180410000Y-111420000D02*
X178490000Y-111420000D01*
X182420000Y-111420000D02*
X184125000Y-111420000D01*
X184125000Y-111420000D02*
X184125000Y-120580000D01*
%TO.C,J5*%
X112970000Y-108010000D02*
X112970000Y-106680000D01*
X114300000Y-108010000D02*
X112970000Y-108010000D01*
X115570000Y-108010000D02*
X130870000Y-108010000D01*
X115570000Y-108010000D02*
X115570000Y-105350000D01*
X130870000Y-108010000D02*
X130870000Y-105350000D01*
X115570000Y-105350000D02*
X130870000Y-105350000D01*
%TO.C,C5*%
X180851248Y-133140000D02*
X182273752Y-133140000D01*
X180851248Y-134960000D02*
X182273752Y-134960000D01*
%TO.C,R3*%
X173090000Y-105727064D02*
X173090000Y-104272936D01*
X174910000Y-105727064D02*
X174910000Y-104272936D01*
%TO.C,R6*%
X167910000Y-130810436D02*
X167910000Y-132264564D01*
X166090000Y-130810436D02*
X166090000Y-132264564D01*
%TO.C,C3*%
X156711252Y-119410000D02*
X155288748Y-119410000D01*
X156711252Y-117590000D02*
X155288748Y-117590000D01*
%TO.C,J1*%
X112970000Y-144605000D02*
X112970000Y-143275000D01*
X114300000Y-144605000D02*
X112970000Y-144605000D01*
X115570000Y-144605000D02*
X133410000Y-144605000D01*
X115570000Y-144605000D02*
X115570000Y-142005000D01*
X133410000Y-144605000D02*
X133410000Y-139405000D01*
X112970000Y-142005000D02*
X112970000Y-139405000D01*
X115570000Y-142005000D02*
X112970000Y-142005000D01*
X112970000Y-139405000D02*
X133410000Y-139405000D01*
%TO.C,D1*%
X166210000Y-103455000D02*
X166210000Y-106545000D01*
X171759999Y-105000462D02*
G75*
G03*
X166210001Y-103455170I-2989999J462D01*
G01*
X166210000Y-106544830D02*
G75*
G03*
X171760000Y-104999538I2560000J1544830D01*
G01*
X171270000Y-105000000D02*
G75*
G03*
X171270000Y-105000000I-2500000J0D01*
G01*
%TD*%
M02*
