%TF.GenerationSoftware,KiCad,Pcbnew,7.0.7*%
%TF.CreationDate,2024-01-15T23:48:36+01:00*%
%TF.ProjectId,FlipperZeroESP32,466c6970-7065-4725-9a65-726f45535033,rev?*%
%TF.SameCoordinates,Original*%
%TF.FileFunction,Soldermask,Bot*%
%TF.FilePolarity,Negative*%
%FSLAX46Y46*%
G04 Gerber Fmt 4.6, Leading zero omitted, Abs format (unit mm)*
G04 Created by KiCad (PCBNEW 7.0.7) date 2024-01-15 23:48:36*
%MOMM*%
%LPD*%
G01*
G04 APERTURE LIST*
%ADD10R,1.700000X1.700000*%
%ADD11O,1.700000X1.700000*%
%ADD12C,0.800000*%
%ADD13C,6.400000*%
%ADD14C,2.000000*%
%ADD15C,0.650000*%
%ADD16O,2.100000X1.000000*%
%ADD17O,1.800000X1.000000*%
%ADD18R,1.800000X1.800000*%
%ADD19C,1.800000*%
G04 APERTURE END LIST*
D10*
%TO.C,J2*%
X149860000Y-143275000D03*
D11*
X149860000Y-140735000D03*
X152400000Y-143275000D03*
X152400000Y-140735000D03*
X154940000Y-143275000D03*
X154940000Y-140735000D03*
X157480000Y-143275000D03*
X157480000Y-140735000D03*
X160020000Y-143275000D03*
X160020000Y-140735000D03*
X162560000Y-143275000D03*
X162560000Y-140735000D03*
X165100000Y-143275000D03*
X165100000Y-140735000D03*
X167640000Y-143275000D03*
X167640000Y-140735000D03*
X170180000Y-143275000D03*
X170180000Y-140735000D03*
X172720000Y-143275000D03*
X172720000Y-140735000D03*
%TD*%
D12*
%TO.C,H1*%
X102600000Y-105000000D03*
X103302944Y-103302944D03*
X103302944Y-106697056D03*
X105000000Y-102600000D03*
D13*
X105000000Y-105000000D03*
D12*
X105000000Y-107400000D03*
X106697056Y-103302944D03*
X106697056Y-106697056D03*
X107400000Y-105000000D03*
%TD*%
D10*
%TO.C,J4*%
X142460000Y-113500000D03*
D11*
X145000000Y-113500000D03*
X142460000Y-116040000D03*
X145000000Y-116040000D03*
X142460000Y-118580000D03*
X145000000Y-118580000D03*
X142460000Y-121120000D03*
X145000000Y-121120000D03*
X142460000Y-123660000D03*
X145000000Y-123660000D03*
X142460000Y-126200000D03*
X145000000Y-126200000D03*
X142460000Y-128740000D03*
X145000000Y-128740000D03*
X142460000Y-131280000D03*
X145000000Y-131280000D03*
%TD*%
D14*
%TO.C,SW2*%
X170750000Y-127750000D03*
X177250000Y-127750000D03*
X170750000Y-132250000D03*
X177250000Y-132250000D03*
%TD*%
%TO.C,SW1*%
X156750000Y-127750000D03*
X163250000Y-127750000D03*
X156750000Y-132250000D03*
X163250000Y-132250000D03*
%TD*%
D12*
%TO.C,H2*%
X177600000Y-105000000D03*
X178302944Y-103302944D03*
X178302944Y-106697056D03*
X180000000Y-102600000D03*
D13*
X180000000Y-105000000D03*
D12*
X180000000Y-107400000D03*
X181697056Y-103302944D03*
X181697056Y-106697056D03*
X182400000Y-105000000D03*
%TD*%
%TO.C,H4*%
X177600000Y-140000000D03*
X178302944Y-138302944D03*
X178302944Y-141697056D03*
X180000000Y-137600000D03*
D13*
X180000000Y-140000000D03*
D12*
X180000000Y-142400000D03*
X181697056Y-138302944D03*
X181697056Y-141697056D03*
X182400000Y-140000000D03*
%TD*%
%TO.C,H3*%
X102600000Y-140000000D03*
X103302944Y-138302944D03*
X103302944Y-141697056D03*
X105000000Y-137600000D03*
D13*
X105000000Y-140000000D03*
D12*
X105000000Y-142400000D03*
X106697056Y-138302944D03*
X106697056Y-141697056D03*
X107400000Y-140000000D03*
%TD*%
D15*
%TO.C,J3*%
X177735000Y-118890000D03*
X177735000Y-113110000D03*
D16*
X177215000Y-120320000D03*
D17*
X181415000Y-120320000D03*
D16*
X177215000Y-111680000D03*
D17*
X181415000Y-111680000D03*
%TD*%
D10*
%TO.C,J5*%
X114300000Y-106680000D03*
D11*
X116840000Y-106680000D03*
X119380000Y-106680000D03*
X121920000Y-106680000D03*
X124460000Y-106680000D03*
X127000000Y-106680000D03*
X129540000Y-106680000D03*
%TD*%
D10*
%TO.C,J1*%
X114300000Y-143275000D03*
D11*
X114300000Y-140735000D03*
X116840000Y-143275000D03*
X116840000Y-140735000D03*
X119380000Y-143275000D03*
X119380000Y-140735000D03*
X121920000Y-143275000D03*
X121920000Y-140735000D03*
X124460000Y-143275000D03*
X124460000Y-140735000D03*
X127000000Y-143275000D03*
X127000000Y-140735000D03*
X129540000Y-143275000D03*
X129540000Y-140735000D03*
X132080000Y-143275000D03*
X132080000Y-140735000D03*
%TD*%
D18*
%TO.C,D1*%
X167500000Y-105000000D03*
D19*
X170040000Y-105000000D03*
%TD*%
M02*
