%TF.GenerationSoftware,KiCad,Pcbnew,7.0.7*%
%TF.CreationDate,2024-01-15T23:48:35+01:00*%
%TF.ProjectId,FlipperZeroESP32,466c6970-7065-4725-9a65-726f45535033,rev?*%
%TF.SameCoordinates,Original*%
%TF.FileFunction,Paste,Top*%
%TF.FilePolarity,Positive*%
%FSLAX46Y46*%
G04 Gerber Fmt 4.6, Leading zero omitted, Abs format (unit mm)*
G04 Created by KiCad (PCBNEW 7.0.7) date 2024-01-15 23:48:35*
%MOMM*%
%LPD*%
G01*
G04 APERTURE LIST*
G04 Aperture macros list*
%AMRoundRect*
0 Rectangle with rounded corners*
0 $1 Rounding radius*
0 $2 $3 $4 $5 $6 $7 $8 $9 X,Y pos of 4 corners*
0 Add a 4 corners polygon primitive as box body*
4,1,4,$2,$3,$4,$5,$6,$7,$8,$9,$2,$3,0*
0 Add four circle primitives for the rounded corners*
1,1,$1+$1,$2,$3*
1,1,$1+$1,$4,$5*
1,1,$1+$1,$6,$7*
1,1,$1+$1,$8,$9*
0 Add four rect primitives between the rounded corners*
20,1,$1+$1,$2,$3,$4,$5,0*
20,1,$1+$1,$4,$5,$6,$7,0*
20,1,$1+$1,$6,$7,$8,$9,0*
20,1,$1+$1,$8,$9,$2,$3,0*%
G04 Aperture macros list end*
%ADD10RoundRect,0.250000X0.325000X0.650000X-0.325000X0.650000X-0.325000X-0.650000X0.325000X-0.650000X0*%
%ADD11RoundRect,0.250000X-0.625000X0.312500X-0.625000X-0.312500X0.625000X-0.312500X0.625000X0.312500X0*%
%ADD12RoundRect,0.250000X0.312500X0.625000X-0.312500X0.625000X-0.312500X-0.625000X0.312500X-0.625000X0*%
%ADD13RoundRect,0.250000X-0.325000X-0.650000X0.325000X-0.650000X0.325000X0.650000X-0.325000X0.650000X0*%
%ADD14R,1.500000X2.000000*%
%ADD15R,3.800000X2.000000*%
%ADD16RoundRect,0.150000X-0.587500X-0.150000X0.587500X-0.150000X0.587500X0.150000X-0.587500X0.150000X0*%
%ADD17RoundRect,0.150000X0.825000X0.150000X-0.825000X0.150000X-0.825000X-0.150000X0.825000X-0.150000X0*%
%ADD18RoundRect,0.250000X0.625000X-0.312500X0.625000X0.312500X-0.625000X0.312500X-0.625000X-0.312500X0*%
%ADD19R,0.900000X1.500000*%
%ADD20R,1.500000X0.900000*%
%ADD21R,0.900000X0.900000*%
%ADD22R,1.240000X0.600000*%
%ADD23R,1.240000X0.300000*%
G04 APERTURE END LIST*
D10*
%TO.C,C1*%
X168000000Y-111000000D03*
X165050000Y-111000000D03*
%TD*%
%TO.C,C2*%
X157475000Y-121500000D03*
X154525000Y-121500000D03*
%TD*%
%TO.C,C4*%
X157475000Y-115500000D03*
X154525000Y-115500000D03*
%TD*%
D11*
%TO.C,R5*%
X133000000Y-106037500D03*
X133000000Y-108962500D03*
%TD*%
D10*
%TO.C,C7*%
X117075000Y-132461000D03*
X114125000Y-132461000D03*
%TD*%
D12*
%TO.C,R4*%
X122620500Y-132461000D03*
X119695500Y-132461000D03*
%TD*%
D13*
%TO.C,C6*%
X180087500Y-131050000D03*
X183037500Y-131050000D03*
%TD*%
D14*
%TO.C,U1*%
X154700000Y-111650000D03*
X157000000Y-111650000D03*
D15*
X157000000Y-105350000D03*
D14*
X159300000Y-111650000D03*
%TD*%
D11*
%TO.C,R7*%
X167000000Y-124575000D03*
X167000000Y-127500000D03*
%TD*%
D16*
%TO.C,Q2*%
X180562500Y-126550000D03*
X180562500Y-128450000D03*
X182437500Y-127500000D03*
%TD*%
D11*
%TO.C,R1*%
X173500000Y-117537500D03*
X173500000Y-120462500D03*
%TD*%
D16*
%TO.C,Q1*%
X180562500Y-123050000D03*
X180562500Y-124950000D03*
X182437500Y-124000000D03*
%TD*%
D17*
%TO.C,U2*%
X169000000Y-121945000D03*
X169000000Y-120675000D03*
X169000000Y-119405000D03*
X169000000Y-118135000D03*
X169000000Y-116865000D03*
X169000000Y-115595000D03*
X169000000Y-114325000D03*
X169000000Y-113055000D03*
X164050000Y-113055000D03*
X164050000Y-114325000D03*
X164050000Y-115595000D03*
X164050000Y-116865000D03*
X164050000Y-118135000D03*
X164050000Y-119405000D03*
X164050000Y-120675000D03*
X164050000Y-121945000D03*
%TD*%
D18*
%TO.C,R2*%
X173500000Y-114462500D03*
X173500000Y-111537500D03*
%TD*%
D19*
%TO.C,U3*%
X112880000Y-129170000D03*
X114150000Y-129170000D03*
X115420000Y-129170000D03*
X116690000Y-129170000D03*
X117960000Y-129170000D03*
X119230000Y-129170000D03*
X120500000Y-129170000D03*
X121770000Y-129170000D03*
X123040000Y-129170000D03*
X124310000Y-129170000D03*
X125580000Y-129170000D03*
X126850000Y-129170000D03*
X128120000Y-129170000D03*
X129390000Y-129170000D03*
D20*
X130640000Y-127405000D03*
X130640000Y-126135000D03*
X130640000Y-124865000D03*
X130640000Y-123595000D03*
X130640000Y-122325000D03*
X130640000Y-121055000D03*
X130640000Y-119785000D03*
X130640000Y-118515000D03*
X130640000Y-117245000D03*
X130640000Y-115975000D03*
X130640000Y-114705000D03*
X130640000Y-113435000D03*
D19*
X129390000Y-111670000D03*
X128120000Y-111670000D03*
X126850000Y-111670000D03*
X125580000Y-111670000D03*
X124310000Y-111670000D03*
X123040000Y-111670000D03*
X121770000Y-111670000D03*
X120500000Y-111670000D03*
X119230000Y-111670000D03*
X117960000Y-111670000D03*
X116690000Y-111670000D03*
X115420000Y-111670000D03*
X114150000Y-111670000D03*
X112880000Y-111670000D03*
D21*
X119200000Y-123320000D03*
X120600000Y-123320000D03*
X122000000Y-123320000D03*
X122000000Y-123320000D03*
X119200000Y-121920000D03*
X119200000Y-121920000D03*
X120600000Y-121920000D03*
X122000000Y-121920000D03*
X119200000Y-120520000D03*
X120600000Y-120520000D03*
X122000000Y-120520000D03*
%TD*%
D22*
%TO.C,J3*%
X176615000Y-119200000D03*
X176615000Y-118400000D03*
D23*
X176615000Y-117250000D03*
X176615000Y-116250000D03*
X176615000Y-115750000D03*
X176615000Y-114750000D03*
D22*
X176615000Y-113600000D03*
X176615000Y-112800000D03*
X176615000Y-112800000D03*
X176615000Y-113600000D03*
D23*
X176615000Y-114250000D03*
X176615000Y-115250000D03*
X176615000Y-116750000D03*
X176615000Y-117750000D03*
D22*
X176615000Y-118400000D03*
X176615000Y-119200000D03*
%TD*%
D13*
%TO.C,C5*%
X180087500Y-134050000D03*
X183037500Y-134050000D03*
%TD*%
D18*
%TO.C,R3*%
X174000000Y-106462500D03*
X174000000Y-103537500D03*
%TD*%
D11*
%TO.C,R6*%
X167000000Y-130075000D03*
X167000000Y-133000000D03*
%TD*%
D10*
%TO.C,C3*%
X157475000Y-118500000D03*
X154525000Y-118500000D03*
%TD*%
M02*
